<svg width="412" height="53" viewBox="0 0 412 53" fill="none" xmlns="http://www.w3.org/2000/svg">
<path d="M26.0653 52.05C11.4353 52.05 0.585277 41.06 0.585277 26.43C0.585277 11.87 11.2953 0.949998 25.7853 0.949998C40.6953 0.949998 47.6953 9.07 48.6753 18.45H39.4353C38.3153 14.32 35.6553 9.77 25.8553 9.77C16.8253 9.77 9.75528 15.93 9.75528 26.5C9.75528 37 16.7553 43.23 25.8553 43.23C36.1453 43.23 38.8753 38.68 40.0653 34.55H49.3053C47.9753 45.47 40.5553 52.05 26.0653 52.05ZM56.6241 33.43C56.6241 22.16 64.5341 14.95 76.5741 14.95C88.6841 14.95 96.5941 22.65 96.5941 33.43C96.5941 44.28 88.6841 52.12 76.5741 52.12C64.5341 52.12 56.6241 44.7 56.6241 33.43ZM65.7241 33.43C65.7241 39.17 68.8741 43.86 76.5741 43.86C84.3441 43.86 87.4941 39.17 87.4941 33.43C87.4941 27.69 84.3441 23.21 76.5741 23.21C68.8041 23.21 65.7241 27.69 65.7241 33.43ZM116.118 17.82C119.058 15.51 122.138 14.95 126.688 14.95C133.828 14.95 139.358 19.01 139.358 26.99V51H130.748V33.15C130.748 26.43 128.298 23.42 123.188 23.42C117.588 23.42 112.828 26.43 112.828 33.15V51H104.288V16H112.828V16.56C112.828 19.36 111.428 22.72 110.378 25.38L111.848 26.01C112.898 23.35 113.878 19.57 116.118 17.82ZM154.986 39.24V23.49H147.986V16H154.986V2.77H163.526V16H172.626V23.49H163.526V39.24C163.526 42.18 164.856 43.02 168.146 43.02H172.276V51H163.806C157.226 51 154.986 44.84 154.986 39.24ZM207.959 47.5C205.369 50.37 201.729 52.12 197.039 52.12C186.609 52.12 179.259 43.72 179.259 33.29C179.259 22.86 186.609 14.95 197.039 14.95C201.729 14.95 205.369 16.56 207.889 19.29C209.359 20.83 209.639 23.7 210.339 25.73L211.809 25.24C211.179 23.21 209.919 20.76 209.919 18.66L209.849 16H218.459V51H209.849L209.919 48.13C209.919 46.03 211.179 43.51 211.809 41.55L210.269 41.06C209.639 43.02 209.359 45.89 207.959 47.5ZM187.869 33.29C187.869 39.17 191.719 44.14 197.529 44.14C203.269 44.14 207.119 39.03 207.329 33.29C207.329 27.13 203.899 22.93 197.529 22.93C191.719 22.93 187.869 27.34 187.869 33.29ZM227.848 33.29C227.848 21.88 235.408 14.95 246.748 14.95C258.298 14.95 264.458 22.09 265.158 28.6H255.988C255.778 27.9 253.328 23 246.538 23C240.238 23 236.388 26.92 236.318 33.22C236.318 39.45 240.378 43.93 246.818 44C253.468 44 255.988 39.1 256.198 38.33H265.368C264.248 45.19 258.298 52.05 247.098 52.12C235.548 52.05 227.848 44.7 227.848 33.29ZM279.137 39.24V23.49H272.137V16H279.137V2.77H287.677V16H296.777V23.49H287.677V39.24C287.677 42.18 289.007 43.02 292.297 43.02H296.427V51H287.957C281.377 51 279.137 44.84 279.137 39.24ZM368.79 2V33.99C368.86 45.68 359.34 52.05 347.16 52.05C334.91 52.05 325.53 45.68 325.46 33.99C325.46 19.43 325.53 2 325.53 2H334.7V31.4C334.77 37.77 340.02 43.44 347.16 43.44C354.37 43.44 359.69 37.77 359.62 31.4C359.62 21.39 359.62 2 359.62 2H368.79ZM411.917 39.66C411.917 46.45 406.597 52.12 395.187 52.12C383.147 52.12 377.477 44.98 377.477 39.1H386.087C386.087 40.92 389.517 44.07 396.097 44.07C401.417 44.07 403.167 42.18 403.167 40.22C403.167 33.36 377.757 37.91 377.757 25.31C377.757 19.85 383.007 14.95 394.067 14.95C406.457 14.95 411.147 21.04 411.147 25.94H402.537C402.537 23.7 399.247 21.95 393.577 21.95C389.727 21.95 386.367 23 386.367 25.24C386.367 30.28 411.917 25.45 411.917 39.66Z" fill="#28CBFF"/>
</svg>
