<svg width="306" height="256" viewBox="0 0 306 256" fill="none" xmlns="http://www.w3.org/2000/svg">
<rect x="0.5" y="0.5" width="305" height="49" stroke="#28CBFF"/>
<rect x="0.5" y="58.5" width="305" height="49" stroke="#28CBFF"/>
<rect x="0.5" y="116.5" width="305" height="71" stroke="#28CBFF"/>
<path d="M18.052 31V18.4H19.15L27.844 29.344H27.268V18.4H28.582V31H27.484L18.808 20.056H19.384V31H18.052ZM38.3466 31V28.912L38.2926 28.57V25.078C38.2926 24.274 38.0646 23.656 37.6086 23.224C37.1646 22.792 36.4986 22.576 35.6106 22.576C34.9986 22.576 34.4166 22.678 33.8646 22.882C33.3126 23.086 32.8446 23.356 32.4606 23.692L31.8846 22.738C32.3646 22.33 32.9406 22.018 33.6126 21.802C34.2846 21.574 34.9926 21.46 35.7366 21.46C36.9606 21.46 37.9026 21.766 38.5626 22.378C39.2346 22.978 39.5706 23.896 39.5706 25.132V31H38.3466ZM35.0886 31.09C34.3806 31.09 33.7626 30.976 33.2346 30.748C32.7186 30.508 32.3226 30.184 32.0466 29.776C31.7706 29.356 31.6326 28.876 31.6326 28.336C31.6326 27.844 31.7466 27.4 31.9746 27.004C32.2146 26.596 32.5986 26.272 33.1266 26.032C33.6666 25.78 34.3866 25.654 35.2866 25.654H38.5446V26.608H35.3226C34.4106 26.608 33.7746 26.77 33.4146 27.094C33.0666 27.418 32.8926 27.82 32.8926 28.3C32.8926 28.84 33.1026 29.272 33.5226 29.596C33.9426 29.92 34.5306 30.082 35.2866 30.082C36.0066 30.082 36.6246 29.92 37.1406 29.596C37.6686 29.26 38.0526 28.78 38.2926 28.156L38.5806 29.038C38.3406 29.662 37.9206 30.16 37.3206 30.532C36.7326 30.904 35.9886 31.09 35.0886 31.09ZM54.8498 21.46C55.6178 21.46 56.2838 21.61 56.8478 21.91C57.4238 22.198 57.8678 22.642 58.1798 23.242C58.5038 23.842 58.6658 24.598 58.6658 25.51V31H57.3878V25.636C57.3878 24.64 57.1478 23.89 56.6678 23.386C56.1998 22.87 55.5338 22.612 54.6698 22.612C54.0218 22.612 53.4578 22.75 52.9778 23.026C52.5098 23.29 52.1438 23.68 51.8798 24.196C51.6278 24.7 51.5018 25.312 51.5018 26.032V31H50.2238V25.636C50.2238 24.64 49.9838 23.89 49.5038 23.386C49.0238 22.87 48.3518 22.612 47.4878 22.612C46.8518 22.612 46.2938 22.75 45.8138 23.026C45.3338 23.29 44.9618 23.68 44.6978 24.196C44.4458 24.7 44.3198 25.312 44.3198 26.032V31H43.0418V21.55H44.2658V24.106L44.0678 23.656C44.3558 22.972 44.8178 22.438 45.4538 22.054C46.1018 21.658 46.8638 21.46 47.7398 21.46C48.6638 21.46 49.4498 21.694 50.0978 22.162C50.7458 22.618 51.1658 23.308 51.3578 24.232L50.8538 24.034C51.1298 23.266 51.6158 22.648 52.3118 22.18C53.0198 21.7 53.8658 21.46 54.8498 21.46ZM66.1456 31.09C65.1616 31.09 64.2976 30.886 63.5536 30.478C62.8096 30.058 62.2276 29.488 61.8076 28.768C61.3876 28.036 61.1776 27.202 61.1776 26.266C61.1776 25.33 61.3756 24.502 61.7716 23.782C62.1796 23.062 62.7316 22.498 63.4276 22.09C64.1356 21.67 64.9276 21.46 65.8036 21.46C66.6916 21.46 67.4776 21.664 68.1616 22.072C68.8576 22.468 69.4036 23.032 69.7996 23.764C70.1956 24.484 70.3936 25.318 70.3936 26.266C70.3936 26.326 70.3876 26.392 70.3756 26.464C70.3756 26.524 70.3756 26.59 70.3756 26.662H62.1496V25.708H69.6916L69.1876 26.086C69.1876 25.402 69.0376 24.796 68.7376 24.268C68.4496 23.728 68.0536 23.308 67.5496 23.008C67.0456 22.708 66.4636 22.558 65.8036 22.558C65.1556 22.558 64.5736 22.708 64.0576 23.008C63.5416 23.308 63.1396 23.728 62.8516 24.268C62.5636 24.808 62.4196 25.426 62.4196 26.122V26.32C62.4196 27.04 62.5756 27.676 62.8876 28.228C63.2116 28.768 63.6556 29.194 64.2196 29.506C64.7956 29.806 65.4496 29.956 66.1816 29.956C66.7576 29.956 67.2916 29.854 67.7836 29.65C68.2876 29.446 68.7196 29.134 69.0796 28.714L69.7996 29.542C69.3796 30.046 68.8516 30.43 68.2156 30.694C67.5916 30.958 66.9016 31.09 66.1456 31.09Z" fill="white" fill-opacity="0.5"/>
<path d="M19.24 82.034H25.9V83.168H19.24V82.034ZM19.384 87.848H26.962V89H18.052V76.4H26.692V77.552H19.384V87.848ZM28.7695 84.68V83.564H33.4855V84.68H28.7695ZM36.6145 89V76.4H37.7125L43.4725 86.228H42.8965L48.6025 76.4H49.7005V89H48.4225V78.398H48.7285L43.4725 87.398H42.8425L37.5505 78.398H37.8925V89H36.6145ZM59.4579 89V86.912L59.4039 86.57V83.078C59.4039 82.274 59.1759 81.656 58.7199 81.224C58.2759 80.792 57.6099 80.576 56.7219 80.576C56.1099 80.576 55.5279 80.678 54.9759 80.882C54.4239 81.086 53.9559 81.356 53.5719 81.692L52.9959 80.738C53.4759 80.33 54.0519 80.018 54.7239 79.802C55.3959 79.574 56.1039 79.46 56.8479 79.46C58.0719 79.46 59.0139 79.766 59.6739 80.378C60.3459 80.978 60.6819 81.896 60.6819 83.132V89H59.4579ZM56.1999 89.09C55.4919 89.09 54.8739 88.976 54.3459 88.748C53.8299 88.508 53.4339 88.184 53.1579 87.776C52.8819 87.356 52.7439 86.876 52.7439 86.336C52.7439 85.844 52.8579 85.4 53.0859 85.004C53.3259 84.596 53.7099 84.272 54.2379 84.032C54.7779 83.78 55.4979 83.654 56.3979 83.654H59.6559V84.608H56.4339C55.5219 84.608 54.8859 84.77 54.5259 85.094C54.1779 85.418 54.0039 85.82 54.0039 86.3C54.0039 86.84 54.2139 87.272 54.6339 87.596C55.0539 87.92 55.6419 88.082 56.3979 88.082C57.1179 88.082 57.7359 87.92 58.2519 87.596C58.7799 87.26 59.1639 86.78 59.4039 86.156L59.6919 87.038C59.4519 87.662 59.0319 88.16 58.4319 88.532C57.8439 88.904 57.0999 89.09 56.1999 89.09ZM64.1531 89V79.55H65.4311V89H64.1531ZM64.8011 77.462C64.5371 77.462 64.3151 77.372 64.1351 77.192C63.9551 77.012 63.8651 76.796 63.8651 76.544C63.8651 76.292 63.9551 76.082 64.1351 75.914C64.3151 75.734 64.5371 75.644 64.8011 75.644C65.0651 75.644 65.2871 75.728 65.4671 75.896C65.6471 76.064 65.7371 76.274 65.7371 76.526C65.7371 76.79 65.6471 77.012 65.4671 77.192C65.2991 77.372 65.0771 77.462 64.8011 77.462ZM68.9871 89V75.644H70.2651V89H68.9871Z" fill="white" fill-opacity="0.5"/>
<path d="M18.052 158V145.4H19.15L24.91 155.228H24.334L30.04 145.4H31.138V158H29.86V147.398H30.166L24.91 156.398H24.28L18.988 147.398H19.33V158H18.052ZM38.9874 158.09C38.0034 158.09 37.1394 157.886 36.3954 157.478C35.6514 157.058 35.0694 156.488 34.6494 155.768C34.2294 155.036 34.0194 154.202 34.0194 153.266C34.0194 152.33 34.2174 151.502 34.6134 150.782C35.0214 150.062 35.5734 149.498 36.2694 149.09C36.9774 148.67 37.7694 148.46 38.6454 148.46C39.5334 148.46 40.3194 148.664 41.0034 149.072C41.6994 149.468 42.2454 150.032 42.6414 150.764C43.0374 151.484 43.2354 152.318 43.2354 153.266C43.2354 153.326 43.2294 153.392 43.2174 153.464C43.2174 153.524 43.2174 153.59 43.2174 153.662H34.9914V152.708H42.5334L42.0294 153.086C42.0294 152.402 41.8794 151.796 41.5794 151.268C41.2914 150.728 40.8954 150.308 40.3914 150.008C39.8874 149.708 39.3054 149.558 38.6454 149.558C37.9974 149.558 37.4154 149.708 36.8994 150.008C36.3834 150.308 35.9814 150.728 35.6934 151.268C35.4054 151.808 35.2614 152.426 35.2614 153.122V153.32C35.2614 154.04 35.4174 154.676 35.7294 155.228C36.0534 155.768 36.4974 156.194 37.0614 156.506C37.6374 156.806 38.2914 156.956 39.0234 156.956C39.5994 156.956 40.1334 156.854 40.6254 156.65C41.1294 156.446 41.5614 156.134 41.9214 155.714L42.6414 156.542C42.2214 157.046 41.6934 157.43 41.0574 157.694C40.4334 157.958 39.7434 158.09 38.9874 158.09ZM48.3747 158.09C47.5947 158.09 46.8567 157.982 46.1607 157.766C45.4647 157.538 44.9187 157.256 44.5227 156.92L45.0987 155.912C45.4827 156.2 45.9747 156.452 46.5747 156.668C47.1747 156.872 47.8047 156.974 48.4647 156.974C49.3647 156.974 50.0127 156.836 50.4087 156.56C50.8047 156.272 51.0027 155.894 51.0027 155.426C51.0027 155.078 50.8887 154.808 50.6607 154.616C50.4447 154.412 50.1567 154.262 49.7967 154.166C49.4367 154.058 49.0347 153.968 48.5907 153.896C48.1467 153.824 47.7027 153.74 47.2587 153.644C46.8267 153.548 46.4307 153.41 46.0707 153.23C45.7107 153.038 45.4167 152.78 45.1887 152.456C44.9727 152.132 44.8647 151.7 44.8647 151.16C44.8647 150.644 45.0087 150.182 45.2967 149.774C45.5847 149.366 46.0047 149.048 46.5567 148.82C47.1207 148.58 47.8047 148.46 48.6087 148.46C49.2207 148.46 49.8327 148.544 50.4447 148.712C51.0567 148.868 51.5607 149.078 51.9567 149.342L51.3987 150.368C50.9787 150.08 50.5287 149.876 50.0487 149.756C49.5687 149.624 49.0887 149.558 48.6087 149.558C47.7567 149.558 47.1267 149.708 46.7187 150.008C46.3227 150.296 46.1247 150.668 46.1247 151.124C46.1247 151.484 46.2327 151.766 46.4487 151.97C46.6767 152.174 46.9707 152.336 47.3307 152.456C47.7027 152.564 48.1047 152.654 48.5367 152.726C48.9807 152.798 49.4187 152.888 49.8507 152.996C50.2947 153.092 50.6967 153.23 51.0567 153.41C51.4287 153.578 51.7227 153.824 51.9387 154.148C52.1667 154.46 52.2807 154.874 52.2807 155.39C52.2807 155.942 52.1247 156.422 51.8127 156.83C51.5127 157.226 51.0687 157.538 50.4807 157.766C49.9047 157.982 49.2027 158.09 48.3747 158.09ZM57.1638 158.09C56.3838 158.09 55.6458 157.982 54.9498 157.766C54.2538 157.538 53.7078 157.256 53.3118 156.92L53.8878 155.912C54.2718 156.2 54.7638 156.452 55.3638 156.668C55.9638 156.872 56.5938 156.974 57.2538 156.974C58.1538 156.974 58.8018 156.836 59.1978 156.56C59.5938 156.272 59.7918 155.894 59.7918 155.426C59.7918 155.078 59.6778 154.808 59.4498 154.616C59.2338 154.412 58.9458 154.262 58.5858 154.166C58.2258 154.058 57.8238 153.968 57.3798 153.896C56.9358 153.824 56.4918 153.74 56.0478 153.644C55.6158 153.548 55.2198 153.41 54.8598 153.23C54.4998 153.038 54.2058 152.78 53.9778 152.456C53.7618 152.132 53.6538 151.7 53.6538 151.16C53.6538 150.644 53.7978 150.182 54.0858 149.774C54.3738 149.366 54.7938 149.048 55.3458 148.82C55.9098 148.58 56.5938 148.46 57.3978 148.46C58.0098 148.46 58.6218 148.544 59.2338 148.712C59.8458 148.868 60.3498 149.078 60.7458 149.342L60.1878 150.368C59.7678 150.08 59.3178 149.876 58.8378 149.756C58.3578 149.624 57.8778 149.558 57.3978 149.558C56.5458 149.558 55.9158 149.708 55.5078 150.008C55.1118 150.296 54.9138 150.668 54.9138 151.124C54.9138 151.484 55.0218 151.766 55.2378 151.97C55.4658 152.174 55.7598 152.336 56.1198 152.456C56.4918 152.564 56.8938 152.654 57.3258 152.726C57.7698 152.798 58.2078 152.888 58.6398 152.996C59.0838 153.092 59.4858 153.23 59.8458 153.41C60.2178 153.578 60.5118 153.824 60.7278 154.148C60.9558 154.46 61.0698 154.874 61.0698 155.39C61.0698 155.942 60.9138 156.422 60.6018 156.83C60.3018 157.226 59.8578 157.538 59.2698 157.766C58.6938 157.982 57.9918 158.09 57.1638 158.09ZM69.3368 158V155.912L69.2828 155.57V152.078C69.2828 151.274 69.0548 150.656 68.5988 150.224C68.1548 149.792 67.4888 149.576 66.6008 149.576C65.9888 149.576 65.4068 149.678 64.8548 149.882C64.3028 150.086 63.8348 150.356 63.4508 150.692L62.8748 149.738C63.3548 149.33 63.9308 149.018 64.6028 148.802C65.2748 148.574 65.9828 148.46 66.7268 148.46C67.9508 148.46 68.8928 148.766 69.5528 149.378C70.2248 149.978 70.5608 150.896 70.5608 152.132V158H69.3368ZM66.0788 158.09C65.3708 158.09 64.7528 157.976 64.2248 157.748C63.7088 157.508 63.3128 157.184 63.0368 156.776C62.7608 156.356 62.6228 155.876 62.6228 155.336C62.6228 154.844 62.7368 154.4 62.9648 154.004C63.2048 153.596 63.5888 153.272 64.1168 153.032C64.6568 152.78 65.3768 152.654 66.2768 152.654H69.5348V153.608H66.3128C65.4008 153.608 64.7648 153.77 64.4048 154.094C64.0568 154.418 63.8828 154.82 63.8828 155.3C63.8828 155.84 64.0928 156.272 64.5128 156.596C64.9328 156.92 65.5208 157.082 66.2768 157.082C66.9968 157.082 67.6148 156.92 68.1308 156.596C68.6588 156.26 69.0428 155.78 69.2828 155.156L69.5708 156.038C69.3308 156.662 68.9108 157.16 68.3108 157.532C67.7228 157.904 66.9788 158.09 66.0788 158.09ZM78.064 161.582C77.2 161.582 76.372 161.456 75.58 161.204C74.788 160.952 74.146 160.592 73.654 160.124L74.302 159.152C74.746 159.548 75.292 159.86 75.94 160.088C76.6 160.328 77.296 160.448 78.028 160.448C79.228 160.448 80.11 160.166 80.674 159.602C81.238 159.05 81.52 158.186 81.52 157.01V154.652L81.7 153.032L81.574 151.412V148.55H82.798V156.848C82.798 158.48 82.396 159.674 81.592 160.43C80.8 161.198 79.624 161.582 78.064 161.582ZM77.83 157.64C76.93 157.64 76.12 157.448 75.4 157.064C74.68 156.668 74.11 156.122 73.69 155.426C73.282 154.73 73.078 153.932 73.078 153.032C73.078 152.132 73.282 151.34 73.69 150.656C74.11 149.96 74.68 149.42 75.4 149.036C76.12 148.652 76.93 148.46 77.83 148.46C78.67 148.46 79.426 148.634 80.098 148.982C80.77 149.33 81.304 149.846 81.7 150.53C82.096 151.214 82.294 152.048 82.294 153.032C82.294 154.016 82.096 154.85 81.7 155.534C81.304 156.218 80.77 156.74 80.098 157.1C79.426 157.46 78.67 157.64 77.83 157.64ZM77.956 156.506C78.652 156.506 79.27 156.362 79.81 156.074C80.35 155.774 80.776 155.366 81.088 154.85C81.4 154.322 81.556 153.716 81.556 153.032C81.556 152.348 81.4 151.748 81.088 151.232C80.776 150.716 80.35 150.314 79.81 150.026C79.27 149.726 78.652 149.576 77.956 149.576C77.272 149.576 76.654 149.726 76.102 150.026C75.562 150.314 75.136 150.716 74.824 151.232C74.524 151.748 74.374 152.348 74.374 153.032C74.374 153.716 74.524 154.322 74.824 154.85C75.136 155.366 75.562 155.774 76.102 156.074C76.654 156.362 77.272 156.506 77.956 156.506ZM90.3683 158.09C89.3843 158.09 88.5203 157.886 87.7763 157.478C87.0323 157.058 86.4503 156.488 86.0303 155.768C85.6103 155.036 85.4003 154.202 85.4003 153.266C85.4003 152.33 85.5983 151.502 85.9943 150.782C86.4023 150.062 86.9543 149.498 87.6503 149.09C88.3583 148.67 89.1503 148.46 90.0263 148.46C90.9143 148.46 91.7003 148.664 92.3843 149.072C93.0803 149.468 93.6263 150.032 94.0223 150.764C94.4183 151.484 94.6163 152.318 94.6163 153.266C94.6163 153.326 94.6103 153.392 94.5983 153.464C94.5983 153.524 94.5983 153.59 94.5983 153.662H86.3723V152.708H93.9143L93.4103 153.086C93.4103 152.402 93.2603 151.796 92.9603 151.268C92.6723 150.728 92.2763 150.308 91.7723 150.008C91.2683 149.708 90.6863 149.558 90.0263 149.558C89.3783 149.558 88.7963 149.708 88.2803 150.008C87.7643 150.308 87.3623 150.728 87.0743 151.268C86.7863 151.808 86.6423 152.426 86.6423 153.122V153.32C86.6423 154.04 86.7983 154.676 87.1103 155.228C87.4343 155.768 87.8783 156.194 88.4423 156.506C89.0183 156.806 89.6723 156.956 90.4043 156.956C90.9803 156.956 91.5143 156.854 92.0063 156.65C92.5103 156.446 92.9423 156.134 93.3023 155.714L94.0223 156.542C93.6023 157.046 93.0743 157.43 92.4383 157.694C91.8143 157.958 91.1243 158.09 90.3683 158.09Z" fill="white" fill-opacity="0.5"/>
<rect y="196" width="306" height="60" fill="#28CBFF"/>
<path d="M84.66 221.2L82.68 222.52C81.76 221.5 80.36 220.88 78.42 220.88C77.08 220.88 75.84 221.42 75.84 222.36C75.84 224.38 85.06 224.12 85.06 229.08C85.06 231.72 82.3 233.3 78.52 233.3C75.86 233.3 74.16 232.3 72.68 230.28L74.66 229C75.58 230.24 76.8 230.86 78.86 230.86C80.74 230.86 81.86 230.16 81.86 229.18C81.86 226.5 73 226.84 73 222.5C73 220.16 75.7 218.7 79 218.7C81.38 218.7 83.24 219.68 84.66 221.2ZM86.3895 227.94C86.3895 224.68 88.5495 222.7 91.7895 222.7C95.0895 222.7 96.8495 224.74 97.0495 226.6H94.4295C94.3695 226.4 93.6695 225 91.7295 225C89.9295 225 88.8295 226.12 88.8095 227.92C88.8095 229.7 89.9695 230.98 91.8095 231C93.7095 231 94.4295 229.6 94.4895 229.38H97.1095C96.7895 231.34 95.0895 233.3 91.8895 233.32C88.5895 233.3 86.3895 231.2 86.3895 227.94ZM102.164 223.62C103.004 222.9 103.944 222.7 105.244 222.7C107.284 222.7 108.864 223.86 108.864 226.14V233H106.404V227.9C106.404 225.98 105.704 225.12 104.244 225.12C102.644 225.12 101.284 225.98 101.284 227.9V233H98.8436V218.48H101.284V223.28C101.284 224.06 100.884 225 100.604 225.74L101.024 225.9C101.304 225.16 101.564 224.12 102.164 223.62ZM116.691 233.32C112.631 233.32 110.451 230.92 110.451 227.94C110.451 224.96 112.831 222.7 116.211 222.7C119.691 222.7 121.851 225.14 121.831 227.9C121.831 228.1 121.831 228.58 121.811 228.76L113.391 228.74C113.391 229.84 114.391 231.22 116.451 231.22C117.791 231.22 118.611 230.64 118.811 230.14H121.611C121.311 231.18 119.831 233.32 116.691 233.32ZM113.391 227.1H118.971C118.971 225.72 117.951 224.64 116.271 224.64C114.571 224.64 113.391 225.84 113.391 227.1ZM131.651 223.78V218.5L134.111 218.48V232.98L131.651 233V232.28C131.651 231.68 131.991 230.98 132.191 230.4L131.751 230.26C131.571 230.84 131.471 231.66 131.051 232.08C130.311 232.86 129.291 233.32 127.951 233.32C124.951 233.32 122.891 231 122.951 228.04C123.011 225.16 125.051 222.7 127.931 222.7C129.271 222.7 130.311 223.22 131.031 224C131.451 224.42 131.571 225.24 131.771 225.8L132.191 225.66C131.991 225.08 131.651 224.38 131.651 223.78ZM128.271 231.02C130.151 231.02 131.211 229.76 131.211 228.08C131.211 226.38 130.151 224.98 128.271 224.98C126.391 224.98 125.391 226.38 125.391 228.08C125.391 229.76 126.391 231.02 128.271 231.02ZM143.043 232.38C142.223 233.18 141.463 233.3 140.083 233.3C138.123 233.3 136.223 232.12 136.223 229.86V223H138.683V228.28C138.683 230.36 139.623 231.14 140.963 231.14C142.423 231.14 143.623 230.26 143.623 228.28V223H146.063V233H143.623V232.6C143.643 232.06 144.003 231.44 144.183 230.92L143.763 230.76C143.583 231.28 143.443 232 143.043 232.38ZM148.573 230.58V218.5H151.033V229.64C151.033 230.46 151.373 230.72 152.293 230.72H153.533V233H152.053C149.773 233 148.573 232.14 148.573 230.58ZM161.105 233.32C157.045 233.32 154.865 230.92 154.865 227.94C154.865 224.96 157.245 222.7 160.625 222.7C164.105 222.7 166.265 225.14 166.245 227.9C166.245 228.1 166.245 228.58 166.225 228.76L157.805 228.74C157.805 229.84 158.805 231.22 160.865 231.22C162.205 231.22 163.025 230.64 163.225 230.14H166.025C165.725 231.18 164.245 233.32 161.105 233.32ZM157.805 227.1H163.385C163.385 225.72 162.365 224.64 160.685 224.64C158.985 224.64 157.805 225.84 157.805 227.1ZM171.485 232.98L176.645 218.96H179.645L185.045 232.98H182.305L180.425 228.1H175.965L174.245 232.98H171.485ZM180.105 226.14L178.465 222.42C178.285 222 178.385 221.42 178.385 220.98H177.925C177.925 221.42 178.025 222 177.845 222.42L176.205 226.14H180.105ZM197.753 233.3C193.573 233.3 190.473 230.16 190.473 225.98C190.473 221.82 193.533 218.7 197.673 218.7C201.933 218.7 203.933 221.02 204.213 223.7H201.573C201.253 222.52 200.493 221.22 197.693 221.22C195.113 221.22 193.093 222.98 193.093 226C193.093 229 195.093 230.78 197.693 230.78C200.633 230.78 201.413 229.48 201.753 228.3H204.393C204.013 231.42 201.893 233.3 197.753 233.3ZM213.924 232C213.184 232.82 212.144 233.32 210.804 233.32C207.824 233.32 205.724 230.92 205.724 227.94C205.724 224.96 207.824 222.7 210.804 222.7C212.144 222.7 213.184 223.16 213.904 223.94C214.324 224.38 214.404 225.2 214.604 225.78L215.024 225.64C214.844 225.06 214.484 224.36 214.484 223.76L214.464 223H216.924V233H214.464L214.484 232.18C214.484 231.58 214.844 230.86 215.024 230.3L214.584 230.16C214.404 230.72 214.324 231.54 213.924 232ZM208.184 227.94C208.184 229.62 209.284 231.04 210.944 231.04C212.584 231.04 213.684 229.58 213.744 227.94C213.744 226.18 212.764 224.98 210.944 224.98C209.284 224.98 208.184 226.24 208.184 227.94ZM219.316 230.58V218.5H221.776V229.64C221.776 230.46 222.116 230.72 223.036 230.72H224.276V233H222.796C220.516 233 219.316 232.14 219.316 230.58ZM226.347 230.58V218.5H228.807V229.64C228.807 230.46 229.147 230.72 230.067 230.72H231.307V233H229.827C227.547 233 226.347 232.14 226.347 230.58Z" fill="#080910"/>
</svg>
