<svg width="485" height="406" viewBox="0 0 485 406" fill="none" xmlns="http://www.w3.org/2000/svg">
<g opacity="0.8">
<path d="M375.113 25.3774H377.383L381.644 17.9493H379.374L375.113 25.3774ZM380.038 16.7909H382.309L383.322 15.0244H381.052L380.038 16.7909Z" fill="#003141"/>
<path d="M377.45 27.8105H379.72L381.597 24.5381H381.631C381.749 25.1752 382.293 25.5951 383.495 25.5951C385.698 25.5951 388.073 24.0748 389.452 21.6711C390.781 19.3544 390.25 17.7472 387.98 17.7472C386.812 17.7472 385.736 18.225 384.812 18.8765H384.762L385.293 17.9499H383.106L377.45 27.8105ZM383.95 23.9589C382.597 23.9589 382.386 23.0757 383.159 21.7291C383.923 20.397 385.097 19.3399 386.516 19.3399C387.918 19.3399 387.921 20.3245 387.115 21.7291C386.309 23.1336 385.101 23.9589 383.95 23.9589Z" fill="#003141"/>
<path d="M391.73 25.5951C393.867 25.5951 395.851 24.6974 396.706 23.206C397.703 21.4684 396.316 21.1209 395.03 20.8603C393.936 20.6431 392.834 20.5851 393.2 19.9481C393.507 19.4123 394.258 19.1227 395.142 19.1227C396.111 19.1227 396.529 19.4123 396.172 20.2087H398.225C398.914 18.7173 398.218 17.7472 395.965 17.7472C394.012 17.7472 392.036 18.5146 391.114 20.1218C390.184 21.7435 391.478 22.1056 392.864 22.3662C393.917 22.5688 394.96 22.6413 394.553 23.3508C394.254 23.8721 393.496 24.2051 392.494 24.2051C391.476 24.2051 390.991 23.8286 391.33 22.9743H389.227C388.455 24.5526 389.243 25.5951 391.73 25.5951Z" fill="#003141"/>
<path d="M404.081 25.3773L408.342 17.9492H406.071L403.613 22.2352C403.048 23.2198 401.998 23.9148 400.93 23.9148C399.962 23.9148 399.785 23.437 400.284 22.5682L402.933 17.9492H400.68L397.839 22.9012C396.909 24.5229 397.371 25.58 399.274 25.58C400.476 25.58 401.368 25.189 402.342 24.5084H402.392L401.894 25.3773H404.081Z" fill="#003141"/>
<path d="M405.548 25.3778H407.818L410.293 21.0629C410.858 20.0783 411.841 19.4412 412.759 19.4412C413.594 19.4412 413.829 19.8755 413.347 20.7154L410.672 25.3778H412.943L415.418 21.0629C415.983 20.0783 416.932 19.4412 417.884 19.4412C418.718 19.4412 418.953 19.8755 418.472 20.7154L415.797 25.3778H418.067L420.933 20.3824C421.863 18.7606 421.426 17.7471 419.623 17.7471C418.538 17.7471 417.355 18.2394 416.305 19.0502H416.272C416.303 18.2683 415.734 17.7471 414.649 17.7471C413.464 17.7471 412.33 18.2683 411.472 18.9489H411.422L411.995 17.9498H409.809L405.548 25.3778Z" fill="#003141"/>
<path d="M382.444 12.6548H384.714L390.653 2.30185H388.383L382.444 12.6548Z" fill="#003141"/>
<path d="M390.141 12.8724C392.795 12.8724 395.595 11.1638 396.865 8.94839C398.136 6.73301 397.297 5.02441 394.643 5.02441C391.989 5.02441 389.189 6.73301 387.918 8.94839C386.647 11.1638 387.487 12.8724 390.141 12.8724ZM391.005 11.3665C389.602 11.3665 389.391 10.3964 390.222 8.94839C391.052 7.50042 392.385 6.51582 393.787 6.51582C395.173 6.51582 395.392 7.50042 394.562 8.94839C393.731 10.3964 392.39 11.3665 391.005 11.3665Z" fill="#003141"/>
<path d="M398.113 15.1892C399.382 15.1892 400.633 14.9285 401.683 14.3493C402.608 13.8425 403.399 13.133 403.997 12.0905L407.934 5.22713H405.747L405.299 6.00903H405.265C405.105 5.3864 404.528 5.02441 403.46 5.02441C401.29 5.02441 398.94 6.44342 397.669 8.65881C396.382 10.9031 397.504 12.2063 399.407 12.2063C400.492 12.2063 401.359 11.8299 402.142 11.3376H402.192L401.727 12.1484C401.145 13.162 400.221 13.6977 398.935 13.6977C397.883 13.6977 397.607 13.3357 397.689 12.8724H395.436C394.839 14.3204 395.776 15.1892 398.113 15.1892ZM400.696 10.628C399.528 10.628 399.183 9.88958 399.906 8.62986C400.62 7.38462 401.837 6.60269 402.988 6.60269C404.357 6.60269 404.493 7.52937 403.87 8.61539C403.239 9.71581 402.132 10.628 400.696 10.628Z" fill="#003141"/>
<path d="M409.067 12.8724C411.721 12.8724 414.52 11.1638 415.791 8.94839C417.062 6.73301 416.223 5.02441 413.568 5.02441C410.914 5.02441 408.115 6.73301 406.844 8.94839C405.573 11.1638 406.412 12.8724 409.067 12.8724ZM409.93 11.3665C408.528 11.3665 408.317 10.3964 409.147 8.94839C409.978 7.50042 411.311 6.51582 412.713 6.51582C414.098 6.51582 414.318 7.50042 413.488 8.94839C412.657 10.3964 411.316 11.3665 409.93 11.3665Z" fill="#003141"/>
<path d="M417.283 9.81717H427.098L428.07 8.12305H418.255L417.283 9.81717Z" fill="#003141"/>
<path d="M423.878 16.6873C424.069 16.3541 424.535 16.084 424.919 16.084H426.31C426.694 16.084 426.851 16.3541 426.66 16.6873C426.469 17.0205 426.002 17.2906 425.618 17.2906H424.227C423.843 17.2906 423.686 17.0205 423.878 16.6873Z" fill="#003141"/>
<path fill-rule="evenodd" clip-rule="evenodd" d="M366.744 0C375.914 0 379.649 6.44861 375.086 14.4034C370.523 22.3582 359.39 28.8068 350.219 28.8068C341.048 28.8068 337.313 22.3582 341.876 14.4034C346.44 6.44861 357.573 0 366.744 0ZM365.525 1.0778C363.498 1.30904 360.937 2.6294 358.27 4.83767C357.496 5.47821 356.724 6.18587 355.966 6.94995C358.108 6.53494 360.34 6.29026 362.557 6.25242L365.525 1.0778ZM354.365 7.29589C355.382 6.21476 356.438 5.22008 357.506 4.33589C358.828 3.24119 360.194 2.29586 361.539 1.5698C355.763 2.84123 349.805 6.29197 345.828 10.6698C347.127 9.86474 348.626 9.15018 350.234 8.54812C351.532 8.06179 352.921 7.64035 354.365 7.29589ZM353.267 8.51319C351.842 10.1647 350.519 11.9789 349.383 13.8828H343.418C344.627 12.2396 347.046 10.6749 350.289 9.46043C351.229 9.10813 352.228 8.79024 353.267 8.51319ZM350.584 13.8828C351.825 11.805 353.289 9.85437 354.848 8.13086C357.119 7.63596 359.539 7.3368 361.959 7.2938L360.669 9.54282C358.637 11.5272 355.908 13.1079 353.176 13.8828H350.584ZM348.786 14.924H342.82C342.144 16.5672 342.769 18.1318 344.618 19.3463C345.154 19.6986 345.788 20.0165 346.51 20.2936C346.979 18.6421 347.737 16.8279 348.786 14.924ZM347.652 20.6759C348.07 18.9524 348.844 17.0018 349.986 14.924H352.579C354.422 15.6988 355.338 17.2796 355.093 19.264L353.803 21.513C351.432 21.47 349.355 21.1708 347.652 20.6759ZM346.21 21.5109C345.162 21.1664 344.257 20.745 343.516 20.2587C342.6 19.6566 341.92 18.942 341.544 18.137C340.499 22.5148 342.498 25.9656 346.815 27.237C346.304 26.5109 346.022 25.5656 345.956 24.4709C345.903 23.5867 345.987 22.592 346.21 21.5109ZM350.237 27.729C348.475 27.4977 347.429 26.1774 347.296 23.9691C347.257 23.3286 347.296 22.6209 347.415 21.8569C349.081 22.2718 351.032 22.5165 353.205 22.5543L350.237 27.729ZM355.424 27.237C356.768 26.5109 358.134 25.5656 359.457 24.4709C360.524 23.5867 361.581 22.592 362.598 21.5109C364.042 21.1664 365.431 20.745 366.729 20.2587C368.336 19.6566 369.836 18.942 371.135 18.137C367.158 22.5148 361.2 25.9656 355.424 27.237ZM360.996 21.8569C360.239 22.6209 359.466 23.3286 358.693 23.9691C356.026 26.1774 353.465 27.4977 351.437 27.729L354.406 22.5543C356.622 22.5165 358.854 22.2718 360.996 21.8569ZM363.695 20.2936C364.735 20.0165 365.733 19.6986 366.674 19.3463C369.916 18.1318 372.336 16.5672 373.545 14.924H367.579C366.444 16.8279 365.121 18.6421 363.695 20.2936ZM366.379 14.924C365.137 17.0018 363.674 18.9524 362.114 20.6759C359.844 21.1708 357.423 21.47 355.003 21.513L356.292 19.2656C358.324 17.2805 361.054 15.699 363.787 14.924H366.379ZM368.177 13.8828H374.142C374.818 12.2396 374.194 10.6749 372.345 9.46043C371.808 9.10813 371.175 8.79024 370.453 8.51319C369.984 10.1647 369.225 11.9789 368.177 13.8828ZM369.311 8.13086C368.893 9.85437 368.119 11.805 366.976 13.8828H364.385C362.541 13.1077 361.625 11.5262 361.871 9.54116L363.16 7.2938C365.53 7.3368 367.608 7.63596 369.311 8.13086ZM370.752 7.29589C371.801 7.64035 372.706 8.06179 373.446 8.54812C374.363 9.15018 375.043 9.86474 375.418 10.6698C376.464 6.29197 374.465 2.84123 370.147 1.5698C370.659 2.29586 370.94 3.24119 371.007 4.33589C371.06 5.22008 370.975 6.21476 370.752 7.29589ZM366.725 1.0778C368.487 1.30904 369.534 2.6294 369.667 4.83767C369.706 5.47821 369.666 6.18587 369.547 6.94995C367.881 6.53494 365.93 6.29026 363.757 6.25242L366.725 1.0778Z" fill="#003141"/>
</g>
<g opacity="0.8">
<path d="M374.283 77.3527C374.262 77.3897 374.235 77.4358 374.209 77.4636C373.947 77.8238 373.741 78.184 373.562 78.5535C373.53 78.6459 373.499 78.7382 373.544 78.8121C373.606 78.9507 373.84 78.923 374.022 78.7567C374.114 78.6736 374.161 78.5905 374.187 78.5073C374.279 78.1563 374.47 77.7868 374.665 77.4266C374.676 77.4081 374.692 77.3804 374.708 77.3527C374.833 77.3435 374.947 77.3342 375.045 77.3342C375.127 77.325 375.197 77.3158 375.268 77.2881C375.473 77.2142 375.563 77.0571 375.432 76.9832C375.382 76.9555 375.3 76.9463 375.224 76.9463C374.947 76.9555 374.674 76.9555 374.402 76.9555C374.304 76.9555 374.201 76.9648 374.097 76.974C374.038 76.9832 373.972 76.9832 373.913 77.011C373.821 77.0387 373.751 77.0848 373.714 77.1495C373.687 77.2142 373.699 77.2511 373.759 77.2788C373.787 77.3065 373.836 77.3158 373.89 77.3158C374.016 77.325 374.147 77.3435 374.283 77.3527ZM377.034 77.7776C377.029 77.7868 377.035 77.7961 377.035 77.7961C376.935 78.0455 376.841 78.2856 376.736 78.5258C376.699 78.6089 376.668 78.6828 376.696 78.7475C376.747 78.9045 376.976 78.886 377.169 78.7198C377.26 78.6366 377.319 78.5535 377.35 78.4611C377.444 78.184 377.57 77.9069 377.658 77.6391C377.71 77.4728 377.746 77.3158 377.776 77.168C377.796 77.0756 377.757 77.0109 377.632 77.0017C377.512 76.9832 377.382 77.0387 377.28 77.1218C377.172 77.1957 377.075 77.2696 376.984 77.3527C376.823 77.5005 376.673 77.6483 376.506 77.7868C376.474 77.8238 376.447 77.8515 376.41 77.8792C376.409 77.8607 376.404 77.8515 376.404 77.8515C376.395 77.6206 376.396 77.3897 376.382 77.168C376.371 77.1495 376.371 77.131 376.37 77.1126C376.353 77.0294 376.303 76.9832 376.183 76.9832C376.069 76.9925 375.95 77.0479 375.848 77.131C375.805 77.168 375.789 77.1957 375.757 77.2326C375.544 77.5282 375.32 77.8238 375.107 78.1194C374.989 78.2856 374.883 78.4519 374.788 78.6182C374.756 78.6551 374.74 78.7013 374.741 78.7382C374.72 78.8121 374.759 78.8583 374.841 78.8676C374.944 78.8768 375.037 78.8491 375.112 78.7752C375.176 78.7198 375.213 78.6736 375.251 78.6274C375.39 78.4611 375.513 78.3041 375.635 78.1471C375.71 78.0547 375.763 77.9808 375.854 77.8792C375.855 77.9162 375.861 77.9439 375.867 77.9716C375.901 78.0824 375.936 78.1933 376.002 78.2856C376.08 78.3595 376.183 78.3503 376.329 78.2672C376.361 78.2487 376.377 78.2395 376.41 78.221C376.582 78.0917 376.776 77.9623 376.948 77.833C376.981 77.8146 377.002 77.7961 377.034 77.7776Z" fill="#003141"/>
<path d="M352.08 77.5342C351.904 77.7098 351.817 77.8362 351.791 77.9414C351.748 78.0843 351.821 78.1311 351.978 78.0947C353.411 77.8265 355.779 78.588 356.696 78.8002C356.916 78.8448 357.269 78.5766 357.24 78.3362C357.129 78.1034 354.897 77.1065 353.858 77.0522C353.451 77.0321 352.753 76.9409 352.08 77.5342Z" fill="#003141"/>
<path d="M364.894 74.3068C364.993 74.3736 365.032 74.4372 365.029 74.5084C365.032 74.6017 364.965 74.6662 364.852 74.6992C363.806 75.0492 361.816 76.5561 361.064 77.0758C360.885 77.1953 360.671 77.1259 360.745 76.9293C360.881 76.707 362.816 75.0716 363.628 74.6262C363.947 74.4523 364.504 74.1111 364.894 74.3068Z" fill="#003141"/>
<path d="M358.586 73.5659C358.81 73.4612 359.001 73.4245 359.049 73.4925C359.794 74.4179 359.63 75.8833 359.279 77.2249C359.277 77.2562 359.252 77.301 359.213 77.3478C359.185 77.3878 359.126 77.43 359.052 77.4627C358.973 77.4988 358.917 77.5098 358.911 77.4787C358.722 76.8337 356.968 74.324 358.586 73.5659Z" fill="#003141"/>
<path d="M322.364 89.6098C322.781 89.4168 323.205 89.256 323.629 89.1313C324.048 89.042 324.432 89.0568 324.722 89.1735C325.012 89.2901 325.193 89.5022 325.238 89.7778C325.261 90.0526 325.15 90.3699 324.921 90.6819C324.692 90.9938 324.358 91.2835 323.968 91.5074C323.662 91.6889 323.341 91.847 323.015 91.9776C321.545 92.5905 320.084 93.1698 318.604 93.7828C318.285 93.9362 317.961 94.0738 317.635 94.1942C317.15 94.3593 316.679 94.4036 316.302 94.3192C315.926 94.235 315.668 94.0273 315.574 93.7324C315.497 93.5236 315.462 93.2952 315.469 93.0523C315.493 91.1464 315.473 89.2488 315.556 87.3092C315.562 86.4697 315.73 85.5041 315.889 84.5721C315.881 84.3013 316.029 83.9874 316.302 83.697C316.574 83.4066 316.95 83.1628 317.348 83.0173C317.746 82.8719 318.135 82.8363 318.434 82.9181C318.732 82.9999 318.915 83.1927 318.945 83.4554C319.14 84.0795 319.25 84.7424 319.273 85.4369C319.379 87.1162 319.436 88.7954 319.531 90.4243C319.539 90.5143 319.555 90.6011 319.579 90.6845C320.513 90.4082 321.449 90.0469 322.364 89.6098Z" fill="#003141"/>
<path d="M333.755 89.0237C329.917 91.4501 326.17 90.8372 325.903 87.7138C325.709 85.4972 327.552 81.8364 332.064 79.5275C333.022 79.0441 334.025 78.7148 334.979 78.5703C336.122 78.4404 337.12 78.6003 337.83 79.027C338.54 79.4538 338.926 80.1256 338.932 80.9465C339.134 83.6333 336.921 87.0589 333.755 89.0237ZM336.011 83.3646C336.13 82.7043 335.932 82.1406 335.451 81.7692C335.194 81.5318 334.783 81.4164 334.287 81.4424C333.791 81.4684 333.239 81.6342 332.726 81.912C330.698 82.9783 328.952 85.5056 329.119 87.0085C329.11 87.2536 329.178 87.4714 329.318 87.6467C329.458 87.822 329.667 87.9505 329.931 88.0233C330.195 88.0961 330.507 88.1113 330.845 88.0681C331.183 88.0247 331.539 87.9239 331.888 87.7726C332.945 87.268 333.907 86.5731 334.639 85.7847C335.372 84.9962 335.839 84.1532 335.976 83.373L336.011 83.3646Z" fill="#003141"/>
<path d="M346.374 84.4216C346.098 84.4673 345.837 84.47 345.609 84.4296C345.38 84.3892 345.188 84.3066 345.044 84.1866C344.909 84.096 344.82 83.9714 344.782 83.8219C344.745 83.6723 344.76 83.5015 344.828 83.3216C344.895 83.1417 345.012 82.9574 345.171 82.7817C345.33 82.6061 345.526 82.4435 345.746 82.3058C346.151 82.0289 346.614 81.8307 347.059 81.7432C348.237 81.4892 349.389 81.3343 350.492 81.2815C350.741 81.2582 350.97 81.2751 351.166 81.3312C351.362 81.3874 351.52 81.4815 351.632 81.6083C351.744 81.735 351.806 81.8917 351.817 82.0691C351.827 82.2466 351.784 82.4412 351.692 82.6417C351.436 83.6261 350.878 84.6583 350.062 85.6559C347.321 88.88 343.616 89.9883 340.764 88.9556C339.955 88.6795 339.402 88.165 339.176 87.4779C338.823 86.6504 338.799 85.6697 339.106 84.6148C339.403 83.6753 339.988 82.7005 340.814 81.7715C341.64 80.8426 342.681 79.9865 343.852 79.2748C345.019 78.5012 346.307 77.8924 347.6 77.5031C348.458 77.1871 349.301 77.0972 349.963 77.2513C350.11 77.2912 350.22 77.3691 350.281 77.4767C350.342 77.5844 350.352 77.718 350.31 77.8636C350.268 78.0092 350.175 78.1616 350.041 78.3049C349.908 78.4482 349.738 78.5772 349.55 78.6786C349.194 78.8684 348.828 79.0372 348.459 79.1824C347.306 79.6578 346.189 80.2703 345.166 80.9876C344.499 81.4517 343.918 81.9847 343.462 82.549C343.007 83.1132 342.689 83.6951 342.53 84.2537C342.318 85.0154 342.424 85.6991 342.834 86.21C344.048 87.8893 347.809 86.2688 348.629 83.9766C347.82 84.1278 347.095 84.2873 346.374 84.4216Z" fill="#003141"/>
<path d="M356.962 89.1581C352.781 90.8374 350.082 89.1581 351.303 85.6317C352.163 83.1129 355.295 79.5864 359.947 78.243C360.933 77.9634 361.885 77.8652 362.714 77.9576C363.68 78.1221 364.398 78.5648 364.768 79.2231C365.139 79.8813 365.142 80.722 364.777 81.6267C363.711 84.6241 360.391 87.8231 356.962 89.1581ZM361.322 83.5074C361.721 82.81 361.818 82.135 361.594 81.6015C361.5 81.2715 361.226 81.0351 360.819 80.9325C360.412 80.8299 359.897 80.8675 359.362 81.039C357.254 81.6771 354.697 83.9944 354.165 85.6989C354.045 85.9664 354 86.2244 354.032 86.4547C354.063 86.6851 354.171 86.8824 354.348 87.0327C354.525 87.183 354.766 87.2829 355.055 87.3251C355.344 87.3673 355.674 87.3511 356.021 87.2774C357.099 87.0045 358.189 86.4946 359.139 85.8187C360.09 85.1428 360.853 84.3348 361.322 83.5074Z" fill="#003141"/>
<path d="M363.307 89.8636C363.082 90.1709 362.732 90.4493 362.333 90.6374C361.935 90.8255 361.521 90.9081 361.182 90.867C360.843 90.8258 360.608 90.6642 360.527 90.4177C360.447 90.1713 360.528 89.8602 360.753 89.5529C360.978 89.2456 361.328 88.9673 361.726 88.7791C362.125 88.5909 362.539 88.5084 362.878 88.5496C363.216 88.5908 363.452 88.7523 363.532 88.9988C363.613 89.2452 363.532 89.5563 363.307 89.8636ZM368.943 78.5371C369.271 78.2932 369.654 78.1074 370.034 78.0076C370.414 77.9077 370.771 77.8991 371.053 77.9829C371.347 78.0539 371.547 78.2203 371.62 78.4541C371.693 78.688 371.634 78.9752 371.454 79.2675C371.142 79.7365 370.792 80.2022 370.407 80.6613C369.189 82.2146 367.982 83.7679 366.754 85.3044C366.244 85.9174 365.699 86.5051 365.115 87.1264C364.924 87.3206 364.691 87.4961 364.435 87.6386C364.265 87.7457 364.079 87.8279 363.895 87.8775C363.71 87.9272 363.533 87.9427 363.38 87.9226C363.227 87.9025 363.102 87.8475 363.018 87.7627C362.933 87.6778 362.892 87.5658 362.897 87.4371C362.912 87.2062 362.99 86.9581 363.128 86.7066C363.725 85.6655 364.327 84.616 365.008 83.5664C366.002 82.0686 367.12 80.5812 368.353 79.1164C368.512 78.9201 368.707 78.7325 368.928 78.5622L368.943 78.5371Z" fill="#003141"/>
<path fill-rule="evenodd" clip-rule="evenodd" d="M314.166 96.61C313.922 96.8313 313.749 97.078 313.67 97.3155C313.528 97.6285 313.435 97.9363 313.392 98.232C313.343 98.5941 313.315 98.9522 313.281 99.3935C313.273 99.4951 313.265 99.6011 313.256 99.7126C313.208 100.311 313.14 101.075 312.999 102.18C312.959 102.495 312.901 102.811 312.844 103.13C312.82 103.259 312.797 103.388 312.774 103.518C312.696 103.978 312.778 104.392 313.014 104.72C313.091 104.901 313.255 105.032 313.485 105.098C313.719 105.165 314.012 105.16 314.325 105.085C314.639 105.01 314.957 104.868 315.241 104.677C315.518 104.49 315.749 104.265 315.904 104.029C316.277 103.57 316.513 103.094 316.584 102.651C316.717 101.917 316.81 101.181 316.844 100.461L316.844 100.458C316.866 99.3318 316.873 98.2135 316.85 97.0948L316.849 97.087C316.822 96.7955 316.719 96.535 316.544 96.317C316.461 96.1225 316.268 95.9913 315.997 95.9461C315.721 95.8999 315.382 95.9464 315.041 96.0774C314.72 96.1993 314.413 96.3857 314.166 96.61Z" fill="#003141"/>
<path fill-rule="evenodd" clip-rule="evenodd" d="M325.29 93.8377C324.434 93.6227 323.43 93.5914 322.347 93.746C321.54 93.8103 320.696 93.9609 319.999 94.2594C319.645 94.4112 319.316 94.6063 319.054 94.8541C318.79 95.1034 318.611 95.3884 318.528 95.706C318.375 96.2878 318.286 96.8534 318.197 97.4172L318.182 97.5085L318.182 97.5106C317.948 99.1485 317.723 100.781 317.508 102.408C317.445 102.664 317.422 102.911 317.439 103.145L317.439 103.149C317.472 103.439 317.579 103.698 317.755 103.916C317.837 104.035 317.975 104.118 318.156 104.155C318.338 104.193 318.556 104.182 318.787 104.124C319.017 104.066 319.25 103.963 319.461 103.827C319.669 103.693 319.847 103.532 319.977 103.36C320.375 102.893 320.614 102.404 320.663 101.957C320.684 101.807 320.721 101.654 320.76 101.492C320.773 101.438 320.787 101.384 320.8 101.328C322.757 100.783 324.927 100.05 326.521 98.3442C327.1 97.7548 327.486 97.1167 327.626 96.5172C327.767 95.9171 327.654 95.3852 327.303 94.9947C326.834 94.4481 326.147 94.0532 325.29 93.8377ZM321.377 95.9294C321.414 95.9215 321.451 95.9142 321.487 95.9073C322.64 95.7646 323.626 95.9548 324.265 96.4428C324.532 96.6815 324.546 96.9467 324.428 97.202C324.307 97.4648 324.031 97.7495 323.647 98.0233C322.923 98.5403 321.905 98.9542 321.156 99.0313C321.218 98.0276 321.295 96.9832 321.377 95.9294Z" fill="#003141"/>
<path d="M332.868 92.0009C334.296 91.5444 335.785 91.4655 336.73 91.7865C336.974 91.8568 337.134 92.0088 337.182 92.2166C337.229 92.4231 337.163 92.6719 336.995 92.9206C336.9 93.0821 336.763 93.241 336.592 93.3843C336.419 93.5302 336.218 93.6556 336.005 93.7501C335.792 93.8445 335.574 93.9052 335.369 93.9269C335.164 93.9487 334.979 93.9308 334.829 93.8749L334.817 93.8706L334.808 93.8648C334.738 93.8234 334.657 93.7922 334.566 93.7719L334.56 93.7707C333.868 93.5916 332.948 93.8883 332.466 94.2527C332.235 94.4265 332.118 94.6019 332.136 94.7615C332.154 94.9324 332.33 95.1242 332.829 95.2609C332.967 95.2979 333.11 95.3336 333.254 95.3699C333.654 95.4703 334.069 95.5746 334.445 95.7191L334.447 95.7197C336.174 96.4036 336.151 97.8199 335.116 99.1521C334.093 100.47 332.108 101.668 329.995 101.951C329.209 102.085 328.485 102.059 327.895 101.876C327.304 101.692 326.869 101.358 326.632 100.905L326.626 100.893C326.567 100.723 326.576 100.522 326.652 100.309C326.719 100.118 326.855 99.9192 327.045 99.7378C327.233 99.5574 327.466 99.4014 327.717 99.2877C327.987 99.1587 328.268 99.0814 328.524 99.0653C328.78 99.0492 329.001 99.0946 329.159 99.1959C329.325 99.2845 329.461 99.3975 329.564 99.5319L329.566 99.5343C329.743 99.782 330.093 99.8465 330.497 99.7867C330.908 99.7261 331.37 99.5375 331.741 99.2872C332.109 99.0385 332.369 98.7431 332.426 98.4564C332.484 98.1675 332.344 97.8439 331.784 97.5733C331.635 97.506 331.473 97.4517 331.301 97.3988C331.255 97.3845 331.208 97.3703 331.16 97.3559C331.033 97.3176 330.902 97.278 330.777 97.2344C330.69 97.2045 330.604 97.1761 330.518 97.148C330.284 97.0711 330.056 96.9962 329.852 96.8958C329.378 96.7317 329.068 96.4167 328.968 95.9973C328.868 95.5763 328.985 95.0729 329.301 94.5621C330.017 93.3174 331.433 92.4599 332.868 92.0009Z" fill="#003141"/>
<path d="M347.721 91.8677C347.548 91.7741 347.324 91.7297 347.068 91.7384C346.811 91.7472 346.531 91.8088 346.253 91.9179C345.976 92.0262 345.709 92.1779 345.476 92.3595C345.27 92.5123 345.09 92.6833 344.946 92.8629C344.803 93.0422 344.698 93.2266 344.638 93.4056C344.548 93.6356 344.466 93.8593 344.386 94.0799C344.253 94.4449 344.122 94.8018 343.963 95.1656L343.959 95.1748C343.743 95.7454 343.471 96.3225 343.144 96.9008L343.14 96.909C342.82 97.5335 342.218 98.1459 341.462 98.6161L341.449 98.6245C341.192 98.7964 340.906 98.9276 340.621 99.0034C340.336 99.0793 340.065 99.0967 339.838 99.0538C339.61 99.0109 339.435 98.9093 339.333 98.7605C339.23 98.6116 339.204 98.4208 339.257 98.2104C339.367 97.767 339.545 97.3109 339.787 96.8513L341.945 93.5196C341.974 93.4761 342.004 93.4314 342.034 93.3863C342.101 93.2852 342.17 93.1821 342.229 93.086C342.316 92.9445 342.395 92.799 342.435 92.6613C342.476 92.5206 342.477 92.3867 342.408 92.2727C342.34 92.1599 342.208 92.0766 342.015 92.02C341.665 91.9198 341.318 91.923 340.971 92.0264C340.624 92.1299 340.316 92.3221 340.05 92.544C339.785 92.7641 339.547 93.0247 339.33 93.2857C339.169 93.4793 339.012 93.6826 338.863 93.8761C338.811 93.9428 338.761 94.0083 338.711 94.0719L338.71 94.0737C337.897 95.135 337.219 96.2125 336.687 97.2854C336.37 97.8652 336.184 98.4375 336.139 98.9731C336.039 99.6642 336.231 100.263 336.692 100.69C337.153 101.119 337.861 101.355 338.723 101.367C339.584 101.38 340.558 101.168 341.516 100.76C342.472 100.353 343.366 99.7696 344.081 99.087C345.032 98.2174 345.787 97.2717 346.288 96.3219C346.659 95.6285 347.016 94.9298 347.37 94.2346C347.544 93.8936 347.717 93.5533 347.892 93.2152C348.077 92.876 348.133 92.5476 348.054 92.2738C348.007 92.1008 347.893 91.9612 347.721 91.8677Z" fill="#003141"/>
<path d="M352.723 97.0925C352.685 97.1172 352.647 97.1428 352.606 97.1694C352.938 96.27 353.284 95.371 353.629 94.4705C353.754 94.1475 353.878 93.823 354.002 93.4995L354.016 93.4635L354.011 93.4323C354.002 93.3736 354.031 93.316 354.101 93.1933L354.109 93.1791L354.115 93.1651C354.214 92.9117 354.214 92.6758 354.115 92.4884C354.016 92.3015 353.824 92.1715 353.562 92.115C353.303 92.0536 352.987 92.0671 352.653 92.154C352.319 92.2406 351.982 92.3963 351.684 92.6016C351.444 92.7591 351.221 92.9338 351.022 93.1204C350.583 93.5226 350.141 93.9257 349.698 94.33L349.69 94.337C348.584 95.3461 347.47 96.3621 346.367 97.386L346.364 97.3893C345.667 98.0532 345.004 98.7528 344.344 99.4502C344.212 99.5894 344.08 99.7286 343.948 99.8673C343.728 100.087 343.553 100.321 343.433 100.555C343.296 100.764 343.235 100.973 343.259 101.153C343.284 101.336 343.395 101.481 343.578 101.566C343.771 101.657 344.035 101.677 344.327 101.621C344.618 101.566 344.922 101.438 345.189 101.26C345.526 101.04 345.845 100.8 346.139 100.546C347.01 99.7882 347.867 99.0215 348.721 98.2581C349.051 97.9629 349.359 97.6984 349.701 97.4104C349.693 97.4459 349.686 97.4806 349.679 97.5153C349.466 98.2106 349.398 98.8766 349.478 99.4889C349.485 99.6186 349.534 99.732 349.62 99.8212C349.708 99.9115 349.833 99.9749 349.985 100.007C350.138 100.039 350.316 100.039 350.505 100.007C350.695 99.9757 350.893 99.9122 351.084 99.8223L351.461 99.647L354.483 98.1154L353.963 98.8006C353.249 99.7425 352.54 100.677 351.821 101.611C351.463 102.025 351.215 102.458 351.098 102.871C351.017 103.104 351.027 103.319 351.127 103.488C351.227 103.658 351.415 103.773 351.665 103.819C351.915 103.865 352.217 103.84 352.53 103.746C352.838 103.653 353.144 103.499 353.409 103.302C353.976 102.93 354.454 102.48 354.787 102.005C355.263 101.334 355.756 100.654 356.249 99.9738C356.817 99.1902 357.385 98.4068 357.926 97.6384L357.927 97.636C358.506 96.795 359.037 95.9504 359.519 95.1054C359.693 94.8383 359.767 94.5723 359.73 94.3449C359.694 94.1168 359.547 93.9394 359.312 93.8379C359.074 93.7203 358.751 93.6888 358.389 93.7483C358.029 93.8073 357.651 93.953 357.309 94.1639C356.735 94.4741 356.174 94.806 355.628 95.1575L355.624 95.1599C355.021 95.5569 354.416 95.9617 353.814 96.3639C353.449 96.6084 353.084 96.8524 352.723 97.0925Z" fill="#003141"/>
</g>
<g opacity="0.8">
<path d="M216.138 178.602C225.308 178.602 236.442 172.153 241.005 164.198L246.788 154.116C247.446 152.97 247.551 151.871 247.082 151.061C246.613 150.25 245.607 149.795 244.286 149.795H233.492L229.868 156.114C229.041 157.555 228.285 159.049 228.453 160.276C228.573 161.156 228.976 161.908 229.635 162.483C230.294 163.058 231.194 163.442 232.273 163.608L232.566 163.653C232.675 163.692 232.746 163.765 232.771 163.863C232.795 163.961 232.771 164.078 232.703 164.198C232.634 164.318 232.523 164.436 232.386 164.533C232.25 164.631 232.094 164.705 231.94 164.743L231.597 164.788C229.74 165.031 227.751 165.736 225.909 166.803C224.067 167.87 222.465 169.245 221.33 170.735L221.121 171.01C221.011 171.124 220.869 171.223 220.717 171.293C220.564 171.363 220.407 171.4 220.269 171.4C220.13 171.4 220.017 171.363 219.944 171.293C219.871 171.223 219.843 171.124 219.864 171.01L219.97 170.735C220.363 169.715 220.478 168.744 220.307 167.886C220.137 167.028 219.684 166.304 218.981 165.763C218 165.006 216.329 164.918 214.666 164.918H207.402C203.465 172.539 207.246 178.602 216.138 178.602Z" fill="#003141"/>
<path d="M208.207 163.478H215.492C217.154 163.478 218.927 163.39 220.775 162.634C222.22 162.043 223.614 161.236 224.846 160.276C226.421 159.049 227.38 157.555 228.207 156.114L231.831 149.795H221.038C219.717 149.795 218.189 150.25 216.79 151.061C215.391 151.871 214.235 152.97 213.578 154.116L208.207 163.478ZM253.799 151.235C253.58 151.617 253.195 151.984 252.729 152.254C252.263 152.524 251.753 152.676 251.313 152.676C250.872 152.676 250.537 152.524 250.381 152.254C250.224 151.984 250.259 151.617 250.478 151.235C250.698 150.853 251.083 150.487 251.549 150.217C252.015 149.947 252.525 149.795 252.965 149.795C253.406 149.795 253.741 149.947 253.897 150.217C254.054 150.487 254.019 150.853 253.799 151.235ZM386.828 158.512C391.47 158.512 392.097 161.324 390.228 164.581L386.719 170.699H381.861L384.954 165.307C385.801 163.831 385.879 162.612 384.098 162.612C382.317 162.612 381.025 163.831 380.178 165.307L377.085 170.699H372.228L375.32 165.307C376.167 163.831 376.272 162.612 374.491 162.612C372.71 162.612 371.39 163.831 370.543 165.307L367.45 170.699H362.593L366.103 164.581C367.971 161.323 371.824 158.511 376.466 158.511C379.003 158.511 380.34 159.378 380.357 160.808C382.067 159.378 384.509 158.51 386.829 158.51L386.828 158.512ZM356.015 166.949C357.58 166.949 358.967 165.707 359.815 164.23L362.826 158.98H367.683L364.376 164.746C362.4 168.191 358.439 171.051 353.662 171.051C348.885 171.051 348.204 168.192 350.181 164.746L353.489 158.98H358.346L355.335 164.23C354.488 165.706 354.449 166.949 356.015 166.949ZM339.409 171.074C336.359 171.074 334.913 170.16 334.774 168.379L339.264 166.668C339.32 167.417 339.833 167.793 341.047 167.793C342.046 167.793 342.679 167.488 342.895 167.113C343.715 165.683 335.757 167.137 338.365 162.59C339.629 160.386 342.809 158.605 346.479 158.605C349.691 158.605 350.666 159.964 350.695 161.277L346.192 163.011C346.299 162.309 345.623 161.887 344.705 161.887C344.004 161.887 343.478 162.144 343.276 162.496C342.443 163.949 350.333 162.613 347.806 167.019C346.394 169.48 342.7 171.074 339.409 171.074ZM319.559 176.09H314.702L321.168 164.816C323.226 161.23 327.821 158.629 332.14 158.629C336.35 158.629 337.961 161.418 336.012 164.816C333.861 168.566 329.574 171.051 325.284 171.051C324.285 171.051 323.435 170.793 322.827 170.394L319.559 176.09ZM327.286 167.09C328.824 167.09 330.441 166.059 331.141 164.839C331.853 163.598 331.406 162.589 329.867 162.589C328.329 162.589 326.725 163.598 326.013 164.84C325.314 166.059 325.747 167.09 327.286 167.09ZM320.363 157.738C318.77 157.738 318.107 156.59 318.9 155.207C319.694 153.824 321.674 152.676 323.267 152.676C324.859 152.676 325.523 153.824 324.73 155.207C323.936 156.59 321.955 157.738 320.363 157.738ZM317.222 158.98H322.08L315.357 170.699H310.499L317.222 158.98ZM300.977 171.051C296.767 171.051 295.169 168.238 297.132 164.816C299.082 161.418 303.906 158.605 308.116 158.605C312.327 158.605 313.925 161.418 311.975 164.816C310.012 168.238 305.187 171.051 300.977 171.051ZM303.249 167.09C304.788 167.09 306.405 166.059 307.104 164.839C307.816 163.598 307.383 162.566 305.844 162.566C304.306 162.566 302.689 163.598 301.977 164.839C301.277 166.059 301.711 167.09 303.249 167.09ZM281.291 176.441C277.945 176.441 276.255 175.152 276.332 172.855L281.428 170.98C281.403 171.777 281.742 172.598 283.414 172.598C285.17 172.598 286.881 171.636 287.984 169.949C287.054 170.441 285.813 170.816 284.275 170.816C280.524 170.816 278.939 168.308 280.956 164.792C282.905 161.395 287.704 158.629 291.914 158.629C296.232 158.629 297.843 161.23 295.786 164.816L293.124 169.457C290.704 173.676 285.744 176.441 281.291 176.441ZM287.113 166.856C288.57 166.856 290.175 165.988 290.914 164.699C291.64 163.433 291.019 162.589 289.561 162.589C288.13 162.589 286.513 163.433 285.786 164.7C285.047 165.989 285.683 166.855 287.114 166.855L287.113 166.856ZM269.127 171.051C264.916 171.051 263.317 168.238 265.281 164.816C267.23 161.418 272.055 158.605 276.266 158.605C280.475 158.605 282.074 161.418 280.125 164.816C278.161 168.238 273.337 171.051 269.127 171.051ZM271.399 167.09C272.937 167.09 274.554 166.059 275.254 164.839C275.966 163.598 275.532 162.566 273.994 162.566C272.455 162.566 270.838 163.598 270.126 164.839C269.427 166.059 269.86 167.09 271.399 167.09ZM262.135 154.879L255.346 166.715H263.389L261.103 170.699H252.385C249.309 170.699 248.875 169.293 250.152 167.066L257.143 154.879H262.135Z" fill="#003141"/>
</g>
<g opacity="0.8">
<path d="M225.944 226.303C226.67 225.414 228.105 224.693 229.145 224.693H234.8L219.016 244.01H213.361C212.319 244.01 212.063 243.29 212.79 242.401L225.944 226.303ZM244.797 226.303C245.523 225.414 246.957 224.693 247.997 224.693H253.653L237.869 244.01H232.213C231.172 244.01 230.916 243.29 231.643 242.401L244.797 226.303ZM282.502 226.303C283.228 225.414 284.661 224.693 285.703 224.693H291.358L275.574 244.01H269.918C268.877 244.01 268.621 243.29 269.348 242.401L282.502 226.303ZM255.538 224.693H261.194C262.235 224.693 262.491 225.413 261.764 226.303L248.61 242.401C247.884 243.29 246.451 244.01 245.41 244.01H239.754L255.538 224.693ZM293.244 224.693H298.9C299.941 224.693 300.197 225.413 299.47 226.303L286.315 242.401C285.589 243.29 284.156 244.01 283.115 244.01H277.459L293.244 224.693ZM263.65 226.303C264.375 225.414 265.808 224.693 266.85 224.693H272.506L256.721 244.01H251.065C250.024 244.01 249.768 243.29 250.496 242.401L263.649 226.303H263.65ZM274.391 224.693H280.047C281.088 224.693 281.344 225.413 280.617 226.303L260.886 250.45C260.159 251.339 258.726 252.06 257.685 252.06H252.028L274.391 224.693ZM226.163 237.571H233.704L229.758 242.401C229.031 243.29 227.598 244.01 226.557 244.01H220.901L226.162 237.572L226.163 237.571ZM247.865 245.621H255.405L250.144 252.06H244.489C243.447 252.06 243.191 251.34 243.918 250.45L247.865 245.621ZM267.475 247.118L264.27 251.04C264.132 251.208 264.041 251.255 263.843 251.255H263.409C263.212 251.255 263.195 251.208 263.333 251.04L266.538 247.118C266.675 246.95 266.767 246.903 266.965 246.903H267.399C267.597 246.903 267.613 246.95 267.475 247.118ZM267.213 249.764H267.124C267.029 249.764 266.983 249.787 266.917 249.868L265.959 251.04C265.821 251.208 265.729 251.255 265.532 251.255H265.097C264.9 251.255 264.884 251.208 265.021 251.04L268.226 247.118C268.363 246.95 268.457 246.903 268.653 246.903H269.55C270.583 246.903 270.791 247.222 270.151 248.005L269.615 248.661C268.975 249.445 268.245 249.764 267.213 249.764ZM268.59 247.82L267.752 248.847C267.684 248.928 267.693 248.951 267.788 248.951H267.931C268.263 248.951 268.508 248.836 268.75 248.54L269.086 248.128C269.328 247.832 269.273 247.716 268.94 247.716H268.798C268.703 247.716 268.657 247.739 268.59 247.82ZM271.331 248.452L271.65 249.126C271.821 249.474 271.753 249.682 271.435 250.071L271.35 250.176C270.752 250.907 270.094 251.313 269.109 251.313C268.124 251.313 268.077 250.971 268.841 250.036L268.935 249.921C269.073 249.752 269.166 249.705 269.362 249.705H269.824C270.022 249.705 270.038 249.752 269.9 249.92L269.691 250.176C269.502 250.408 269.535 250.501 269.772 250.501C270.011 250.501 270.19 250.414 270.361 250.205L270.451 250.094C270.584 249.932 270.609 249.851 270.515 249.659L270.207 249.039C270.031 248.697 270.097 248.498 270.415 248.11L270.518 247.983C271.116 247.252 271.775 246.845 272.759 246.845C273.745 246.845 273.791 247.188 273.028 248.122L272.933 248.238C272.795 248.406 272.703 248.452 272.506 248.452H272.044C271.847 248.452 271.83 248.406 271.968 248.238L272.176 247.983C272.366 247.75 272.334 247.658 272.095 247.658C271.858 247.658 271.678 247.744 271.507 247.953L271.427 248.052C271.289 248.22 271.263 248.302 271.331 248.452ZM276.075 247.118C276.213 246.95 276.304 246.903 276.502 246.903H276.936C277.134 246.903 277.15 246.95 277.012 247.118L274.627 250.037C273.864 250.971 273.258 251.313 272.273 251.313C271.288 251.313 271.241 250.971 272.005 250.036L274.389 247.118C274.527 246.95 274.62 246.903 274.816 246.903H275.251C275.448 246.903 275.464 246.95 275.328 247.118L272.829 250.176C272.639 250.408 272.679 250.501 272.937 250.501C273.188 250.501 273.386 250.408 273.576 250.176L276.075 247.118ZM277.548 249.479C277.524 249.526 277.535 249.537 277.569 249.537C277.602 249.537 277.632 249.526 277.684 249.479L280.249 247.055C280.377 246.932 280.461 246.903 280.631 246.903H281.291C281.487 246.903 281.504 246.95 281.367 247.118L278.162 251.04C278.024 251.208 277.931 251.255 277.734 251.255H277.422C277.225 251.255 277.208 251.208 277.346 251.04L278.883 249.16C278.925 249.108 278.921 249.096 278.88 249.096C278.853 249.096 278.815 249.108 278.775 249.149L276.729 251.064C276.581 251.203 276.464 251.255 276.267 251.255H276.083C275.879 251.255 275.847 251.203 275.927 251.064L277.002 249.148C277.021 249.108 277.017 249.096 276.983 249.096C276.942 249.096 276.919 249.108 276.877 249.16L275.341 251.04C275.203 251.208 275.112 251.255 274.914 251.255H274.602C274.404 251.255 274.387 251.208 274.526 251.04L277.73 247.118C277.868 246.95 277.96 246.903 278.157 246.903H278.722C278.959 246.903 279.009 246.95 278.891 247.153L277.547 249.479H277.548ZM305.932 224.693C305.475 225.489 304.367 226.134 303.456 226.134C303.239 226.133 303.045 226.095 302.886 226.023C302.728 225.95 302.606 225.844 302.53 225.71C302.453 225.576 302.423 225.418 302.441 225.243C302.458 225.069 302.523 224.882 302.632 224.693C303.089 223.897 304.197 223.253 305.108 223.253C306.019 223.253 306.388 223.897 305.932 224.693Z" fill="#003141"/>
</g>
<g opacity="0.8">
<path d="M183.268 316.896H193.191L194.679 314.304H188.282L193.884 304.538H190.357L183.268 316.896Z" fill="#003141"/>
<path d="M200.062 315.168C198.647 315.168 198.525 314.096 199.447 312.489C200.369 310.881 201.731 309.792 203.145 309.792C204.56 309.792 204.693 310.881 203.77 312.489C202.848 314.096 201.477 315.168 200.062 315.168ZM198.932 317.173C202.219 317.173 205.531 315.15 207.058 312.489C208.585 309.827 207.593 307.805 204.305 307.805C201.038 307.805 197.686 309.827 196.159 312.489C194.632 315.15 195.664 317.173 198.932 317.173Z" fill="#003141"/>
<path d="M208.467 319.954C209.981 319.954 211.485 319.66 212.778 318.969C213.962 318.329 215.055 317.362 215.818 316.031L220.399 308.045H217.291L216.745 308.996H216.705C216.534 308.253 215.885 307.786 214.53 307.786C212 307.786 209.195 309.618 207.708 312.211C206.151 314.924 207.431 316.411 209.722 316.411C210.958 316.411 211.983 315.979 212.917 315.391H212.997L212.492 316.273C211.877 317.344 210.942 317.966 209.567 317.966C208.491 317.966 208.181 317.569 208.27 317.102H205.121C204.379 318.952 205.657 319.954 208.467 319.954ZM211.679 314.32C210.464 314.32 210.162 313.455 210.926 312.124C211.699 310.776 212.992 309.912 214.207 309.912C215.562 309.912 215.705 310.915 215.02 312.107C214.307 313.352 213.094 314.32 211.679 314.32Z" fill="#003141"/>
<path d="M222.704 315.168C221.29 315.168 221.167 314.096 222.089 312.489C223.011 310.881 224.373 309.792 225.788 309.792C227.203 309.792 227.335 310.881 226.413 312.489C225.491 314.096 224.119 315.168 222.704 315.168ZM221.574 317.173C224.862 317.173 228.174 315.15 229.7 312.489C231.227 309.827 230.236 307.805 226.948 307.805C223.68 307.805 220.328 309.827 218.801 312.489C217.275 315.15 218.306 317.173 221.574 317.173Z" fill="#003141"/>
<path d="M228.121 316.896H231.369L236.445 308.047H233.197L228.121 316.896ZM233.901 306.82H237.149L238.458 304.538H235.21L233.901 306.82Z" fill="#003141"/>
<path d="M231.103 319.816H234.351L236.552 315.979H236.592C236.803 316.722 237.482 317.171 238.797 317.171C241.467 317.171 244.292 315.339 245.938 312.47C247.464 309.808 246.971 307.786 244.261 307.786C242.866 307.786 241.562 308.322 240.409 309.117H240.349L240.964 308.045H237.855L231.103 319.816ZM239.21 314.994C237.815 314.994 237.583 314.008 238.406 312.574C239.229 311.139 240.571 310.05 241.985 310.05C243.38 310.05 243.463 311.053 242.59 312.574C241.728 314.078 240.445 314.994 239.21 314.994Z" fill="#003141"/>
<path d="M248.528 317.171C251.198 317.171 253.746 316.169 254.856 314.233C256.155 311.969 254.271 311.571 252.626 311.312C251.45 311.105 250.344 311.018 250.701 310.396C251.018 309.843 251.785 309.584 252.582 309.584C253.478 309.584 253.957 309.826 253.621 310.621H256.61C257.452 308.875 256.522 307.786 253.633 307.786C251.222 307.786 248.674 308.754 247.603 310.621C246.413 312.695 248.068 313.11 249.693 313.369C250.929 313.576 252.115 313.663 251.659 314.458C251.332 315.028 250.535 315.339 249.559 315.339C248.483 315.339 248.053 314.907 248.44 314.026H245.371C244.35 315.979 245.539 317.171 248.528 317.171Z" fill="#003141"/>
<path d="M257.593 317.155C259.008 317.155 260.182 316.671 261.415 315.807H261.475L260.85 316.896H263.958L269.035 308.046H265.787L262.951 312.989C262.346 314.044 261.253 314.77 260.137 314.77C259.101 314.77 258.91 314.234 259.465 313.266L262.459 308.046H259.231L255.9 313.854C254.77 315.824 255.242 317.155 257.593 317.155Z" fill="#003141"/>
<path d="M265.372 316.895H268.62L271.465 311.934C272.07 310.88 273.094 310.137 274.11 310.137C275.087 310.137 275.228 310.69 274.682 311.64L271.668 316.895H274.916L277.762 311.934C278.366 310.88 279.371 310.137 280.407 310.137C281.383 310.137 281.524 310.69 280.979 311.64L277.965 316.895H281.213L284.514 311.139C285.654 309.152 285.282 307.786 282.971 307.786C281.656 307.786 280.282 308.27 278.87 309.342H278.83C278.858 308.391 278.188 307.786 276.853 307.786C275.379 307.786 274.056 308.391 272.892 309.307H272.833L273.556 308.045H270.448L265.372 316.895Z" fill="#003141"/>
<path d="M174.596 297.469L171.766 296.71L163.904 305.618L166.033 297.576L162.332 298.335L160.032 307.024L156.673 301.225L153.093 303.298L156.778 309.659L148.863 307.537L146.363 310.369L155.011 312.688C155.142 312.261 155.337 311.816 155.599 311.358C157.457 308.119 161.991 305.493 165.725 305.493C169.459 305.493 170.98 308.119 169.122 311.358C168.861 311.813 168.547 312.255 168.191 312.68L176.05 314.788L178.55 311.955L169.868 309.627L180.218 307.504L180.968 304.672L169.615 307L179.627 301.201L178.426 299.127L167.596 305.4L174.596 297.469Z" fill="#003141"/>
<path d="M168.163 312.713C167.295 313.74 166.174 314.662 164.94 315.401L168.24 321.1L171.82 319.026L168.163 312.713Z" fill="#003141"/>
<path d="M164.838 315.461C163.6 316.188 162.251 316.731 160.928 317.01L158.879 324.749L162.58 323.99L164.838 315.461Z" fill="#003141"/>
<path d="M160.79 317.038C160.181 317.159 159.579 317.223 158.996 317.223C158.372 317.223 157.809 317.149 157.314 317.012L150.478 324.758L153.308 325.517L160.79 317.038Z" fill="#003141"/>
<path d="M157.215 316.983C156.238 316.69 155.534 316.14 155.148 315.411L145.285 321.124L146.486 323.197L157.215 316.983Z" fill="#003141"/>
<path d="M155.123 315.361C154.754 314.627 154.7 313.717 155.006 312.706L144.695 314.821L143.945 317.653L155.123 315.361Z" fill="#003141"/>
</g>
<g opacity="0.8">
<path fill-rule="evenodd" clip-rule="evenodd" d="M124.418 371.785L110.491 396.064H103.016L116.943 371.785H124.418Z" fill="#003141"/>
<path fill-rule="evenodd" clip-rule="evenodd" d="M128.156 371.785H144.041C149.201 371.785 151.306 375.409 148.742 379.878C146.178 384.348 139.916 387.971 134.756 387.971H126.346L121.704 396.064H114.229L128.156 371.785ZM130.06 381.497H138.47C139.502 381.497 140.754 380.772 141.267 379.878C141.78 378.984 141.359 378.26 140.327 378.26H131.917L130.06 381.497Z" fill="#003141"/>
<path fill-rule="evenodd" clip-rule="evenodd" d="M181.416 371.785L174.221 384.329C172.554 387.235 173.922 389.59 177.277 389.59C180.631 389.59 184.701 387.235 186.368 384.329L193.563 371.785H201.039L193.843 384.329C190.125 390.81 181.045 396.064 173.563 396.064C166.08 396.064 163.028 390.81 166.746 384.329L173.941 371.785H181.416Z" fill="#003141"/>
<path fill-rule="evenodd" clip-rule="evenodd" d="M149.689 383.115C153.278 376.858 162.045 371.785 169.269 371.785H171.138L167.424 378.26H165.555C162.459 378.26 158.702 380.434 157.164 383.115L156.699 383.925C152.853 390.629 143.461 396.064 135.72 396.064H134.786L138.5 389.59H139.434C143.046 389.59 147.43 387.053 149.224 383.925L149.689 383.115Z" fill="#003141"/>
<path d="M242.621 372.595C241.852 373.936 239.973 375.023 238.425 375.023C236.876 375.023 236.245 373.936 237.015 372.595C237.784 371.254 239.662 370.167 241.21 370.167C242.759 370.167 243.39 371.254 242.621 372.595Z" fill="#003141"/>
<path d="M195.138 396.064L206.126 383.127L204.313 390.91C203.231 395.552 210.823 395.552 215.067 390.91L222.183 383.127L218.329 396.064H226.014L232.075 375.721C233.516 370.883 225.748 370.704 221.386 375.475L213.759 383.817L215.702 375.475C216.814 370.704 208.84 370.883 204.731 375.721L187.453 396.064H195.138Z" fill="#003141"/>
</g>
<g opacity="0.8">
<path fill-rule="evenodd" clip-rule="evenodd" d="M127.37 1.61816L113.442 25.8971H105.967L119.895 1.61816H127.37Z" fill="#003141"/>
<path fill-rule="evenodd" clip-rule="evenodd" d="M131.107 1.61816H146.992C152.152 1.61816 154.257 5.24152 151.693 9.71115C149.129 14.1808 142.868 17.8041 137.707 17.8041H129.298L124.655 25.8971H117.18L131.107 1.61816ZM133.012 11.3297H141.421C142.453 11.3297 143.705 10.6051 144.218 9.71115C144.731 8.81723 144.31 8.09255 143.278 8.09255H134.869L133.012 11.3297Z" fill="#003141"/>
<path fill-rule="evenodd" clip-rule="evenodd" d="M184.368 1.61816L177.172 14.1623C175.505 17.0675 176.873 19.4227 180.228 19.4227C183.582 19.4227 187.652 17.0675 189.319 14.1623L196.515 1.61816H203.99L196.794 14.1623C193.076 20.6433 183.997 25.8971 176.514 25.8971C169.031 25.8971 165.979 20.6433 169.697 14.1623L176.893 1.61816H184.368Z" fill="#003141"/>
<path fill-rule="evenodd" clip-rule="evenodd" d="M152.64 12.9483C156.229 6.69085 164.996 1.61816 172.22 1.61816H174.089L170.375 8.09255H168.506C165.41 8.09255 161.653 10.2666 160.115 12.9483L159.651 13.7576C155.805 20.4621 146.412 25.8971 138.671 25.8971H137.737L141.451 19.4227H142.385C145.997 19.4227 150.381 16.8864 152.175 13.7576L152.64 12.9483Z" fill="#003141"/>
<path d="M245.572 2.4279C244.803 3.76879 242.924 4.85579 241.376 4.85579C239.828 4.85579 239.196 3.76879 239.966 2.4279C240.735 1.087 242.613 0 244.161 0C245.71 0 246.341 1.087 245.572 2.4279Z" fill="#003141"/>
<path d="M198.089 25.897L209.077 12.96L207.265 20.743C206.183 25.385 213.774 25.385 218.019 20.743L225.134 12.96L221.28 25.897H228.965L235.026 5.55418C236.467 0.716484 228.699 0.537365 224.337 5.30778L216.711 13.6496L218.653 5.30779C219.765 0.537393 211.791 0.716458 207.682 5.55418L190.404 25.897H198.089Z" fill="#003141"/>
</g>
<g opacity="0.8">
<path fill-rule="evenodd" clip-rule="evenodd" d="M75.3517 92.9974C74.3619 92.9974 73.6083 92.6564 73.2566 92.0493C72.905 91.4422 72.9841 90.6188 73.4766 89.7602L82.0187 74.8691H74.5547L66.0127 89.7602C62.936 95.1236 65.4546 99.4718 71.6377 99.4718H79.8481L83.562 92.9974H75.3517ZM104.429 81.3435C103.546 81.3435 102.587 81.4942 101.604 81.7871C100.621 82.0799 99.6338 82.5091 98.6996 83.0502C97.7654 83.5913 96.9022 84.2336 96.159 84.9406C95.4159 85.6476 94.8075 86.4053 94.3686 87.1705C93.9296 87.9357 93.6687 88.6934 93.6008 89.4004C93.5328 90.1073 93.6592 90.7497 93.9726 91.2908C94.286 91.8318 94.7803 92.2611 95.4273 92.5539C96.0744 92.8467 96.8614 92.9974 97.7436 92.9974C99.5252 92.9974 101.586 92.3835 103.473 91.2908C105.359 90.198 106.917 88.7159 107.804 87.1705C108.69 85.6251 108.833 84.143 108.2 83.0502C107.567 81.9574 106.21 81.3435 104.429 81.3435ZM86.9046 87.1705C90.8016 80.3769 100.311 74.8691 108.143 74.8691C115.975 74.8691 119.165 80.3769 115.268 87.1705C111.371 93.9641 101.862 99.4718 94.0297 99.4718C86.1977 99.4718 83.0076 93.9641 86.9046 87.1705ZM185.04 81.3435C183.258 81.3435 181.197 81.9574 179.311 83.0502C177.424 84.143 175.866 85.6251 174.98 87.1705C174.093 88.7159 173.951 90.198 174.584 91.2908C175.216 92.3835 176.573 92.9974 178.355 92.9974C180.136 92.9974 182.197 92.3835 184.084 91.2908C185.97 90.198 187.528 88.7159 188.415 87.1705C189.301 85.6251 189.444 84.143 188.811 83.0502C188.178 81.9574 186.821 81.3435 185.04 81.3435ZM167.516 87.1705C171.413 80.3769 180.922 74.8691 188.754 74.8691C196.586 74.8691 199.776 80.3769 195.879 87.1705C191.982 93.9641 182.473 99.4718 174.641 99.4718C166.809 99.4718 163.619 93.9641 167.516 87.1705ZM137.999 74.8691C130.167 74.8691 120.658 80.3769 116.76 87.1705C112.863 93.9641 116.054 99.4718 123.886 99.4718H144.785C146.254 99.4718 147.783 99.2776 149.323 98.9176L152.252 100.767L160.57 93.7718C162.685 91.9911 164.397 90.0045 165.554 87.9869L166.023 87.1705C169.92 80.3769 166.73 74.8691 158.898 74.8691H137.999ZM158.559 87.1705C159.445 85.6251 159.588 84.143 158.955 83.0502C158.322 81.9574 156.965 81.3435 155.184 81.3435H134.285C133.402 81.3435 132.442 81.4942 131.459 81.7871C130.476 82.0799 129.49 82.5091 128.556 83.0502C127.621 83.5913 126.758 84.2336 126.015 84.9406C125.272 85.6476 124.663 86.4053 124.224 87.1705C123.786 87.9357 123.525 88.6934 123.457 89.4004C123.389 90.1073 123.515 90.7497 123.828 91.2908C124.142 91.8318 124.636 92.2611 125.283 92.5539C125.93 92.8467 126.717 92.9974 127.6 92.9974H148.499C150.271 92.9975 152.321 92.3898 154.2 91.3068C156.08 90.2238 157.637 88.7533 158.533 87.2158L158.559 87.1705Z" fill="#003141"/>
<path d="M204.992 76.4877C204.746 76.917 204.313 77.3287 203.789 77.6323C203.265 77.9358 202.693 78.1063 202.198 78.1063C201.703 78.1063 201.326 77.9358 201.15 77.6323C200.974 77.3287 201.014 76.917 201.26 76.4877C201.506 76.0585 201.939 75.6468 202.463 75.3432C202.987 75.0397 203.56 74.8691 204.055 74.8691C204.55 74.8691 204.926 75.0397 205.102 75.3432C205.278 75.6468 205.238 76.0585 204.992 76.4877Z" fill="#003141"/>
</g>
<g opacity="0.8">
<path d="M62.3113 156.382H66.7365L58.4083 166.579C56.8453 168.51 55.3429 169.616 53.5771 170.399C51.8613 171.069 50.1507 171.386 48.6574 171.31C45.7307 171.31 43.5325 170.247 44.7332 167.666H49.1864C48.978 168.274 49.4236 168.62 50.4039 168.62C51.7272 168.62 52.7335 167.927 53.6303 166.84L54.5408 165.717H54.4428C53.8384 166.089 53.1924 166.389 52.5443 166.598C51.8961 166.807 51.2592 166.92 50.6722 166.931C48.0956 166.931 47.0718 165.152 48.6084 162.546C50.4065 159.509 54.6679 156.06 58.498 156.06C59.2481 156.017 59.8931 156.156 60.3568 156.46C60.8205 156.763 61.0834 157.219 61.1144 157.772H61.1914L62.3113 156.382ZM54.0917 164.083C55.7931 164.083 57.7139 162.382 58.5815 160.919C59.1424 159.941 59.2762 158.939 57.9739 158.939C56.1954 158.939 54.3062 160.657 53.4316 162.133C52.8602 163.129 52.7543 164.083 54.0566 164.083M103.582 164.411C103.209 165.061 102.415 165.322 101.567 165.322C100.167 165.322 100.047 164.714 100.527 163.864H96.1232C94.2275 167.035 97.041 167.818 99.9399 167.818C103.644 167.818 106.843 166.427 108.485 163.652C109.756 161.435 107.965 160.761 106.07 160.329C104.613 160.001 104.027 159.765 104.344 159.224C104.662 158.683 105.522 158.465 106.243 158.465C107.147 158.465 107.602 158.744 107.254 159.461H111.533C113.003 156.813 110.697 156.035 107.896 156.035C104.493 156.035 101.069 157.378 99.5711 159.916C98.4248 161.915 99.5577 162.649 101.603 163.172C102.91 163.518 104.045 163.627 103.582 164.411ZM139.963 158.028H139.886C140.039 157.429 139.918 156.906 139.545 156.543C139.172 156.181 138.569 156.002 137.836 156.035C135.931 156.035 134.299 156.855 132.489 158.094H132.412L133.8 156.382H129.347L120.331 167.448H124.988L129.813 161.477C130.88 160.178 132.166 159.267 133.322 159.267C134.477 159.267 134.171 160.068 133.372 161.046L128.16 167.448H132.816L137.641 161.477C138.757 160.093 139.995 159.267 141.149 159.267C142.305 159.267 142.024 160.026 141.2 161.046L135.988 167.448H140.644L146.084 160.87C148.376 158.094 148.5 156.011 145.426 156.011C144.573 156.008 143.626 156.191 142.671 156.543C141.717 156.896 140.786 157.406 139.963 158.028ZM24.7703 167.448H29.5806L42.2001 151.93H37.3969L24.7703 167.448ZM45.7861 156.054C49.0349 156.054 51.2519 157.596 49.1995 161.089C46.9661 164.909 42.3283 167.769 37.7491 167.769C34.5983 167.769 32.3185 166.251 34.3673 162.777C36.5835 159.048 41.2559 156.054 45.7861 156.054ZM39.4361 165.061C41.4876 165.061 43.7175 162.479 44.5885 160.961C45.2121 159.874 45.4367 158.811 44.0853 158.811C42.0548 158.811 39.7938 161.544 38.9855 162.953C38.3375 164.083 38.1407 165.061 39.4641 165.061M43.8035 151.93L41.323 155.033H81.7167L84.1972 151.93H43.8035ZM73.9265 156.054C77.1754 156.054 79.3923 157.596 77.34 161.089C75.1065 164.909 70.4618 167.769 65.8826 167.769C62.7317 167.769 60.4519 166.251 62.5078 162.777C64.7449 159.048 69.4173 156.054 73.9265 156.054ZM67.5975 165.061C69.649 165.061 71.8789 162.479 72.7499 160.961C73.3735 159.874 73.5911 158.811 72.2398 158.811C70.2162 158.811 67.9482 161.544 67.1399 162.953C66.4919 164.083 66.2951 165.061 67.6255 165.061M85.8497 151.93L83.3692 155.033H88.0184L90.4989 151.93H85.8497ZM73.2231 167.448H77.8793L86.8948 156.382H82.2106L73.2231 167.448ZM87.8685 167.818C87.1013 167.864 86.4373 167.729 85.9509 167.43C85.4647 167.131 85.1754 166.678 85.1155 166.124H85.0385L80.426 171.723H75.7137L88.2952 156.382H92.7204L91.5237 157.857C92.2985 157.312 93.1537 156.865 94.0248 156.549C94.8958 156.234 95.7602 156.058 96.553 156.035C99.3537 156.035 99.8041 158.119 98.2013 160.827C96.1837 164.235 92.0907 167.818 87.8405 167.818H87.8685ZM92.6476 159.169C90.8482 159.169 88.5957 161.168 87.6862 162.704C87.0731 163.773 86.8243 164.963 88.3017 164.963C90.2272 164.963 92.2866 162.753 93.1542 161.277C93.729 160.275 94.027 159.169 92.6476 159.169ZM115.821 165.704H115.898L114.485 167.46H118.91L127.926 156.394H123.277L118.246 162.577C117.21 163.858 115.912 164.532 114.764 164.532C113.616 164.532 113.9 163.597 114.692 162.619L119.769 156.394H115.119L109.554 163.226C107.147 166.202 107.824 167.806 110.499 167.806C111.342 167.799 112.28 167.6 113.215 167.229C114.151 166.857 115.053 166.328 115.828 165.692L115.821 165.704ZM137.313 171.778L139.793 168.674H84.5766L82.096 171.778H137.313Z" fill="#003141"/>
<path d="M149.408 159.419C149.364 159.415 149.326 159.405 149.295 159.386C149.264 159.368 149.241 159.343 149.229 159.313C149.217 159.282 149.215 159.247 149.222 159.209C149.23 159.171 149.248 159.13 149.274 159.091C149.643 158.55 149.882 158.004 149.975 157.49C150.069 156.975 150.015 156.504 149.816 156.106C149.618 155.708 149.28 155.393 148.826 155.181C148.37 154.969 147.808 154.865 147.176 154.876C147.083 154.876 147.013 154.844 146.98 154.787C146.947 154.73 146.954 154.652 147 154.572C147.046 154.491 147.128 154.414 147.226 154.357C147.324 154.3 147.432 154.268 147.524 154.268C147.687 154.278 147.855 154.278 148.029 154.268C149.338 154.153 150.776 153.666 152.095 152.89C153.415 152.114 154.532 151.098 155.256 150.017C155.308 149.94 155.388 149.869 155.483 149.817C155.577 149.766 155.679 149.737 155.767 149.737C155.811 149.74 155.85 149.751 155.88 149.769C155.911 149.788 155.933 149.813 155.946 149.843C155.959 149.874 155.961 149.909 155.953 149.947C155.946 149.985 155.928 150.025 155.901 150.065C155.533 150.606 155.294 151.151 155.2 151.665C155.107 152.178 155.16 152.65 155.358 153.048C155.556 153.445 155.892 153.761 156.346 153.973C156.8 154.186 157.361 154.29 157.992 154.28C158.085 154.28 158.156 154.312 158.189 154.369C158.222 154.426 158.214 154.503 158.168 154.584C158.122 154.665 158.041 154.742 157.943 154.799C157.844 154.856 157.736 154.888 157.644 154.888C156.303 154.907 154.772 155.351 153.347 156.136C151.921 156.92 150.7 157.99 149.919 159.139C149.868 159.215 149.787 159.287 149.693 159.338C149.598 159.39 149.497 159.419 149.408 159.419Z" fill="#003141"/>
</g>
<g opacity="0.8">
<path fill-rule="evenodd" clip-rule="evenodd" d="M-3.52488 228.315C-4.34425 227.603 -5.56951 227.223 -7.04573 227.223L-3.33181 220.749C-0.37936 220.749 2.07118 221.508 3.7099 222.931C5.34862 224.354 6.10186 226.376 5.87451 228.742C5.64707 231.109 4.44921 233.712 2.43236 236.224C0.415508 238.736 -2.32976 241.043 -5.45629 242.854C-8.58279 244.665 -11.9502 245.898 -15.1325 246.398C-18.3148 246.897 -21.1693 246.641 -23.3348 245.661C-25.5003 244.681 -26.8797 243.021 -27.2985 240.892C-27.7173 238.762 -27.1567 236.259 -25.6876 233.698H-18.2236C-18.9582 234.978 -19.2385 236.23 -19.0291 237.295C-18.8197 238.359 -18.13 239.189 -17.0472 239.679C-15.9645 240.169 -14.5372 240.298 -12.9461 240.048C-11.3549 239.798 -9.67126 239.181 -8.10796 238.276C-6.54469 237.37 -5.17207 236.217 -4.16369 234.961C-3.15523 233.705 -2.55625 232.403 -2.44259 231.22C-2.3289 230.037 -2.70551 229.026 -3.52488 228.315Z" fill="#003141"/>
<path d="M70.1342 230.106H66.5127L60.7887 240.085H64.4102L70.1342 230.106Z" fill="#003141"/>
<path d="M67.9885 228.238C68.1785 228.566 68.5575 228.731 69.1255 228.731C69.6935 228.731 70.2535 228.566 70.8047 228.238C71.3645 227.896 71.7814 227.485 72.0562 227.006C72.3389 226.513 72.3931 226.103 72.218 225.774C72.0437 225.445 71.6722 225.281 71.1042 225.281C70.5362 225.281 69.9687 225.445 69.4018 225.774C68.8499 226.103 68.433 226.513 68.1503 227.006C67.8755 227.485 67.8213 227.896 67.9885 228.238Z" fill="#003141"/>
<path d="M8.83231 240.084L17.1475 225.589H20.8637L14.1739 237.251H21.5827L19.9574 240.084H8.83231Z" fill="#003141"/>
<path fill-rule="evenodd" clip-rule="evenodd" d="M26.5192 240.311C25.3357 240.311 24.3922 240.085 23.6887 239.634C23.0088 239.168 22.6205 238.539 22.5236 237.745C22.4267 236.951 22.6609 236.061 23.2263 235.075C23.7916 234.09 24.5742 233.207 25.574 232.427C26.5739 231.647 27.6768 231.031 28.8827 230.579C30.0965 230.114 31.3031 229.881 32.5023 229.881C33.7016 229.881 34.645 230.107 35.3328 230.558C36.0205 231.01 36.4128 231.633 36.5096 232.427C36.6144 233.207 36.3841 234.09 35.8188 235.075C35.2535 236.061 34.4669 236.951 33.4592 237.745C32.4515 238.539 31.3407 239.168 30.127 239.634C28.921 240.085 27.7185 240.311 26.5192 240.311ZM28.1563 237.457C28.677 237.457 29.1896 237.361 29.6941 237.17C30.2063 236.964 30.6671 236.684 31.0764 236.328C31.5093 235.958 31.8593 235.541 32.1262 235.075C32.3932 234.61 32.5144 234.206 32.4897 233.864C32.4729 233.508 32.3223 233.234 32.0377 233.043C31.7768 232.837 31.3859 232.735 30.8652 232.735C30.3602 232.735 29.8516 232.837 29.3393 233.043C28.8349 233.234 28.3701 233.508 27.945 233.864C27.52 234.22 27.174 234.631 26.9071 235.096C26.6479 235.548 26.5228 235.958 26.5317 236.328C26.5485 236.684 26.6953 236.964 26.972 237.17C27.2566 237.361 27.6513 237.457 28.1563 237.457Z" fill="#003141"/>
<path fill-rule="evenodd" clip-rule="evenodd" d="M33.5748 243.986C34.3175 244.37 35.3201 244.561 36.5825 244.561C37.8134 244.561 39.0318 244.349 40.2378 243.925C41.4438 243.5 42.5388 242.912 43.523 242.159C44.5071 241.406 45.294 240.516 45.8829 239.49L51.2654 230.107H47.7144L47.3299 230.777C47.1764 230.584 46.9693 230.422 46.709 230.292C46.2428 230.031 45.6152 229.901 44.8262 229.901C43.7689 229.901 42.7043 230.12 41.6326 230.558C40.5685 230.983 39.584 231.571 38.6787 232.324C37.7812 233.063 37.0656 233.898 36.5317 234.829C36.0056 235.746 35.7633 236.581 35.8049 237.334C35.8464 238.087 36.1518 238.682 36.7212 239.12C37.2905 239.558 38.1038 239.777 39.1611 239.777C39.9343 239.777 40.711 239.647 41.4915 239.387C41.8695 239.261 42.2308 239.113 42.5754 238.942L42.2139 239.572C41.8135 240.27 41.243 240.811 40.5023 241.194C39.7775 241.577 38.9654 241.769 38.0659 241.769C37.3401 241.769 36.7796 241.659 36.3844 241.44C36.0051 241.221 35.732 240.9 35.5651 240.475L32.233 242.405C32.3927 243.09 32.84 243.617 33.5748 243.986ZM42.916 236.697C42.4431 236.889 41.9542 236.985 41.4492 236.985C40.9443 236.985 40.5574 236.889 40.2886 236.697C40.0356 236.506 39.9007 236.246 39.8841 235.917C39.8752 235.575 39.9807 235.212 40.2005 234.829C40.4361 234.418 40.7507 234.049 41.1443 233.72C41.5378 233.392 41.9789 233.132 42.4676 232.94C42.9563 232.748 43.4452 232.653 43.9344 232.653C44.4394 232.653 44.8183 232.748 45.0713 232.94C45.3401 233.132 45.4749 233.392 45.4759 233.72C45.4926 234.049 45.3832 234.418 45.1476 234.829C44.9121 235.24 44.5975 235.609 44.204 235.938C43.8339 236.253 43.4047 236.506 42.916 236.697Z" fill="#003141"/>
<path fill-rule="evenodd" clip-rule="evenodd" d="M53.0342 240.31C51.8504 240.31 50.9066 240.084 50.2036 239.633C49.5234 239.167 49.1352 238.538 49.0383 237.744C48.9414 236.95 49.1756 236.06 49.7409 235.074C50.3062 234.089 51.0888 233.206 52.0887 232.426C53.0886 231.646 54.1914 231.03 55.3976 230.578C56.6111 230.113 57.8179 229.88 59.0173 229.88C60.216 229.88 61.1598 230.106 61.8471 230.557C62.5352 231.009 62.9273 231.632 63.0242 232.426C63.129 233.206 62.8987 234.089 62.3334 235.074C61.7681 236.06 60.9815 236.95 59.9738 237.744C58.966 238.538 57.8554 239.167 56.6413 239.633C55.4358 240.084 54.2329 240.31 53.0342 240.31ZM54.6713 237.456C55.1915 237.456 55.704 237.36 56.2088 237.169C56.7207 236.963 57.1817 236.683 57.5911 236.327C58.024 235.957 58.374 235.54 58.641 235.074C58.9079 234.609 59.0291 234.205 59.0044 233.863C58.9877 233.507 58.8372 233.233 58.5523 233.042C58.2916 232.836 57.9004 232.734 57.3802 232.734C56.8749 232.734 56.3659 232.836 55.854 233.042C55.3492 233.233 54.8847 233.507 54.4596 233.863C54.0345 234.219 53.6885 234.63 53.4216 235.095C53.1624 235.547 53.0373 235.957 53.0463 236.327C53.0631 236.683 53.2096 236.963 53.4867 237.169C53.7709 237.36 54.166 237.456 54.6713 237.456Z" fill="#003141"/>
<path fill-rule="evenodd" clip-rule="evenodd" d="M72.9968 240.29C72.2243 240.29 71.5883 240.16 71.0903 239.9C70.8285 239.763 70.6147 239.6 70.449 239.41L67.6473 244.294H64.0728L72.2113 230.107H75.8328L75.4378 230.795C75.8074 230.609 76.1917 230.448 76.5906 230.312C77.3948 230.038 78.1839 229.901 78.9564 229.901C80.0454 229.901 80.8786 230.127 81.4555 230.579C82.0488 231.03 82.3582 231.646 82.3839 232.427C82.426 233.207 82.1597 234.097 81.5865 235.096C81.0133 236.095 80.2589 236.985 79.3217 237.765C78.4009 238.545 77.3848 239.161 76.2733 239.613C75.1782 240.065 74.0858 240.29 72.9968 240.29ZM73.9601 237.457C74.4803 237.457 74.9893 237.354 75.4855 237.149C75.9981 236.944 76.4666 236.663 76.8917 236.307C77.3167 235.951 77.6588 235.547 77.918 235.096C78.1849 234.63 78.31 234.22 78.2932 233.864C78.2764 233.508 78.1259 233.234 77.841 233.043C77.5804 232.837 77.1974 232.735 76.6921 232.735C76.1875 232.735 75.6786 232.837 75.1667 233.043C74.6776 233.234 74.2212 233.508 73.7962 233.864C73.3711 234.22 73.0251 234.63 72.7581 235.096C72.499 235.547 72.3696 235.951 72.3707 236.307C72.3875 236.663 72.534 236.944 72.8111 237.149C73.0875 237.354 73.4704 237.457 73.9601 237.457Z" fill="#003141"/>
<path d="M82.2575 240.105C82.8339 240.255 83.461 240.331 84.1395 240.331C85.5755 240.331 86.8764 240.043 88.0429 239.468C89.2243 238.894 90.0941 238.12 90.6516 237.148C91.0128 236.519 91.1697 236.012 91.1209 235.629C91.0806 235.232 90.9141 234.917 90.6214 234.684C90.3287 234.452 89.9847 234.267 89.59 234.13C89.1953 233.993 88.8119 233.877 88.4414 233.781C88.0702 233.685 87.7859 233.576 87.5879 233.452C87.3906 233.329 87.3505 233.165 87.4683 232.96C87.5782 232.768 87.7637 232.624 88.0231 232.529C88.2912 232.419 88.6301 232.364 89.0406 232.364C89.4668 232.364 89.8573 232.44 90.2128 232.59C90.584 232.741 90.8453 233.001 90.996 233.37L94.0918 231.564C93.9014 230.989 93.4702 230.557 92.7984 230.27C92.1508 229.969 91.3378 229.818 90.3593 229.818C89.4285 229.818 88.5372 229.955 87.686 230.229C86.834 230.503 86.0814 230.879 85.4282 231.358C84.7829 231.824 84.2752 232.378 83.9062 233.021C83.5607 233.624 83.4085 234.123 83.4487 234.52C83.4969 234.903 83.6719 235.205 83.9717 235.424C84.2723 235.643 84.6242 235.814 85.0268 235.937C85.4293 236.06 85.8127 236.176 86.176 236.286C86.5465 236.382 86.8276 236.498 87.017 236.635C87.2307 236.758 87.2665 236.943 87.1252 237.189C87.0153 237.381 86.8103 237.531 86.5108 237.641C86.2271 237.751 85.8725 237.805 85.4463 237.805C84.8305 237.805 84.3175 237.709 83.9072 237.518C83.5039 237.313 83.2148 237.032 83.0406 236.676L79.9448 238.483C80.1277 238.852 80.4124 239.181 80.7999 239.468C81.2109 239.742 81.6967 239.954 82.2575 240.105Z" fill="#003141"/>
<path d="M95.4413 240.311C94.3844 240.311 93.5515 240.126 92.9432 239.756C92.3577 239.373 92.0253 238.853 91.9447 238.196C91.8711 237.525 92.0824 236.759 92.5771 235.896L95.8984 230.106H99.52L96.2222 235.855C96.0259 236.198 95.9198 236.492 95.9053 236.738C95.9058 236.985 96.0011 237.176 96.1906 237.313C96.3808 237.45 96.6647 237.518 97.0431 237.518C97.5798 237.518 98.0884 237.375 98.569 237.087C99.0575 236.786 99.4505 236.376 99.7489 235.855L103.047 230.106H106.668L103.359 235.876C102.856 236.752 102.184 237.525 101.341 238.196C100.507 238.853 99.5776 239.373 98.5523 239.756C97.5357 240.126 96.499 240.311 95.4413 240.311Z" fill="#003141"/>
<path d="M112.091 230.107H108.469L102.745 240.085H106.367L109.712 234.254C109.908 233.912 110.152 233.624 110.443 233.392C110.75 233.159 111.081 232.981 111.436 232.858C111.799 232.721 112.161 232.652 112.524 232.652C113.045 232.652 113.396 232.796 113.578 233.084C113.785 233.357 113.742 233.748 113.452 234.254L110.107 240.085H113.728L117.073 234.254C117.27 233.912 117.514 233.624 117.805 233.392C118.112 233.159 118.442 232.981 118.797 232.858C119.16 232.721 119.523 232.652 119.886 232.652C120.407 232.652 120.758 232.796 120.94 233.084C121.146 233.357 121.103 233.748 120.813 234.254L117.468 240.085H121.09L124.635 233.905C125.114 233.07 125.317 232.358 125.244 231.77C125.195 231.167 124.914 230.709 124.4 230.394C123.91 230.065 123.223 229.901 122.339 229.901C121.44 229.901 120.529 230.072 119.607 230.415C119.01 230.633 118.437 230.914 117.886 231.259C117.764 230.898 117.533 230.603 117.192 230.373C116.742 230.059 116.114 229.901 115.31 229.901C114.457 229.901 113.602 230.059 112.743 230.373C112.372 230.504 112.014 230.661 111.668 230.844L112.091 230.107Z" fill="#003141"/>
</g>
<g opacity="0.8">
<path d="M-3.85285 320.996H-1.58263L2.67834 313.567H0.408121L-3.85285 320.996ZM1.07261 312.409H3.34283L4.35616 310.643H2.08594L1.07261 312.409Z" fill="#003141"/>
<path d="M-1.51584 323.429H0.754383L2.63153 320.156H2.66499C2.78358 320.793 3.32727 321.213 4.52913 321.213C6.7326 321.213 9.10705 319.693 10.4859 317.289C11.8148 314.972 11.2845 313.365 9.0143 313.365C7.84582 313.365 6.77045 313.843 5.84584 314.495H5.79577L6.32733 313.568H4.14054L-1.51584 323.429ZM4.98369 319.577C3.63156 319.577 3.42037 318.694 4.19285 317.347C4.95698 316.015 6.13091 314.958 7.5498 314.958C8.952 314.958 8.95474 315.943 8.14905 317.347C7.34335 318.752 6.13549 319.577 4.98369 319.577Z" fill="#003141"/>
<path d="M12.7643 321.213C14.9009 321.213 16.8848 320.316 17.7403 318.824C18.7371 317.087 17.3506 316.739 16.0646 316.478C14.9705 316.261 13.8687 316.203 14.2341 315.566C14.5414 315.03 15.2918 314.741 16.1766 314.741C17.1447 314.741 17.5628 315.03 17.2061 315.827H19.2594C19.948 314.335 19.2526 313.365 16.999 313.365C15.046 313.365 13.07 314.133 12.148 315.74C11.2177 317.362 12.5125 317.724 13.8987 317.984C14.9509 318.187 15.9944 318.259 15.5874 318.969C15.2884 319.49 14.5298 319.823 13.5282 319.823C12.51 319.823 12.0248 319.447 12.3646 318.592H10.2613C9.48952 320.171 10.277 321.213 12.7643 321.213Z" fill="#003141"/>
<path d="M25.1149 320.995L29.3759 313.567H27.1056L24.6471 317.853C24.0823 318.838 23.0326 319.533 21.9642 319.533C20.9961 319.533 20.8194 319.055 21.3178 318.186L23.9674 313.567H21.7139L18.8732 318.519C17.943 320.141 18.405 321.198 20.308 321.198C21.5098 321.198 22.4018 320.807 23.3765 320.127H23.4266L22.9282 320.995H25.1149Z" fill="#003141"/>
<path d="M26.5817 320.996H28.852L31.3272 316.681C31.892 315.696 32.8751 315.059 33.7932 315.059C34.6278 315.059 34.8628 315.494 34.381 316.334L31.7065 320.996H33.9767L36.4519 316.681C37.0167 315.696 37.9664 315.059 38.9179 315.059C39.7525 315.059 39.9875 315.494 39.5057 316.334L36.8312 320.996H39.1014L41.967 316.001C42.8972 314.379 42.4604 313.365 40.6576 313.365C39.5725 313.365 38.3887 313.858 37.3394 314.668H37.306C37.3371 313.886 36.7681 313.365 35.6831 313.365C34.4979 313.365 33.3642 313.886 32.5064 314.567H32.4564L33.0295 313.568H30.8427L26.5817 320.996Z" fill="#003141"/>
<path d="M3.4782 308.273H5.74842L11.6872 297.92H9.41699L3.4782 308.273Z" fill="#003141"/>
<path d="M11.175 308.491C13.8292 308.491 16.6288 306.782 17.8996 304.567C19.1704 302.351 18.331 300.643 15.6768 300.643C13.0227 300.643 10.223 302.351 8.9522 304.567C7.68138 306.782 8.52084 308.491 11.175 308.491ZM12.0388 306.985C10.6366 306.985 10.4253 306.015 11.2559 304.567C12.0865 303.119 13.4191 302.134 14.8213 302.134C16.2068 302.134 16.4266 303.119 15.596 304.567C14.7654 306.015 13.4243 306.985 12.0388 306.985Z" fill="#003141"/>
<path d="M19.1472 310.807C20.4159 310.807 21.6671 310.547 22.7171 309.967C23.6421 309.461 24.4331 308.751 25.0311 307.709L28.9682 300.845H26.7814L26.3329 301.627H26.2995C26.1392 301.005 25.5622 300.643 24.4939 300.643C22.3239 300.643 19.9741 302.062 18.7033 304.277C17.4159 306.521 18.538 307.824 20.441 307.824C21.526 307.824 22.3929 307.448 23.1761 306.956H23.2262L22.7611 307.767C22.1797 308.78 21.2547 309.316 19.9693 309.316C18.9177 309.316 18.6413 308.954 18.7234 308.491H16.4699C15.873 309.939 16.8102 310.807 19.1472 310.807ZM21.7302 306.246C20.5617 306.246 20.2174 305.508 20.94 304.248C21.6544 303.003 22.8708 302.221 24.0226 302.221C25.3914 302.221 25.5275 303.148 24.9045 304.234C24.2733 305.334 23.1658 306.246 21.7302 306.246Z" fill="#003141"/>
<path d="M30.1007 308.491C32.7549 308.491 35.5545 306.782 36.8254 304.567C38.0962 302.351 37.2567 300.643 34.6026 300.643C31.9485 300.643 29.1488 302.351 27.878 304.567C26.6072 306.782 27.4466 308.491 30.1007 308.491ZM30.9646 306.985C29.5624 306.985 29.351 306.015 30.1816 304.567C31.0122 303.119 32.3449 302.134 33.7471 302.134C35.1326 302.134 35.3524 303.119 34.5218 304.567C33.6912 306.015 32.3501 306.985 30.9646 306.985Z" fill="#003141"/>
<path d="M38.3173 305.435H48.1325L49.1043 303.741H39.2891L38.3173 305.435Z" fill="#003141"/>
<path d="M44.9117 312.306C45.1029 311.972 45.5692 311.702 45.9536 311.702H47.3442C47.7286 311.702 47.885 311.972 47.6939 312.306C47.5028 312.639 47.0365 312.909 46.652 312.909H45.2614C44.877 312.909 44.7206 312.639 44.9117 312.306Z" fill="#003141"/>
<path fill-rule="evenodd" clip-rule="evenodd" d="M-12.2223 295.618C-3.05163 295.618 0.683493 302.067 -3.87963 310.022C-8.44275 317.976 -19.5761 324.425 -28.7468 324.425C-37.9174 324.425 -41.6525 317.976 -37.0894 310.022C-32.5263 302.067 -21.3929 295.618 -12.2223 295.618ZM-13.4407 296.696C-15.4676 296.927 -18.0288 298.248 -20.6958 300.456C-21.4694 301.096 -22.2418 301.804 -22.9995 302.568C-20.8575 302.153 -18.6257 301.908 -16.409 301.871L-13.4407 296.696ZM-24.6013 302.914C-23.584 301.833 -22.5276 300.838 -21.4597 299.954C-20.1376 298.859 -18.7716 297.914 -17.427 297.188C-23.2033 298.459 -29.1609 301.91 -33.138 306.288C-31.8391 305.483 -30.3394 304.768 -28.732 304.166C-27.4337 303.68 -26.0452 303.259 -24.6013 302.914ZM-25.6984 304.131C-27.1242 305.783 -28.4469 307.597 -29.5827 309.501H-35.5482C-34.339 307.858 -31.9193 306.293 -28.6769 305.079C-27.7363 304.726 -26.7382 304.408 -25.6984 304.131ZM-28.3821 309.501C-27.1406 307.423 -25.6769 305.473 -24.1177 303.749C-21.8468 303.254 -19.4263 302.955 -17.0064 302.912L-18.2965 305.161C-20.3284 307.145 -23.0577 308.726 -25.7899 309.501H-28.3821ZM-30.18 310.542H-36.1455C-36.8215 312.185 -36.1968 313.75 -34.3478 314.965C-33.8114 315.317 -33.1779 315.635 -32.456 315.912C-31.9871 314.26 -31.2285 312.446 -30.18 310.542ZM-31.3139 316.294C-30.8958 314.571 -30.1216 312.62 -28.9793 310.542H-26.3872C-24.544 311.317 -23.6281 312.898 -23.8729 314.882L-25.163 317.131C-27.5336 317.088 -29.6109 316.789 -31.3139 316.294ZM-32.7555 317.129C-33.8043 316.785 -34.7092 316.363 -35.4496 315.877C-36.3662 315.275 -37.0462 314.56 -37.4214 313.755C-38.4669 318.133 -36.4682 321.584 -32.1505 322.855C-32.6621 322.129 -32.9437 321.184 -33.0098 320.089C-33.0633 319.205 -32.9785 318.21 -32.7555 317.129ZM-28.7287 323.347C-30.4903 323.116 -31.5367 321.796 -31.6702 319.587C-31.7089 318.947 -31.6694 318.239 -31.5506 317.475C-29.8847 317.89 -27.9336 318.135 -25.7604 318.173L-28.7287 323.347ZM-23.542 322.855C-22.1974 322.129 -20.8314 321.184 -19.5092 320.089C-18.4415 319.205 -17.385 318.21 -16.3678 317.129C-14.9238 316.785 -13.5353 316.363 -12.237 315.877C-10.6296 315.275 -9.12988 314.56 -7.83109 313.755C-11.8081 318.133 -17.7658 321.584 -23.542 322.855ZM-17.9696 317.475C-18.7273 318.239 -19.4997 318.947 -20.2733 319.587C-22.9401 321.796 -25.5013 323.116 -27.5283 323.347L-24.56 318.173C-22.3434 318.135 -20.1115 317.89 -17.9696 317.475ZM-15.2706 315.912C-14.2309 315.635 -13.2327 315.317 -12.2922 314.965C-9.04966 313.75 -6.63 312.185 -5.42081 310.542H-11.3864C-12.5221 312.446 -13.8449 314.26 -15.2706 315.912ZM-12.5869 310.542C-13.8283 312.62 -15.2922 314.571 -16.8514 316.294C-19.1222 316.789 -21.5426 317.088 -23.9626 317.131L-22.6735 314.884C-20.6415 312.899 -17.9113 311.317 -15.1783 310.542H-12.5869ZM-10.7891 309.501H-4.82353C-4.14752 307.858 -4.77217 306.293 -6.62127 305.079C-7.1576 304.726 -7.79113 304.408 -8.51301 304.131C-8.98197 305.783 -9.74053 307.597 -10.7891 309.501ZM-9.65512 303.749C-10.0732 305.473 -10.8473 307.423 -11.9896 309.501H-14.5811C-16.4249 308.726 -17.3406 307.144 -17.0952 305.159L-15.806 302.912C-13.4354 302.955 -11.3582 303.254 -9.65512 303.749ZM-8.21358 302.914C-7.1648 303.259 -6.25982 303.68 -5.51942 304.166C-4.60282 304.768 -3.92284 305.483 -3.54769 306.288C-2.50213 301.91 -4.50088 298.459 -8.81852 297.188C-8.30688 297.914 -8.02538 298.859 -7.95917 299.954C-7.90578 300.838 -7.99051 301.833 -8.21358 302.914ZM-12.2403 296.696C-10.4786 296.927 -9.43223 298.248 -9.29884 300.456C-9.26012 301.096 -9.29959 301.804 -9.41849 302.568C-11.0843 302.153 -13.0355 301.908 -15.2087 301.871L-12.2403 296.696Z" fill="#003141"/>
</g>
</svg>
