<svg width="444" height="101" viewBox="0 0 444 101" fill="none" xmlns="http://www.w3.org/2000/svg">
<path fill-rule="evenodd" clip-rule="evenodd" d="M47.4035 1.71111C48.4285 1.17534 49.6863 0.63958 50.1988 0.499815C50.7113 0.360051 52.2254 0.290168 53.5765 0.336757C55.3468 0.383345 56.3951 0.546404 57.42 0.91911C58.1887 1.19864 59.4 1.7577 60.0988 2.17699C60.7976 2.57299 62.6612 4.20358 64.2452 5.78758C65.8059 7.34828 67.2035 8.62946 67.32 8.62946C67.4365 8.62946 68.1586 7.86076 68.9273 6.95228C69.6727 6.02052 70.9073 4.66946 71.676 3.97064C72.4447 3.27181 73.7259 2.29346 74.5645 1.80429C75.3798 1.31511 76.6376 0.756051 77.3365 0.546404C78.2682 0.290168 79.2 0.220286 80.7141 0.290168C82.1816 0.383345 83.2299 0.592992 84.2082 0.988992C84.9769 1.29182 86.2348 1.99064 87.0035 2.50311C87.7722 3.01558 88.9835 4.06381 89.7056 4.80923C90.4045 5.57793 91.4527 6.85911 92.0118 7.6977C92.5708 8.53628 93.5259 10.26 94.1315 11.5412C94.7372 12.8224 95.5059 14.8257 95.8553 15.9671C96.1814 17.1085 96.624 19.0186 96.8336 20.16C97.0899 21.6043 97.2296 23.6076 97.2296 26.5659C97.2296 29.9436 97.1598 31.2248 96.8336 32.5059C96.6007 33.4144 96.1115 34.7655 95.7388 35.5342C95.3894 36.3029 94.5741 37.4909 93.9452 38.1897C93.2696 38.9351 92.2913 39.7038 91.476 40.0998C90.7306 40.4725 89.4261 40.8685 88.5176 41.0083C87.4306 41.1636 86.3047 41.1636 85.14 41.0083C84.0685 40.8685 82.8805 40.5191 82.0419 40.0998C81.3198 39.7271 80.2016 39.0283 79.596 38.5391C78.967 38.0266 77.6626 36.5824 76.7075 35.3012C75.7292 34.02 74.844 32.9951 74.7275 33.0417C74.6343 33.065 74.5878 32.9951 74.6576 32.8553C74.7275 32.7156 74.4713 32.1798 74.0986 31.6208C73.7492 31.085 71.9555 28.1499 70.1386 25.1217C67.8791 21.2782 66.7376 19.5777 66.4348 19.5777C66.1553 19.5777 65.2002 21.0219 63.1503 24.6325C61.5663 27.4278 59.3767 31.085 58.2586 32.7389C57.0706 34.5791 55.5798 36.4659 54.5082 37.5142C53.4134 38.6323 52.2021 39.564 51.2471 40.0532C50.0591 40.6822 49.3136 40.8918 47.8694 41.0083C46.8445 41.1015 45.2838 41.0782 44.3753 40.9617C43.4668 40.8219 42.4885 40.589 42.1623 40.4259C41.8362 40.2862 41.3238 40.0765 40.9976 40.0066C40.6715 39.9368 39.8795 39.3777 39.2273 38.7487C38.5518 38.0965 37.7831 37.0483 37.4104 36.233C37.0376 35.4643 36.5485 34.253 36.2922 33.5542C36.0593 32.8553 35.7332 31.1316 35.5934 29.7106C35.3838 27.7539 35.3838 26.3563 35.5934 23.8405C35.7798 21.5577 36.1292 19.5078 36.6882 17.3182C37.2939 14.9189 37.8762 13.3815 38.9012 11.3083C39.6699 9.77087 40.8113 7.83746 41.4402 6.99887C42.0692 6.16028 43.2339 4.85581 44.0492 4.08711C44.8878 3.29511 46.3553 2.27017 47.4035 1.71111ZM0.232941 91.2071C0.139765 91.7196 0.0465882 83.1007 0.0465882 72.036L0 51.9565L8.03647 52.073L14.6753 64.116C18.3325 70.7549 21.384 76.1824 21.5005 76.1824C21.5936 76.1824 22.2925 74.9944 23.0845 73.5502C23.8532 72.1292 26.8814 66.6551 35.0576 51.9332L39.0176 51.9565C41.2073 51.9798 42.8379 52.0264 42.6981 52.0963C42.5118 52.1429 42.4652 52.3059 42.5816 52.469C42.6748 52.632 42.7447 61.6003 42.7447 72.3855C42.7447 83.1473 42.6748 91.9292 42.5816 91.8826C42.4652 91.836 42.3953 91.8593 42.3953 91.9525C42.3953 92.069 41.0209 92.1621 36.3388 92.2553V76.9977C36.3388 66.9812 36.2689 61.74 36.1059 61.74C35.9661 61.74 35.9428 61.9497 36.036 62.2525C36.1292 62.5786 36.1059 62.7184 35.9894 62.6252C35.8496 62.532 35.4303 63.0212 35.0343 63.6735C34.6383 64.349 32.0993 68.8913 24.4588 82.7047L18.3092 82.5883L6.63882 61.6236L6.52235 91.9059L4.12306 91.9758C2.81859 92.0224 1.46753 91.9758 1.11812 91.9059C0.582353 91.8127 0.465882 91.6497 0.442588 91.0207C0.396 90.2986 0.396 90.2986 0.232941 91.2071ZM84.8492 57.6528C84.8432 58.4595 84.8372 59.2821 84.8372 59.9231L84.8139 62.1826H78.9903V67.5403H84.8139C84.9536 84.4052 85.0002 84.9876 85.4661 86.4085C85.7456 87.2471 86.2814 88.4351 86.6774 89.0407C87.0501 89.6464 87.8654 90.5083 88.471 90.9509C89.0767 91.3934 90.2181 91.9758 90.9868 92.232C92.1515 92.6047 92.9202 92.6513 95.5292 92.6047C97.2529 92.5582 98.9767 92.4184 99.3727 92.3019L100.072 92.0923L100.188 86.8744C98.2779 87.1539 96.9501 87.2005 95.995 87.1772C94.644 87.1306 94.0383 86.9909 93.3162 86.5716C92.8037 86.2687 92.1981 85.6631 91.9885 85.2205C91.7788 84.8012 91.476 83.9626 91.3595 83.3803C91.2198 82.7746 91.1033 79.2106 91.1033 74.9478V67.5403H100.188V62.1826H91.1033V53.4473H84.8605V55.5438C84.8605 56.1142 84.8549 56.8746 84.8492 57.6498V57.6508V57.6517V57.6523V57.6528ZM57.3268 62.6019C57.8859 62.3457 59.004 62.0196 59.7727 61.8565C60.5414 61.6702 62.0089 61.5304 63.0339 61.5071C64.0588 61.5071 65.6195 61.6469 66.528 61.8565C67.4132 62.0429 68.8341 62.5553 69.6727 62.9979C70.5579 63.4871 71.7459 64.3956 72.5845 65.2575C73.3765 66.0727 74.2849 67.2142 74.6343 67.7732C74.9605 68.3556 75.4962 69.5669 75.8223 70.452C76.1252 71.3605 76.4979 72.7815 76.6376 73.5967C76.7774 74.4353 76.8939 76.0892 76.8939 79.4203H54.9974L55.1372 80.3055C55.2071 80.7713 55.6031 81.8429 55.9991 82.6582C56.4882 83.6598 57.1638 84.5217 58.0256 85.2904C58.8875 86.0591 59.7494 86.5483 60.751 86.8744C61.7294 87.2005 62.8475 87.3403 64.1287 87.3403C65.2002 87.3403 66.6678 87.2005 67.3899 86.9909C68.1353 86.8045 69.2534 86.3852 69.9056 86.0591C70.5346 85.7563 71.4663 85.1273 72.8174 83.8694L76.3115 88.109L75.2633 89.0174C74.6809 89.5066 73.6327 90.2055 72.9339 90.5782C72.2118 90.9742 70.8141 91.5565 69.7892 91.9059C68.2285 92.4184 67.3666 92.5349 64.548 92.6513C61.5431 92.7445 60.9607 92.6979 59.3068 92.2553C58.2819 91.9758 56.8144 91.3702 56.0456 90.9509C55.2769 90.5083 54.1821 89.7629 53.6231 89.2737C53.064 88.7845 52.1555 87.7596 51.6198 86.9909C51.0607 86.2222 50.4085 85.1506 50.1289 84.6149C49.8494 84.0558 49.4068 82.7047 49.1506 81.5866C48.8012 80.1191 48.6614 78.8146 48.6847 76.9744C48.6847 75.1807 48.8478 73.853 49.1739 72.5485C49.4534 71.5236 49.896 70.2191 50.1522 69.6367C50.4318 69.0777 50.9908 68.1226 51.4101 67.5403C51.8061 66.9812 52.5515 66.096 53.0407 65.5836C53.5299 65.0944 54.4616 64.3024 55.1139 63.8598C55.7428 63.4172 56.7445 62.8349 57.3268 62.6019ZM113.466 61.973C112.487 62.2292 111.183 62.7184 110.554 63.0678C109.902 63.4172 108.597 64.4888 107.642 65.4438C106.384 66.6784 105.639 67.7033 105.01 68.9379C104.544 69.9163 103.962 71.3838 103.729 72.1991C103.426 73.3172 103.333 74.6217 103.333 77.2073C103.333 80.2356 103.403 80.9577 103.868 82.4485C104.171 83.4269 104.777 84.8944 105.196 85.7097C105.639 86.5483 106.547 87.8527 107.223 88.6215C107.898 89.3669 109.086 90.3918 109.855 90.9043C110.624 91.3934 111.928 91.9991 112.767 92.2553C113.885 92.6047 114.91 92.7445 116.727 92.7445C118.52 92.7445 119.569 92.6047 120.687 92.2786C121.502 92.0224 122.76 91.4167 123.482 90.9742C124.181 90.5083 125.159 89.693 125.648 89.1572C126.161 88.5982 126.487 88.2953 126.417 88.4584C126.324 88.6214 126.371 88.7379 126.51 88.7379C126.627 88.7379 126.743 89.4367 126.743 90.3685V91.9991H132.8V62.1826H126.743C126.743 64.908 126.673 65.6768 126.627 65.6768C126.557 65.6768 125.905 65.141 125.159 64.4887C124.437 63.8365 123.319 63.0445 122.713 62.7417C122.108 62.4389 120.966 62.0429 120.151 61.8332C119.359 61.6469 117.915 61.5071 116.96 61.5071C115.981 61.5071 114.421 61.7167 113.466 61.973ZM77.5693 5.29839C76.9869 5.50804 75.962 6.09039 75.2632 6.62616C74.5876 7.13863 73.586 8.11698 73.0269 8.74592C72.4911 9.39816 71.6526 10.493 71.1634 11.1918C70.6742 11.8906 70.2782 12.6826 70.2782 12.9389C70.2782 13.1951 70.7907 14.1967 71.4196 15.1518C72.0435 16.0991 73.2632 18.1007 74.1695 19.5879L74.1706 19.5898L74.1916 19.6243C75.1001 21.1617 75.9154 22.2798 76.0551 22.1866C76.1949 22.0934 76.2182 22.14 76.1017 22.3264C76.0086 22.4894 76.521 23.5144 77.3596 24.8887C78.1516 26.1233 79.4328 28.1033 80.2015 29.2447C80.9702 30.4095 81.9951 31.8071 82.461 32.3895C82.9502 32.9718 83.7422 33.7172 84.2314 34.0666C84.7439 34.416 85.6057 34.7887 86.1881 34.9285C86.9568 35.0916 87.5159 35.0683 88.2846 34.8353C88.8902 34.6257 89.6822 34.1365 90.1947 33.624C90.6606 33.1349 91.2429 32.273 91.4526 31.6906C91.7321 30.9685 91.8719 29.664 91.965 27.3812C92.0349 24.749 91.965 23.561 91.569 21.2083C91.2895 19.601 90.7071 17.2483 90.2879 15.9671C89.8686 14.6859 89.193 13.0087 88.797 12.24C88.4243 11.4713 87.5857 10.1669 86.9801 9.35157C86.3512 8.51298 85.2563 7.39486 84.5575 6.8358C83.7655 6.20686 82.694 5.6478 81.7622 5.36827C80.9236 5.11204 79.8754 4.90239 79.4328 4.92569C78.9902 4.92569 78.1516 5.11204 77.5693 5.29839ZM51.1072 6.71933C50.4549 6.92898 49.43 7.53463 48.801 8.0471C48.1721 8.55957 47.2869 9.44474 46.821 10.0271C46.3784 10.6095 45.6563 11.681 45.237 12.4264C44.8177 13.1951 44.5615 13.8706 44.6547 14.0337C44.7712 14.22 44.7479 14.2666 44.6081 14.1735C44.4683 14.0803 44.0024 15.012 43.49 16.3864C43.0241 17.6909 42.3951 19.8106 42.1389 21.0918C41.8827 22.373 41.6963 23.7939 41.7429 24.2831C41.7895 24.749 41.7429 25.0751 41.6264 25.0285C41.5333 24.9819 41.4634 25.8205 41.4634 26.9153C41.4634 28.3829 41.5333 28.8487 41.7429 28.7323C41.9293 28.5925 41.9759 28.709 41.8361 29.1283C41.7196 29.4777 41.7662 30.1066 41.9526 30.7123C42.1389 31.248 42.3253 31.6906 42.3951 31.6906C42.465 31.6906 42.5349 31.9236 42.5582 32.2031C42.6048 32.5059 43.0241 33.1349 43.49 33.624C44.0723 34.2064 44.7712 34.6257 45.5399 34.8353C46.5648 35.1149 46.8676 35.1149 48.1022 34.7654C49.2902 34.4393 49.7328 34.1365 51.0373 32.8553C51.8759 32.0167 53.1337 30.5026 53.8559 29.4777C54.578 28.4527 57.0006 24.7257 59.2601 21.2083C61.5196 17.6909 63.3831 14.7092 63.3831 14.5695C63.3831 14.453 62.9872 13.824 62.498 13.1718C62.0321 12.5429 61.1003 11.3782 60.4248 10.6095C59.7726 9.84074 58.6544 8.76922 57.9789 8.23345C57.2568 7.6511 56.0921 7.04545 55.2535 6.76592C54.4615 6.50969 53.4599 6.30004 53.0406 6.30004C52.6446 6.32333 51.7594 6.48639 51.1072 6.71933ZM60.4481 67.3539C60.8208 67.2141 61.706 67.0278 62.4048 66.9113C63.1036 66.8182 63.7792 66.8182 63.9189 66.9113C64.0587 67.0278 64.4081 67.0977 64.6876 67.0977C64.9904 67.0977 65.7824 67.3539 66.4347 67.6334C67.1102 67.9363 68.0653 68.6351 68.5311 69.1476C69.0203 69.6833 69.6027 70.5685 69.8589 71.1276C70.0919 71.6633 70.3947 72.665 70.5577 73.3405C70.6975 73.9927 70.814 74.5984 70.814 74.6683C70.814 74.7382 67.25 74.7847 62.894 74.7847C55.9989 74.7847 54.974 74.7382 54.974 74.4353C54.974 74.249 55.2069 73.4803 55.4632 72.7582C55.7427 72.0127 56.325 70.8946 56.7443 70.2424C57.1636 69.6134 58.0255 68.7516 58.6311 68.3556C59.2368 67.9596 60.0754 67.517 60.4481 67.3539ZM116.237 67.4005C115.539 67.5636 114.49 67.9596 113.908 68.2857C113.326 68.6351 112.441 69.3572 111.951 69.9163C111.439 70.4753 110.787 71.477 110.507 72.1059C110.251 72.7581 109.901 73.9462 109.738 74.7847C109.599 75.6233 109.482 76.7647 109.482 77.3471C109.482 77.9294 109.645 79.1407 109.832 80.0259C110.018 80.9344 110.461 82.2156 110.833 82.9144C111.183 83.5899 111.928 84.5916 112.51 85.104C113.093 85.6398 114.025 86.2687 114.607 86.525C115.445 86.921 116.121 87.0141 118.101 87.0141C120.244 87.0141 120.71 86.9443 121.828 86.4085C122.527 86.0824 123.575 85.4069 124.134 84.8944C124.693 84.4052 125.462 83.52 125.835 82.9377L126.487 81.8894C126.487 73.6433 126.417 72.6417 126.114 71.873C125.905 71.3605 125.136 70.3589 124.414 69.6367C123.482 68.705 122.713 68.1925 121.712 67.8198C120.943 67.5403 119.685 67.2607 118.916 67.2141C118.148 67.1443 116.936 67.2374 116.237 67.4005Z" fill="#022937"/>
<path fill-rule="evenodd" clip-rule="evenodd" d="M257.197 32.0925C256.62 32.1727 255.497 32.3652 254.711 32.5576C253.925 32.7341 252.61 33.103 251.824 33.3756C251.038 33.6643 249.595 34.2899 248.616 34.771C247.654 35.2522 246.339 35.99 245.729 36.391C245.12 36.808 243.997 37.6581 243.243 38.2836C242.489 38.9092 241.383 39.9517 240.773 40.6093C240.164 41.2669 239.217 42.4538 238.672 43.2397C238.127 44.0257 237.309 45.373 236.86 46.207C236.41 47.041 235.817 48.2761 235.544 48.9337C235.272 49.5913 234.839 50.9707 234.582 51.9811C234.341 52.9916 234.037 54.5795 233.94 55.5098C233.812 56.5523 233.764 58.1081 233.828 59.5998C233.892 61.2678 234.037 62.567 234.309 63.8501C234.534 64.8606 234.871 66.1598 235.063 66.7372C235.24 67.3146 235.849 68.7261 236.41 69.8649C236.972 71.0036 237.774 72.4311 238.175 73.0406C238.576 73.6341 238.896 74.1152 238.864 74.1152C238.848 74.1313 239.089 74.436 239.394 74.8049C239.698 75.1738 240.565 76.1041 241.318 76.89C242.072 77.676 243.227 78.7185 243.885 79.2157C244.542 79.729 245.489 80.4026 245.97 80.7234C246.451 81.0442 247.654 81.7018 248.616 82.183C249.595 82.6802 250.926 83.2736 251.584 83.5142C252.241 83.7388 253.476 84.1077 254.31 84.3002C255.144 84.5087 256.395 84.7493 257.085 84.8455C257.759 84.9417 259.491 85.0219 260.918 85.0219C262.362 85.0219 264.254 84.9096 265.137 84.7813C266.019 84.653 267.35 84.4124 268.104 84.236C268.858 84.0596 270.157 83.6265 270.991 83.2897C271.825 82.9529 273.204 82.2792 274.038 81.782C274.872 81.3008 276.284 80.3224 277.166 79.6167C278.048 78.911 279.171 77.8845 279.668 77.3071C280.165 76.7457 280.903 75.8154 281.32 75.238C281.753 74.6606 282.523 73.3293 283.036 72.2707C283.55 71.2122 284.159 69.7045 284.384 68.9025C284.608 68.1005 284.913 66.9618 285.041 66.3362C285.202 65.6465 285.33 63.9624 285.378 62.0056C285.426 60.2413 285.426 58.2364 285.362 57.5467L285.266 56.3117H260.886V63.2086C276.733 63.2086 277.92 63.2407 278.128 63.4492C278.257 63.5775 278.369 63.7218 278.369 63.77C278.369 63.8181 278.273 64.3794 278.144 65.021C278.016 65.6465 277.679 66.8174 277.407 67.6194C277.118 68.4213 276.653 69.496 276.364 70.0252C276.075 70.5545 275.45 71.4207 274.969 71.966C274.504 72.5113 273.686 73.3293 273.156 73.7945C272.627 74.2436 271.905 74.837 271.552 75.0776C271.199 75.3182 270.333 75.8154 269.628 76.1683C268.922 76.5211 267.751 77.0023 267.013 77.2269C266.291 77.4514 265.072 77.7561 264.303 77.8845C263.517 78.0128 262.025 78.125 260.966 78.125C259.908 78.125 258.416 78.0128 257.63 77.8845C256.86 77.7561 255.641 77.4514 254.92 77.2269C254.182 76.9863 253.155 76.6174 252.626 76.3768C252.097 76.1362 251.006 75.5107 250.22 74.9974C249.434 74.4681 248.103 73.3935 247.285 72.5915C246.451 71.8056 245.36 70.5385 244.847 69.7847C244.35 69.0308 243.724 68.0203 243.484 67.5392C243.243 67.058 242.794 65.9673 242.489 65.1333C242.185 64.2992 241.8 62.7916 241.623 61.8132C241.463 60.8187 241.318 59.311 241.318 58.477C241.318 57.643 241.463 56.1192 241.639 55.1088C241.816 54.0983 242.217 52.5585 242.537 51.7085C242.858 50.8423 243.275 49.8479 243.452 49.495C243.628 49.1422 244.141 48.2761 244.606 47.5703C245.072 46.8646 245.954 45.7579 246.547 45.1003C247.157 44.4427 248.231 43.4643 248.937 42.919C249.643 42.3736 250.509 41.7641 250.862 41.5556C251.215 41.3311 251.904 40.9782 252.385 40.7376C252.867 40.497 253.957 40.0961 254.791 39.8234C255.625 39.5507 256.925 39.2299 257.678 39.0856C258.432 38.9412 259.796 38.829 260.726 38.829C261.656 38.829 263.036 38.9412 263.821 39.0696C264.591 39.1979 265.81 39.5026 266.532 39.7272C267.27 39.9677 268.377 40.3848 268.986 40.6735C269.612 40.9461 270.606 41.5396 271.232 41.9566C271.857 42.3736 272.675 42.9992 273.076 43.336C273.477 43.6728 273.83 43.9615 273.878 43.9615C273.926 43.9615 275.001 42.919 276.284 41.6358C277.567 40.3527 278.626 39.2139 278.658 39.1016C278.674 38.9894 278.289 38.5403 277.776 38.0912C277.262 37.6421 276.236 36.8722 275.482 36.3589C274.728 35.8617 273.172 34.9795 272.034 34.4182C270.895 33.8568 269.291 33.2152 268.505 32.9907C267.719 32.7661 266.404 32.4614 265.618 32.317C264.72 32.1566 263.052 32.0283 261.207 32.0123C259.571 31.9802 257.775 32.0123 257.197 32.0925ZM401.55 58.878V84.22L409.008 84.1558V33.6162C403.603 33.6804 401.935 33.7445 401.839 33.8247C401.711 33.8996 401.673 33.8728 401.727 33.7445C401.791 33.6323 401.775 33.536 401.695 33.536C401.614 33.536 401.55 44.4427 401.55 58.878ZM338.917 51.4198C339.623 51.2594 340.746 51.0829 341.403 51.0188C342.061 50.9546 343.36 50.9386 344.29 50.9707C345.285 51.0188 346.584 51.2112 347.466 51.4358C348.268 51.6443 349.567 52.0934 350.353 52.4302C351.123 52.767 352.246 53.3765 352.871 53.7775C353.497 54.1785 354.379 54.8682 354.86 55.2852C355.341 55.7183 356.191 56.6806 356.753 57.4345C357.33 58.1883 358.148 59.5196 358.565 60.4017C358.998 61.2839 359.495 62.6151 359.688 63.369C359.88 64.1228 360.105 65.6305 360.169 66.7372C360.249 67.9081 360.233 69.3356 360.153 70.1856C360.073 70.9876 359.88 72.0622 359.752 72.5915C359.608 73.1208 359.319 74.019 359.094 74.5964C358.87 75.1738 358.357 76.1843 357.956 76.8419C357.571 77.4995 356.865 78.51 356.4 79.0874C355.935 79.6648 355.165 80.4668 354.7 80.8678C354.218 81.2848 353.224 81.9905 352.47 82.4717C351.716 82.9368 350.61 83.5463 349.984 83.7869C349.359 84.0435 348.38 84.3964 347.787 84.5568C347.177 84.7172 345.99 84.9417 345.14 85.0219C344.066 85.1342 342.959 85.1342 341.644 85.0219C340.585 84.9257 339.142 84.7172 338.436 84.5407C337.73 84.3643 336.351 83.835 335.388 83.3699C334.314 82.8406 333.063 82.0707 332.181 81.381C331.379 80.7555 330.336 79.745 329.855 79.1195C329.374 78.51 328.716 77.5797 328.395 77.0504C328.075 76.5372 327.577 75.5748 327.289 74.9172C327 74.2596 326.583 72.9925 326.374 72.1103C326.005 70.6187 325.973 70.314 326.054 67.6194C326.118 65.5022 326.23 64.4115 326.455 63.5294C326.631 62.8718 327.08 61.6047 327.481 60.7225C327.866 59.8403 328.588 58.5732 329.085 57.9156C329.582 57.258 330.336 56.3438 330.769 55.8947C331.186 55.4456 332.084 54.6757 332.742 54.1945C333.4 53.7134 334.169 53.2001 334.426 53.0557C334.683 52.9274 335.517 52.5585 336.271 52.2538C337.024 51.9651 338.211 51.5801 338.917 51.4198ZM301.706 51.3396C300.92 51.4999 299.878 51.7887 299.429 51.9651C298.963 52.1576 298.129 52.5265 297.584 52.7991C297.023 53.0718 296.076 53.6332 295.451 54.0341C294.825 54.4191 293.815 55.2692 293.205 55.8947C292.58 56.5202 291.778 57.4665 291.425 57.9958C291.072 58.5251 290.543 59.3752 290.27 59.8885C289.981 60.3857 289.548 61.4282 289.276 62.2141C289.019 62.984 288.698 64.3313 288.554 65.2135C288.426 66.0956 288.313 67.3627 288.313 68.0203C288.313 68.678 288.426 69.945 288.554 70.8272C288.698 71.7094 288.987 72.9604 289.195 73.602C289.42 74.2275 289.869 75.3182 290.222 76.0079C290.559 76.6815 291.265 77.8203 291.794 78.526C292.323 79.2318 293.125 80.13 293.558 80.5309C293.991 80.9319 294.857 81.5895 295.467 82.0065C296.076 82.4075 297.167 83.0491 297.905 83.402C298.627 83.7709 299.926 84.252 300.792 84.4766C301.995 84.7974 302.877 84.9096 304.673 84.9738C306.069 85.0219 307.48 84.9898 308.202 84.8776C308.86 84.7813 310.014 84.5087 310.768 84.2841C311.522 84.0596 312.741 83.5463 313.495 83.1614C314.249 82.7604 315.291 82.1188 315.821 81.7339C316.35 81.3329 317.2 80.5951 317.713 80.0818C318.243 79.5846 319.044 78.6223 319.51 77.9647C319.975 77.3071 320.6 76.2164 320.905 75.5588C321.226 74.9012 321.579 74.035 321.723 73.6341C321.851 73.2331 322.092 72.3028 322.236 71.549C322.461 70.4583 322.493 69.6403 322.429 67.459C322.381 65.3418 322.284 64.4436 322.012 63.4492C321.819 62.7434 321.402 61.5886 321.081 60.8829C320.777 60.1772 320.135 59.0223 319.67 58.3166C319.205 57.6109 318.467 56.6806 318.034 56.2476C317.617 55.8145 316.767 55.0446 316.141 54.5634C315.516 54.0662 314.441 53.3605 313.735 53.0076C313.03 52.6387 311.955 52.1576 311.33 51.933C310.704 51.7245 309.517 51.4198 308.683 51.2754C307.785 51.131 306.341 51.0188 305.155 51.0348C303.887 51.0348 302.62 51.1471 301.706 51.3396ZM374.845 51.9009C375.47 51.6603 376.465 51.3716 377.09 51.2594C377.716 51.1471 379.015 51.0508 379.977 51.0348C381.293 51.0188 382.095 51.099 383.105 51.3556C383.859 51.5481 385.11 52.0292 385.912 52.4463C386.698 52.8472 387.724 53.5209 388.19 53.9539C388.911 54.5795 389.072 54.6757 389.28 54.5153C389.473 54.3549 389.537 54.0181 389.521 52.1415H396.257V68.8223C396.257 84.653 396.241 85.5993 395.936 87.3155C395.776 88.2939 395.455 89.6252 395.247 90.2347C395.022 90.8602 394.685 91.7263 394.493 92.1594C394.3 92.6085 393.819 93.4746 393.418 94.0841C393.017 94.7096 392.296 95.6238 391.798 96.1371C391.285 96.6664 390.451 97.3721 389.922 97.741C389.392 98.0939 388.382 98.6713 387.676 99.0081C386.971 99.3449 385.816 99.762 385.11 99.9384C384.404 100.115 382.993 100.339 381.982 100.436C380.683 100.548 379.641 100.564 378.454 100.436C377.523 100.339 376.224 100.131 375.567 99.9705C374.909 99.794 373.754 99.3449 373 98.976C372.247 98.5911 371.204 97.9977 370.675 97.6448C370.145 97.2919 369.199 96.49 368.574 95.8644C367.948 95.2389 367.034 94.1162 366.537 93.3623C366.055 92.6085 365.526 91.7263 365.366 91.3895C365.157 91.0045 365.109 90.7479 365.221 90.6517C365.302 90.5715 366.713 89.946 368.349 89.2723C369.985 88.6147 371.332 88.1175 371.348 88.1816C371.38 88.2458 371.669 88.7751 371.99 89.3365C372.359 89.9299 373.129 90.8442 373.883 91.5499C374.685 92.3037 375.535 92.9293 376.176 93.218C376.721 93.4746 377.588 93.7954 378.101 93.9237C378.598 94.052 379.56 94.1643 380.218 94.1643C380.876 94.1643 381.966 94.036 382.624 93.8595C383.282 93.6991 384.26 93.3463 384.789 93.1057C385.335 92.833 386.153 92.2235 386.714 91.6782C387.388 91.0206 387.885 90.3469 388.286 89.5129C388.607 88.8553 388.975 87.8769 389.12 87.3476C389.264 86.8183 389.425 85.455 389.473 84.3002C389.521 83.1614 389.521 82.0226 389.473 81.782C389.409 81.5254 389.264 81.3329 389.168 81.3329C389.056 81.3329 388.703 81.5895 388.398 81.9103C388.093 82.2151 387.339 82.7925 386.714 83.1774C386.088 83.5623 385.19 84.0275 384.709 84.22C384.228 84.4124 383.346 84.6691 382.752 84.7974C382.143 84.9257 380.924 85.0219 380.026 85.0219C379.111 85.0219 377.764 84.9096 377.01 84.7653C376.256 84.6209 374.957 84.22 374.123 83.8831C373.289 83.5303 371.91 82.7925 371.076 82.2311C370.113 81.5895 369.087 80.7234 368.301 79.8733C367.611 79.1355 366.665 77.8845 366.184 77.0825C365.719 76.2805 365.109 75.0936 364.836 74.436C364.58 73.7784 364.243 72.6878 364.083 72.0302C363.938 71.3725 363.794 69.929 363.746 68.8223C363.682 67.5873 363.73 66.2881 363.858 65.4541C363.97 64.7002 364.243 63.5133 364.452 62.8076C364.676 62.1019 365.077 61.0914 365.35 60.5621C365.606 60.0328 366.071 59.1988 366.392 58.7176C366.697 58.2364 367.323 57.3703 367.772 56.8089C368.221 56.2476 369.199 55.2852 369.953 54.6757C370.707 54.0823 371.862 53.2963 372.519 52.9435C373.177 52.6067 374.219 52.1255 374.845 51.9009ZM425.417 51.2754C424.727 51.4037 423.604 51.7245 422.914 51.9972C422.241 52.2698 421.359 52.6868 420.958 52.9114C420.557 53.1359 419.835 53.585 419.354 53.9219C418.873 54.2427 418.055 54.9323 417.557 55.4456C417.044 55.9749 416.338 56.7929 415.986 57.2741C415.617 57.7552 414.975 58.878 414.542 59.7601C414.109 60.6423 413.612 61.9094 413.435 62.567C413.259 63.2246 413.034 64.3794 412.922 65.1333C412.81 65.9994 412.762 67.3788 412.826 68.9025C412.89 70.5385 413.034 71.7414 413.259 72.6717C413.435 73.4256 413.9 74.6766 414.285 75.4786C414.654 76.2805 415.216 77.3231 415.536 77.8043C415.841 78.2854 416.451 79.1034 416.884 79.6167C417.317 80.13 418.215 80.964 418.873 81.4773C419.53 81.9905 420.621 82.7123 421.278 83.0651C421.936 83.434 423.027 83.9152 423.684 84.1398C424.342 84.3643 425.465 84.653 426.17 84.7813C426.876 84.9257 428.32 85.0219 429.378 85.0219C430.437 85.0219 431.912 84.9257 432.666 84.7813C433.42 84.653 434.543 84.3803 435.152 84.1718C435.762 83.9633 436.596 83.6265 436.997 83.418C437.398 83.2255 438.12 82.7925 438.601 82.4717C439.082 82.1669 439.916 81.5574 440.445 81.1404C440.975 80.7234 441.841 79.8573 442.386 79.2157C442.915 78.5742 443.413 77.9486 443.461 77.8524C443.536 77.7134 442.632 77.0183 440.75 75.7673C438.12 74.003 437.927 73.8907 437.767 74.1954C437.671 74.3719 437.013 75.0936 436.291 75.7994C435.393 76.6815 434.671 77.2429 433.949 77.5797C433.372 77.8524 432.442 78.2052 431.864 78.3656C431.046 78.5742 430.405 78.6223 428.977 78.5742C427.373 78.51 426.956 78.4298 425.769 77.9647C424.534 77.4835 424.278 77.3071 423.027 76.056C422.273 75.3022 421.535 74.3879 421.375 74.035C421.102 73.4095 421.102 73.3774 421.391 73.1208C421.551 72.9604 422.289 72.5755 423.043 72.2707C423.481 72.0843 424.542 71.6432 425.83 71.1081L425.838 71.1047L425.839 71.1043C426.764 70.7196 427.806 70.2867 428.817 69.8649C430.15 69.3173 432.072 68.5218 434.018 67.7165C435.605 67.0593 437.209 66.3956 438.521 65.855C441.44 64.6521 443.846 63.6416 443.894 63.5935C443.942 63.5614 443.557 62.567 443.028 61.3961C442.514 60.2413 441.648 58.6374 441.119 57.8354C440.574 57.0495 439.627 55.8947 439.002 55.2692C438.376 54.6597 437.366 53.8096 436.74 53.4086C436.131 52.9916 435.088 52.4302 434.431 52.1415C433.773 51.8528 432.618 51.4839 431.864 51.3235C430.934 51.115 429.892 51.0348 428.576 51.0348C427.518 51.0348 426.09 51.1471 425.401 51.2754H425.417ZM401.823 71.2282C401.807 77.9807 401.791 72.4953 401.791 59.0384C401.791 45.5815 401.807 40.064 401.823 46.7684C401.855 53.4728 401.855 64.4757 401.823 71.2282ZM425.128 58.2685C425.882 57.8996 426.78 57.5467 427.133 57.4505C427.486 57.3703 428.239 57.3061 428.817 57.2901C429.394 57.2741 430.292 57.3863 430.822 57.5307C431.351 57.659 432.089 57.9156 432.458 58.0921C432.843 58.2525 433.516 58.7336 433.949 59.1506C434.431 59.5997 434.832 60.1611 434.928 60.4819C435.072 60.9631 435.056 61.0754 434.767 61.3159C434.575 61.4763 433.468 62.0056 432.313 62.4868C431.605 62.7878 430.814 63.1181 430.182 63.3818C429.771 63.5537 429.427 63.6974 429.218 63.786L429.084 63.8426C428.568 64.0617 427.902 64.3444 427.534 64.4917C427.133 64.6681 425.833 65.2135 424.647 65.7107C423.46 66.2079 422.193 66.7212 421.84 66.8495C421.487 66.9778 421.054 67.1221 420.877 67.1542C420.701 67.1863 420.412 67.2505 420.236 67.2986C419.947 67.3948 419.899 67.2986 419.787 66.5447C419.69 65.8711 419.739 65.438 420.011 64.4917C420.204 63.8341 420.557 62.8717 420.813 62.3745C421.086 61.8132 421.776 60.931 422.513 60.1932C423.508 59.1988 424.053 58.7978 425.128 58.2685ZM302.989 57.7232C302.46 57.8836 301.61 58.2204 301.08 58.477C300.567 58.7497 299.717 59.3271 299.22 59.7601C298.707 60.2092 298.033 60.8829 297.728 61.2839C297.424 61.6848 296.99 62.3745 296.782 62.8076C296.557 63.2567 296.205 64.1068 296.012 64.7323C295.787 65.4541 295.627 66.4645 295.579 67.5392C295.515 68.9185 295.563 69.4799 295.836 70.5866C296.028 71.3405 296.429 72.4953 296.766 73.1529C297.199 74.0671 297.664 74.6766 298.723 75.7352C299.781 76.7938 300.375 77.2429 301.305 77.6759C301.963 77.9967 302.973 78.3496 303.55 78.4619C304.176 78.5741 305.186 78.6223 306.037 78.5741C307.047 78.51 307.849 78.3496 308.683 78.0448C309.341 77.8043 310.207 77.3712 310.608 77.1146C311.009 76.8419 311.65 76.3287 312.035 75.9597C312.42 75.6069 313.046 74.8851 313.415 74.3558C313.784 73.8265 314.313 72.8161 314.585 72.1103C314.874 71.3725 315.147 70.2177 315.259 69.3837C315.387 68.309 315.387 67.6033 315.259 66.5768C315.147 65.823 314.858 64.6361 314.602 63.9303C314.329 63.2246 313.816 62.2141 313.431 61.6848C313.046 61.1556 312.308 60.3375 311.795 59.8724C311.281 59.4073 310.351 58.7657 309.726 58.477C309.1 58.1723 308.17 57.8034 307.64 57.675C307.111 57.5467 306.069 57.4345 305.315 57.4505C304.545 57.4505 303.534 57.5788 302.989 57.7232ZM339.398 58.2364C339.831 58.0439 340.601 57.7873 341.082 57.675C341.563 57.5628 342.414 57.4505 342.975 57.4505C343.52 57.4345 344.45 57.5467 345.044 57.6911C345.653 57.8194 346.712 58.2043 347.418 58.5412C348.476 59.0384 348.893 59.3592 349.872 60.4177C350.529 61.1074 351.267 62.0377 351.508 62.4868C351.764 62.9199 352.165 63.8662 352.39 64.5719C352.711 65.4861 352.855 66.3202 352.903 67.459C352.967 68.5977 352.919 69.4318 352.727 70.346C352.582 71.0678 352.165 72.2387 351.796 72.9925C351.267 74.0992 350.866 74.6125 349.759 75.7192C348.893 76.5692 348.043 77.2429 347.498 77.5156C347.017 77.7401 346.038 78.093 345.333 78.3015C344.274 78.5902 343.793 78.6383 342.606 78.5581C341.804 78.51 340.842 78.3496 340.441 78.2052C340.04 78.0609 339.254 77.7241 338.676 77.4354C337.971 77.0985 337.249 76.5532 336.415 75.7192C335.485 74.8049 335.052 74.1954 334.538 73.1529C334.169 72.399 333.736 71.3244 333.592 70.747C333.399 70.0413 333.319 69.095 333.319 67.8599C333.319 66.2079 333.383 65.855 333.849 64.4917C334.137 63.6577 334.538 62.6793 334.747 62.3264C334.955 61.9736 335.549 61.2197 336.062 60.6583C336.575 60.097 337.345 59.3912 337.794 59.1025C338.227 58.8138 338.949 58.4289 339.398 58.2364ZM378.133 57.7552C377.555 57.9156 376.657 58.3006 376.128 58.5893C375.599 58.878 374.62 59.6479 373.963 60.3215C373.032 61.2518 372.599 61.8452 372.086 62.8878C371.733 63.6416 371.3 64.7483 371.14 65.3739C370.963 66.1277 370.867 67.0901 370.867 68.2609C370.867 69.8167 370.931 70.2017 371.396 71.549C371.685 72.383 372.102 73.3935 372.343 73.7945C372.567 74.1954 373.193 74.9814 373.722 75.5427C374.251 76.1041 375.117 76.8579 375.647 77.1948C376.176 77.5316 377.187 77.9967 377.892 78.2213C378.823 78.51 379.544 78.6223 380.539 78.6223C381.469 78.6383 382.271 78.526 383.025 78.3015C383.65 78.125 384.581 77.7241 385.11 77.4033C385.639 77.0825 386.425 76.489 386.842 76.072C387.259 75.655 387.901 74.8851 388.254 74.3558C388.606 73.8265 389.12 72.7038 389.408 71.8697C389.89 70.4262 389.922 70.2177 389.922 68.0203C389.906 65.8711 389.874 65.5824 389.424 64.2511C389.168 63.4492 388.623 62.3104 388.205 61.6848C387.805 61.0593 387.051 60.1932 386.537 59.7441C386.008 59.295 385.19 58.7016 384.709 58.4289C384.228 58.1562 383.394 57.8194 382.864 57.6911C382.335 57.5467 381.293 57.4505 380.539 57.4505C379.705 57.4505 378.774 57.5788 378.133 57.7552Z" fill="#022937"/>
</svg>
