<svg width="289" height="161" viewBox="0 0 289 161" fill="none" xmlns="http://www.w3.org/2000/svg">
<path d="M273.611 160.518C273.609 160.47 274.343 160.51 275.743 160.274C277.132 160.046 279.233 159.468 281.57 157.788C283.878 156.142 286.427 153.22 287.725 148.862C288.404 146.693 288.587 144.233 288.514 141.575C288.507 138.92 288.5 136.093 288.493 133.1C288.458 109.133 288.409 74.4876 288.349 31.6805C288.347 29.0043 288.343 26.2964 288.342 23.5568C288.34 22.188 288.34 20.8093 288.338 19.4247C288.335 18.0301 288.355 16.6593 288.174 15.3084C287.555 9.87674 284.315 4.76604 279.714 2.43453C277.43 1.1727 274.887 0.853775 272.279 0.919144C269.661 0.921125 267.016 0.925083 264.347 0.927064C259.01 0.931025 253.573 0.936976 248.043 0.940937C225.917 0.954804 202.278 0.972636 177.403 0.988483C127.647 1.00037 72.95 1.01421 15.5369 1.02808C12.0482 1.036 8.60309 2.49198 5.98485 5.07308C3.34225 7.62448 1.58399 11.2911 1.09308 15.1598C0.83369 17.0733 0.93117 19.0978 0.912021 21.1124C0.912021 23.123 0.912021 25.1297 0.912021 27.1323C0.912021 31.1397 0.912009 35.1312 0.910268 39.1088C0.908527 55.0194 0.905049 70.6982 0.903308 86.1036C0.899827 101.509 0.896351 116.641 0.892869 131.462C0.891128 135.166 0.89113 138.853 0.889389 142.518C0.764048 146.133 1.63622 149.663 3.34399 152.614C5.0831 155.52 7.58992 157.836 10.4797 159.001C13.3452 160.34 16.4926 159.983 19.6105 160.041C69.3674 160.082 114.175 160.12 151.81 160.151C189.43 160.221 219.874 160.276 240.935 160.316C251.444 160.357 259.609 160.391 265.166 160.413C267.923 160.435 270.03 160.453 271.468 160.464C272.885 160.482 273.611 160.518 273.611 160.518C273.611 160.518 272.883 160.554 271.464 160.571C270.026 160.583 267.92 160.601 265.162 160.623C259.605 160.645 251.441 160.678 240.931 160.72C219.871 160.76 189.427 160.815 151.807 160.884C114.172 160.916 69.3639 160.954 19.607 160.995C18.0454 160.981 16.5083 161.031 14.9119 160.964C13.3051 160.922 11.7018 160.544 10.1855 159.906C7.12684 158.674 4.47378 156.231 2.63196 153.157C0.819741 150.059 -0.102898 146.244 0.0259251 142.521C0.0241843 138.857 0.0241862 135.17 0.0224453 131.466C0.0189636 116.647 0.0154877 101.513 0.012006 86.1076C0.0102651 70.7021 0.00678726 55.0233 0.00504641 39.1128C0.00504641 35.1352 0.00503409 31.1417 0.00329324 27.1363C0.00329324 25.1336 0.00329324 23.127 0.00329324 21.1164C0.0241834 19.1176 -0.0820072 17.0912 0.194788 15.0112C0.717042 10.8989 2.58499 7.00446 5.38949 4.29657C8.16788 1.55502 11.8341 0.00594269 15.5334 0C72.9465 0.0138663 127.644 0.027741 177.399 0.0396264C202.274 0.0554735 225.915 0.0713248 248.039 0.087172C253.57 0.0911338 259.007 0.0970839 264.344 0.101046C267.013 0.103027 269.657 0.106984 272.275 0.108965C274.88 0.0416145 277.637 0.386271 280.001 1.71149C284.818 4.16582 288.197 9.52019 288.836 15.2034C289.024 16.6237 288.998 18.0539 289 19.4267C288.998 20.8113 288.998 22.19 288.996 23.5588C288.994 26.2984 288.991 29.0063 288.989 31.6824C288.928 74.4896 288.88 109.135 288.845 133.102C288.838 136.095 288.831 138.922 288.824 141.577C288.886 144.217 288.685 146.776 287.979 148.963C286.63 153.391 284.019 156.33 281.667 157.967C279.286 159.638 277.157 160.185 275.755 160.381C275.052 160.526 274.511 160.49 274.152 160.518C273.793 160.526 273.611 160.518 273.611 160.518Z" fill="#263238"/>
<path d="M97 83.9542V95.8278L124.97 107.823L125.207 96.4574L109.579 89.4837L125.207 82.8142V71.802L97 83.9542Z" fill="#022937"/>
<path d="M191.942 96.6245V84.752L163.728 72.7559L163.49 84.1213L179.254 91.095L163.49 97.7656V108.778L191.942 96.6245Z" fill="#022937"/>
<path d="M146.098 62C146.098 62.2953 129.669 117.723 130.134 117.625C130.598 117.527 142.368 117.617 142.368 117.617L158.571 62H146.098Z" fill="#022937"/>
<path d="M34.6853 21.7717C34.6853 25.3613 31.5859 28.2703 27.7641 28.2703C23.9424 28.2703 20.8429 25.3613 20.8429 21.7717C20.8429 18.1822 23.9424 15.2732 27.7641 15.2732C31.5859 15.2732 34.6853 18.1822 34.6853 21.7717Z" fill="#022937"/>
<path d="M53.6989 21.7717C53.6989 25.3613 50.5994 28.2703 46.7777 28.2703C42.9559 28.2703 39.8564 25.3613 39.8564 21.7717C39.8564 18.1822 42.9559 15.2732 46.7777 15.2732C50.5994 15.2732 53.6989 18.1822 53.6989 21.7717Z" fill="#022937" fill-opacity="0.5"/>
<path d="M72.7122 21.7717C72.7122 25.3613 69.6127 28.2703 65.791 28.2703C61.9692 28.2703 58.8698 25.3613 58.8698 21.7717C58.8698 18.1822 61.9692 15.2732 65.791 15.2732C69.6127 15.2732 72.7122 18.1822 72.7122 21.7717Z" fill="#022937" fill-opacity="0.7"/>
</svg>
