<svg width="362" height="103" viewBox="0 0 362 103" fill="none" xmlns="http://www.w3.org/2000/svg">
<path d="M124.441 32.448C124.921 32.08 125.561 31.76 126.313 31.76C127.945 31.76 129.209 32.688 129.209 34.512V40H127.801V35.44C127.801 33.712 127.209 32.944 125.977 32.944C124.617 32.944 124.057 33.728 124.057 35.44V40H122.649V35.44C122.649 33.712 122.041 32.944 120.761 32.944C119.369 32.944 118.729 33.728 118.729 35.44V40H117.321V32H118.729V32.096C118.729 32.8 118.457 33.68 118.265 34.352L118.521 34.432C118.729 33.76 118.857 32.784 119.353 32.288C119.753 31.888 120.265 31.76 121.113 31.76C121.897 31.76 122.553 31.904 123.017 32.256C123.561 32.704 123.401 33.712 123.305 34.416L123.593 34.448C123.689 33.76 123.881 32.88 124.441 32.448ZM137.559 39.2C136.951 39.856 136.071 40.256 134.983 40.256C132.583 40.256 130.887 38.336 130.887 35.952C130.887 33.568 132.583 31.76 134.983 31.76C136.071 31.76 136.935 32.128 137.543 32.752C137.879 33.104 137.991 33.744 138.151 34.208L138.423 34.112C138.263 33.664 138.007 33.088 137.991 32.608L137.959 32H139.367V40H137.959L137.991 39.344C138.007 38.864 138.263 38.288 138.407 37.824L138.151 37.744C137.991 38.192 137.879 38.832 137.559 39.2ZM132.279 35.952C132.279 37.568 133.271 38.928 135.015 38.928C136.743 38.928 137.687 37.488 137.767 35.952C137.767 34.192 136.775 33.088 135.015 33.088C133.255 33.088 132.279 34.32 132.279 35.952ZM141.446 30.32V28.8H143.014V30.32H141.446ZM141.542 40V32H142.95V40H141.542ZM145.567 38.064V28.4H146.975V37.808C146.975 38.464 147.199 38.672 147.887 38.672H148.975V40H147.951C146.287 40 145.567 39.424 145.567 38.064ZM160.706 39.056V38H160.482C160.482 38.224 159.906 40.176 157.778 40.24C157.554 40.256 157.346 40.24 157.154 40.224C155.01 39.984 153.506 38.176 153.506 35.952C153.506 33.728 155.042 32.016 157.202 31.792C157.426 31.776 157.634 31.76 157.858 31.776C158.914 31.808 159.778 32.192 160.322 32.784C160.642 33.136 160.738 33.712 160.882 34.112L161.154 34.016C161.01 33.616 160.754 33.12 160.738 32.688L160.706 32.064H161.986V38.528C161.986 39.648 162.274 39.904 162.834 39.904C164.194 39.904 164.146 37.12 164.146 36.144C164.13 32.112 161.266 29.696 157.954 29.696C154.45 29.696 151.73 32.304 151.73 36.08C151.73 40.096 154.802 42.08 158.146 42.08C158.786 42.08 159.426 42.016 160.066 41.872L160.402 43.216C159.618 43.376 158.866 43.44 158.13 43.44C153.65 43.44 150.322 40.64 150.338 36.048C150.338 31.52 153.57 28.352 157.922 28.352C162.226 28.352 165.538 31.44 165.554 36.064C165.554 39.44 164.546 41.152 162.818 41.152C161.538 41.152 160.706 40.336 160.706 39.056ZM154.978 35.952C154.978 37.568 155.922 38.896 157.73 38.896C159.506 38.896 160.402 37.456 160.498 35.952C160.498 34.176 159.506 33.104 157.746 33.104C155.938 33.104 154.978 34.352 154.978 35.952ZM171.587 40.256C168.643 40.256 167.059 38.336 167.059 35.952C167.059 33.568 168.787 31.76 171.267 31.76C173.795 31.76 175.363 33.68 175.347 35.856C175.347 36.016 175.363 36.384 175.347 36.528L168.611 36.512C168.611 37.568 169.539 38.976 171.475 38.976C172.723 38.976 173.491 38.288 173.667 37.712H175.171C174.947 38.544 173.875 40.256 171.587 40.256ZM168.611 35.36H173.795C173.795 34.08 172.835 32.992 171.283 32.992C169.699 32.992 168.611 34.192 168.611 35.36ZM184.035 32.448C184.515 32.08 185.155 31.76 185.907 31.76C187.539 31.76 188.803 32.688 188.803 34.512V40H187.395V35.44C187.395 33.712 186.803 32.944 185.571 32.944C184.211 32.944 183.651 33.728 183.651 35.44V40H182.243V35.44C182.243 33.712 181.635 32.944 180.355 32.944C178.963 32.944 178.323 33.728 178.323 35.44V40H176.915V32H178.323V32.096C178.323 32.8 178.051 33.68 177.859 34.352L178.115 34.432C178.323 33.76 178.451 32.784 178.947 32.288C179.347 31.888 179.859 31.76 180.707 31.76C181.491 31.76 182.147 31.904 182.611 32.256C183.155 32.704 182.995 33.712 182.899 34.416L183.187 34.448C183.283 33.76 183.475 32.88 184.035 32.448ZM197.153 39.2C196.545 39.856 195.665 40.256 194.577 40.256C192.177 40.256 190.481 38.336 190.481 35.952C190.481 33.568 192.177 31.76 194.577 31.76C195.665 31.76 196.529 32.128 197.137 32.752C197.473 33.104 197.585 33.744 197.745 34.208L198.017 34.112C197.857 33.664 197.601 33.088 197.585 32.608L197.553 32H198.961V40H197.553L197.585 39.344C197.601 38.864 197.857 38.288 198.001 37.824L197.745 37.744C197.585 38.192 197.473 38.832 197.153 39.2ZM191.873 35.952C191.873 37.568 192.865 38.928 194.609 38.928C196.337 38.928 197.281 37.488 197.361 35.952C197.361 34.192 196.369 33.088 194.609 33.088C192.849 33.088 191.873 34.32 191.873 35.952ZM201.04 30.32V28.8H202.608V30.32H201.04ZM201.136 40V32H202.544V40H201.136ZM205.161 38.064V28.4H206.569V37.808C206.569 38.464 206.793 38.672 207.481 38.672H208.569V40H207.545C205.881 40 205.161 39.424 205.161 38.064ZM209.964 40V38.352H211.612V40H209.964ZM213.406 35.952C213.406 33.488 215.134 31.76 217.614 31.744C220.094 31.76 221.262 33.44 221.454 34.48H219.998C219.854 33.984 219.102 33.088 217.614 33.088C215.79 33.088 214.798 34.288 214.798 35.936C214.798 37.6 215.918 38.912 217.758 38.912C219.246 38.912 219.902 38 220.046 37.504H221.502C221.278 38.576 220.222 40.24 217.758 40.256C215.246 40.24 213.406 38.4 213.406 35.952ZM222.607 35.968C222.607 33.504 224.351 31.76 226.879 31.76C229.407 31.76 231.151 33.552 231.151 35.968C231.151 38.384 229.407 40.256 226.879 40.256C224.351 40.256 222.607 38.416 222.607 35.968ZM224.047 35.968C224.047 37.568 224.975 38.912 226.879 38.912C228.783 38.912 229.711 37.584 229.711 35.968C229.711 34.352 228.783 33.104 226.879 33.104C224.975 33.104 224.047 34.352 224.047 35.968ZM239.801 32.448C240.281 32.08 240.921 31.76 241.673 31.76C243.305 31.76 244.569 32.688 244.569 34.512V40H243.161V35.44C243.161 33.712 242.569 32.944 241.337 32.944C239.977 32.944 239.417 33.728 239.417 35.44V40H238.009V35.44C238.009 33.712 237.401 32.944 236.121 32.944C234.729 32.944 234.089 33.728 234.089 35.44V40H232.681V32H234.089V32.096C234.089 32.8 233.817 33.68 233.625 34.352L233.881 34.432C234.089 33.76 234.217 32.784 234.713 32.288C235.113 31.888 235.625 31.76 236.473 31.76C237.257 31.76 237.913 31.904 238.377 32.256C238.921 32.704 238.761 33.712 238.665 34.416L238.953 34.448C239.049 33.76 239.241 32.88 239.801 32.448Z" fill="white"/>
<path d="M38.7436 64.856V63.576H40.8716V61.352H42.2316V63.576H44.4556V64.856H42.2316V67.112H40.8716V64.856H38.7436ZM53.6599 63.816C53.1319 64.616 52.4119 65.208 50.9879 65.208C48.9559 65.208 47.0679 64.04 47.0679 61.688C47.0679 59.672 48.6199 57.8 51.0999 57.8C54.4759 57.8 55.5319 60.024 55.5319 63.304C55.5319 67.32 54.0759 69.24 51.6439 69.24C48.6839 69.24 47.5799 67.544 47.3239 66.184H48.9079C49.1959 66.984 49.9639 67.8 51.4839 67.8C53.2759 67.8 53.9319 66.376 54.0279 63.928C54.0439 63.464 54.2519 62.888 54.3799 62.44L54.1079 62.376C53.9799 62.824 53.9159 63.432 53.6599 63.816ZM53.5959 61.56C53.5959 60.312 52.7479 59.256 51.0999 59.256C49.4679 59.256 48.6039 60.184 48.6039 61.56C48.6039 62.936 49.5799 63.768 51.2279 63.768C52.8599 63.768 53.5959 62.808 53.5959 61.56ZM61.2951 60.696C60.7031 60.984 59.9831 61.16 59.3911 61.16V59.72C60.5591 59.72 61.5031 58.872 61.5031 57.8H63.4391V69H61.9511V61.048C61.9511 60.568 62.2231 60.056 62.4311 59.64L62.1911 59.512C61.9671 59.928 61.7111 60.488 61.2951 60.696ZM74.7795 60.696C74.1875 60.984 73.4675 61.16 72.8755 61.16V59.72C74.0435 59.72 74.9875 58.872 74.9875 57.8H76.9235V69H75.4355V61.048C75.4355 60.568 75.7075 60.056 75.9155 59.64L75.6755 59.512C75.4515 59.928 75.1955 60.488 74.7795 60.696ZM83.5439 67.016C83.2239 67.368 82.6639 67.592 82.2319 67.768L82.3439 68.04C82.7759 67.848 83.3199 67.592 83.7839 67.592H88.1679V69H80.8239V67.624C81.9919 66.44 82.8719 65.4 85.0799 63.256C87.5759 60.824 86.3759 59.064 84.6959 59.064C82.9839 59.064 82.5999 60.184 82.5999 61.24H81.0159C81.0159 59.608 81.9279 57.56 84.9039 57.56C87.6719 57.56 89.2399 60.808 87.1759 63.064C85.7679 64.616 84.2959 66.2 83.5439 67.016ZM97.1064 63.56C97.8424 64.104 98.2904 64.872 98.2904 65.848C98.2904 68.04 96.9624 69.24 94.2104 69.24C91.4104 69.24 90.0504 67.944 90.0024 66.04H91.4744C91.4744 67.208 92.5304 67.928 94.2744 67.928C96.0824 67.928 96.8024 67.064 96.8024 65.736C96.8024 64.2 95.9544 63.864 92.7704 63.864V62.504C95.8264 62.504 96.6584 62.184 96.6584 60.68C96.6584 59.416 95.9224 58.872 94.2584 58.872C92.6264 58.872 91.6344 59.592 91.6344 60.76H90.1624C90.1944 58.856 91.5064 57.56 94.2104 57.56C96.8504 57.56 98.1304 58.44 98.1304 60.632C98.1304 61.528 97.7784 62.232 97.1064 62.744C96.7384 63.032 96.1464 63.016 95.6664 63.016L95.6824 63.304C96.1464 63.304 96.7384 63.272 97.1064 63.56ZM100.005 64.76L105.397 57.8H107.141V64.648H108.709V66.168H107.141V69H105.637V66.184H100.005V64.76ZM105.141 60.744L102.469 64.056C102.165 64.424 101.621 64.664 101.205 64.872L101.317 65.128C101.749 64.92 102.277 64.664 102.757 64.664L105.637 64.648V60.92C105.637 60.456 105.877 59.896 106.037 59.448L105.765 59.352C105.605 59.8 105.445 60.376 105.141 60.744ZM112.674 62.36C113.282 62.008 114.082 61.784 115.01 61.784C117.138 61.784 118.546 63.176 118.546 65.432C118.546 67.656 116.882 69.24 114.37 69.24C112.386 69.24 110.514 67.88 110.034 66.04H111.794C112.018 66.904 113.186 67.832 114.45 67.832C116.082 67.832 117.042 66.712 117.042 65.272C117.042 64.152 116.258 63.176 114.898 63.176C113.282 63.176 112.546 63.704 112.05 64.216H110.29L111.538 57.8H117.938V59.192H112.866L112.29 62.104C112.21 62.472 111.906 62.856 111.698 63.176L111.922 63.336C112.13 63.016 112.354 62.552 112.674 62.36ZM126.084 62.968C126.708 62.312 127.604 61.768 128.916 61.768C130.916 61.768 132.5 63.352 132.5 65.32C132.5 67.352 130.932 69.24 128.484 69.24C125.14 69.24 124.036 67.016 124.036 63.736C124.036 60.04 126.052 57.8 128.66 57.8C131.044 57.8 132.1 59.4 132.308 60.76H130.74C130.532 59.976 129.748 59.16 128.836 59.16C127.172 59.16 125.908 60.536 125.668 62.792C125.604 63.256 125.364 63.816 125.188 64.248L125.444 64.36C125.62 63.912 125.764 63.304 126.084 62.968ZM125.86 65.432C125.86 66.712 126.74 67.784 128.42 67.784C130.1 67.784 130.98 66.84 130.98 65.432C130.98 64.008 130.276 63.16 128.596 63.16C126.916 63.16 125.86 64.136 125.86 65.432ZM139.554 59.192H134.466V57.8H142.29V59.192C140.818 60.888 137.362 65.48 136.978 69H135.266C135.57 65.768 138.322 61.656 139.826 59.8C140.114 59.432 140.674 59.192 141.106 59L140.978 58.744C140.562 58.936 140.018 59.192 139.554 59.192ZM145.919 63.224C146.287 63.08 146.799 63.16 147.199 63.16V62.888C146.799 62.872 146.287 62.92 145.935 62.76C144.735 62.216 144.191 61.56 144.191 60.536C144.191 58.824 145.791 57.56 147.951 57.56C150.111 57.56 151.727 58.824 151.727 60.504C151.727 61.544 151.135 62.264 149.919 62.776C149.567 62.936 149.039 62.872 148.655 62.872V63.16C149.039 63.144 149.567 63.08 149.935 63.224C151.311 63.752 151.951 64.504 151.951 66.008C151.951 68.056 150.463 69.24 147.871 69.24C145.311 69.24 143.807 68.072 143.807 66.072C143.807 64.568 144.511 63.768 145.919 63.224ZM147.951 62.12C149.391 62.12 150.287 61.496 150.287 60.472C150.287 59.448 149.407 58.824 147.951 58.824C146.511 58.824 145.647 59.448 145.647 60.488C145.647 61.512 146.511 62.12 147.951 62.12ZM147.887 67.96C149.567 67.96 150.431 67.256 150.431 66.04C150.431 64.792 149.519 64.168 147.903 64.168C146.271 64.168 145.327 64.808 145.327 66.056C145.327 67.256 146.207 67.96 147.887 67.96ZM160.066 63.816C159.538 64.616 158.818 65.208 157.394 65.208C155.362 65.208 153.474 64.04 153.474 61.688C153.474 59.672 155.026 57.8 157.506 57.8C160.882 57.8 161.938 60.024 161.938 63.304C161.938 67.32 160.482 69.24 158.05 69.24C155.09 69.24 153.986 67.544 153.73 66.184H155.314C155.602 66.984 156.37 67.8 157.89 67.8C159.682 67.8 160.338 66.376 160.434 63.928C160.45 63.464 160.658 62.888 160.786 62.44L160.514 62.376C160.386 62.824 160.322 63.432 160.066 63.816ZM160.002 61.56C160.002 60.312 159.154 59.256 157.506 59.256C155.874 59.256 155.01 60.184 155.01 61.56C155.01 62.936 155.986 63.768 157.634 63.768C159.266 63.768 160.002 62.808 160.002 61.56ZM167.701 60.696C167.109 60.984 166.389 61.16 165.797 61.16V59.72C166.965 59.72 167.909 58.872 167.909 57.8H169.845V69H168.357V61.048C168.357 60.568 168.629 60.056 168.837 59.64L168.597 59.512C168.373 59.928 168.117 60.488 167.701 60.696ZM180.274 73V57.288H181.73V73H180.274ZM191.134 64.856V63.576H193.262V61.352H194.622V63.576H196.846V64.856H194.622V67.112H193.262V64.856H191.134ZM206.051 63.816C205.523 64.616 204.803 65.208 203.379 65.208C201.347 65.208 199.459 64.04 199.459 61.688C199.459 59.672 201.011 57.8 203.491 57.8C206.867 57.8 207.923 60.024 207.923 63.304C207.923 67.32 206.467 69.24 204.035 69.24C201.075 69.24 199.971 67.544 199.715 66.184H201.299C201.587 66.984 202.355 67.8 203.875 67.8C205.667 67.8 206.323 66.376 206.419 63.928C206.435 63.464 206.642 62.888 206.771 62.44L206.499 62.376C206.371 62.824 206.307 63.432 206.051 63.816ZM205.987 61.56C205.987 60.312 205.139 59.256 203.491 59.256C201.859 59.256 200.995 60.184 200.995 61.56C200.995 62.936 201.971 63.768 203.619 63.768C205.251 63.768 205.987 62.808 205.987 61.56ZM213.686 60.696C213.094 60.984 212.374 61.16 211.782 61.16V59.72C212.95 59.72 213.894 58.872 213.894 57.8H215.83V69H214.342V61.048C214.342 60.568 214.614 60.056 214.822 59.64L214.582 59.512C214.358 59.928 214.102 60.488 213.686 60.696ZM227.17 60.696C226.578 60.984 225.858 61.16 225.266 61.16V59.72C226.434 59.72 227.378 58.872 227.378 57.8H229.314V69H227.826V61.048C227.826 60.568 228.098 60.056 228.306 59.64L228.066 59.512C227.842 59.928 227.586 60.488 227.17 60.696ZM235.935 67.016C235.615 67.368 235.055 67.592 234.623 67.768L234.735 68.04C235.167 67.848 235.711 67.592 236.174 67.592H240.559V69H233.215V67.624C234.383 66.44 235.263 65.4 237.471 63.256C239.967 60.824 238.767 59.064 237.087 59.064C235.375 59.064 234.991 60.184 234.991 61.24H233.407C233.407 59.608 234.319 57.56 237.295 57.56C240.062 57.56 241.631 60.808 239.567 63.064C238.159 64.616 236.687 66.2 235.935 67.016ZM249.497 63.56C250.233 64.104 250.681 64.872 250.681 65.848C250.681 68.04 249.353 69.24 246.601 69.24C243.801 69.24 242.441 67.944 242.393 66.04H243.865C243.865 67.208 244.921 67.928 246.665 67.928C248.473 67.928 249.193 67.064 249.193 65.736C249.193 64.2 248.345 63.864 245.161 63.864V62.504C248.217 62.504 249.049 62.184 249.049 60.68C249.049 59.416 248.313 58.872 246.649 58.872C245.017 58.872 244.025 59.592 244.025 60.76H242.553C242.585 58.856 243.897 57.56 246.601 57.56C249.241 57.56 250.521 58.44 250.521 60.632C250.521 61.528 250.169 62.232 249.497 62.744C249.129 63.032 248.537 63.016 248.057 63.016L248.073 63.304C248.537 63.304 249.129 63.272 249.497 63.56ZM252.395 64.76L257.787 57.8H259.531V64.648H261.099V66.168H259.531V69H258.027V66.184H252.395V64.76ZM257.531 60.744L254.859 64.056C254.555 64.424 254.011 64.664 253.595 64.872L253.707 65.128C254.139 64.92 254.667 64.664 255.147 64.664L258.027 64.648V60.92C258.027 60.456 258.267 59.896 258.427 59.448L258.155 59.352C257.995 59.8 257.835 60.376 257.531 60.744ZM265.065 62.36C265.673 62.008 266.473 61.784 267.401 61.784C269.529 61.784 270.937 63.176 270.937 65.432C270.937 67.656 269.273 69.24 266.761 69.24C264.777 69.24 262.905 67.88 262.425 66.04H264.185C264.409 66.904 265.577 67.832 266.841 67.832C268.473 67.832 269.433 66.712 269.433 65.272C269.433 64.152 268.649 63.176 267.289 63.176C265.673 63.176 264.937 63.704 264.441 64.216H262.681L263.929 57.8H270.329V59.192H265.257L264.681 62.104C264.601 62.472 264.297 62.856 264.089 63.176L264.313 63.336C264.521 63.016 264.745 62.552 265.065 62.36ZM278.475 62.968C279.099 62.312 279.995 61.768 281.307 61.768C283.307 61.768 284.891 63.352 284.891 65.32C284.891 67.352 283.323 69.24 280.875 69.24C277.531 69.24 276.427 67.016 276.427 63.736C276.427 60.04 278.443 57.8 281.051 57.8C283.435 57.8 284.491 59.4 284.699 60.76H283.131C282.923 59.976 282.139 59.16 281.227 59.16C279.563 59.16 278.299 60.536 278.059 62.792C277.995 63.256 277.755 63.816 277.579 64.248L277.835 64.36C278.011 63.912 278.155 63.304 278.475 62.968ZM278.251 65.432C278.251 66.712 279.131 67.784 280.811 67.784C282.491 67.784 283.371 66.84 283.371 65.432C283.371 64.008 282.667 63.16 280.987 63.16C279.307 63.16 278.251 64.136 278.251 65.432ZM291.945 59.192H286.857V57.8H294.681V59.192C293.209 60.888 289.753 65.48 289.369 69H287.657C287.961 65.768 290.713 61.656 292.217 59.8C292.505 59.432 293.065 59.192 293.497 59L293.369 58.744C292.953 58.936 292.409 59.192 291.945 59.192ZM298.309 63.224C298.677 63.08 299.189 63.16 299.589 63.16V62.888C299.189 62.872 298.677 62.92 298.325 62.76C297.125 62.216 296.581 61.56 296.581 60.536C296.581 58.824 298.181 57.56 300.341 57.56C302.501 57.56 304.117 58.824 304.117 60.504C304.117 61.544 303.525 62.264 302.309 62.776C301.957 62.936 301.429 62.872 301.045 62.872V63.16C301.429 63.144 301.957 63.08 302.325 63.224C303.701 63.752 304.341 64.504 304.341 66.008C304.341 68.056 302.853 69.24 300.261 69.24C297.701 69.24 296.197 68.072 296.197 66.072C296.197 64.568 296.901 63.768 298.309 63.224ZM300.341 62.12C301.781 62.12 302.677 61.496 302.677 60.472C302.677 59.448 301.797 58.824 300.341 58.824C298.901 58.824 298.037 59.448 298.037 60.488C298.037 61.512 298.901 62.12 300.341 62.12ZM300.277 67.96C301.957 67.96 302.821 67.256 302.821 66.04C302.821 64.792 301.909 64.168 300.293 64.168C298.661 64.168 297.717 64.808 297.717 66.056C297.717 67.256 298.597 67.96 300.277 67.96ZM312.457 63.816C311.929 64.616 311.209 65.208 309.785 65.208C307.753 65.208 305.865 64.04 305.865 61.688C305.865 59.672 307.417 57.8 309.897 57.8C313.273 57.8 314.329 60.024 314.329 63.304C314.329 67.32 312.873 69.24 310.441 69.24C307.481 69.24 306.377 67.544 306.121 66.184H307.705C307.993 66.984 308.761 67.8 310.281 67.8C312.073 67.8 312.729 66.376 312.825 63.928C312.841 63.464 313.049 62.888 313.177 62.44L312.905 62.376C312.777 62.824 312.713 63.432 312.457 63.816ZM312.393 61.56C312.393 60.312 311.545 59.256 309.897 59.256C308.265 59.256 307.401 60.184 307.401 61.56C307.401 62.936 308.377 63.768 310.025 63.768C311.657 63.768 312.393 62.808 312.393 61.56ZM320.092 60.696C319.5 60.984 318.78 61.16 318.188 61.16V59.72C319.356 59.72 320.3 58.872 320.3 57.8H322.236V69H320.748V61.048C320.748 60.568 321.02 60.056 321.228 59.64L320.988 59.512C320.764 59.928 320.508 60.488 320.092 60.696Z" fill="white"/>
<path d="M4.34075 96.016C4.02075 96.368 3.46075 96.592 3.02875 96.768L3.14075 97.04C3.57275 96.848 4.11675 96.592 4.58075 96.592H8.96475V98H1.62075V96.624C2.78875 95.44 3.66875 94.4 5.87675 92.256C8.37275 89.824 7.17275 88.064 5.49275 88.064C3.78075 88.064 3.39675 89.184 3.39675 90.24H1.81275C1.81275 88.608 2.72475 86.56 5.70075 86.56C8.46875 86.56 10.0368 89.808 7.97275 92.064C6.56475 93.616 5.09275 95.2 4.34075 96.016ZM17.5193 92.816C16.9913 93.616 16.2713 94.208 14.8473 94.208C12.8153 94.208 10.9273 93.04 10.9273 90.688C10.9273 88.672 12.4793 86.8 14.9593 86.8C18.3353 86.8 19.3913 89.024 19.3913 92.304C19.3913 96.32 17.9353 98.24 15.5033 98.24C12.5433 98.24 11.4393 96.544 11.1833 95.184H12.7673C13.0553 95.984 13.8233 96.8 15.3433 96.8C17.1353 96.8 17.7913 95.376 17.8873 92.928C17.9033 92.464 18.1112 91.888 18.2393 91.44L17.9673 91.376C17.8393 91.824 17.7753 92.432 17.5193 92.816ZM17.4553 90.56C17.4553 89.312 16.6073 88.256 14.9593 88.256C13.3273 88.256 12.4633 89.184 12.4633 90.56C12.4633 91.936 13.4393 92.768 15.0873 92.768C16.7193 92.768 17.4553 91.808 17.4553 90.56ZM26.8825 88.192H21.7945V86.8H29.6185V88.192C28.1465 89.888 24.6905 94.48 24.3065 98H22.5945C22.8985 94.768 25.6505 90.656 27.1545 88.8C27.4425 88.432 28.0025 88.192 28.4345 88L28.3065 87.744C27.8905 87.936 27.3465 88.192 26.8825 88.192ZM33.9189 96.016C33.5989 96.368 33.0389 96.592 32.6069 96.768L32.7189 97.04C33.1509 96.848 33.6949 96.592 34.1589 96.592H38.5429V98H31.1989V96.624C32.3669 95.44 33.2469 94.4 35.4549 92.256C37.9509 89.824 36.7509 88.064 35.0709 88.064C33.3589 88.064 32.9749 89.184 32.9749 90.24H31.3909C31.3909 88.608 32.3029 86.56 35.2789 86.56C38.0469 86.56 39.6149 89.808 37.5509 92.064C36.1429 93.616 34.6709 95.2 33.9189 96.016ZM50.7454 89.712L48.4254 98H46.6334L43.8494 86.8H45.3374L47.3214 95.056C47.4174 95.488 47.3534 96.048 47.3374 96.496H47.6094C47.6254 96.064 47.5774 95.488 47.7054 95.056L50.1854 86.8H51.7854L54.2814 95.056C54.4094 95.488 54.3614 96.064 54.3774 96.496H54.6494C54.6494 96.048 54.5694 95.488 54.6654 95.056L56.6494 86.8H58.1374L55.3534 98H53.5614L51.2254 89.712C51.0814 89.168 51.1294 88.448 51.1294 87.888H50.8414C50.8414 88.448 50.8894 89.168 50.7454 89.712ZM63.431 98.256C60.487 98.256 58.903 96.336 58.903 93.952C58.903 91.568 60.631 89.76 63.111 89.76C65.639 89.76 67.207 91.68 67.191 93.856C67.191 94.016 67.207 94.384 67.191 94.528L60.455 94.512C60.455 95.568 61.383 96.976 63.319 96.976C64.567 96.976 65.335 96.288 65.511 95.712H67.015C66.791 96.544 65.719 98.256 63.431 98.256ZM60.455 93.36H65.639C65.639 92.08 64.679 90.992 63.127 90.992C61.543 90.992 60.455 92.192 60.455 93.36ZM75.8308 95.648C75.8308 97.296 74.6308 98.256 72.3428 98.256C70.2148 98.256 68.3588 97.056 68.3588 95.6H69.7668C69.7668 96.192 70.9828 96.928 72.4227 96.928C73.6868 96.928 74.3908 96.56 74.3908 95.776C74.3908 93.648 68.4548 95.2 68.4548 92.08C68.4548 90.848 69.7668 89.76 71.9588 89.76C74.0548 89.76 75.6068 90.704 75.6068 92.032H74.1988C74.1988 91.408 73.2228 91.008 71.9108 91.008C70.7588 91.008 69.8948 91.424 69.8948 92.096C69.8948 93.648 75.8308 92.368 75.8308 95.648ZM78.9011 95.824V91.312H77.3011V90.032H78.9011V87.344H80.2931V90.032H82.3731V91.312H80.2931V95.824C80.2931 96.48 80.5971 96.672 81.3491 96.672H82.2931V98H80.7891C79.5571 98 78.9011 97.04 78.9011 95.824ZM86.2751 90.672C86.9951 89.952 87.7951 89.76 88.9631 89.76C90.6271 89.76 91.9071 90.688 91.9071 92.512V98H90.4991V93.52C90.4991 91.824 89.8431 91.072 88.4991 91.072C87.0111 91.072 85.7631 91.824 85.7631 93.52V98H84.3711V86.4H85.7631V90.48C85.7631 90.96 85.5231 91.52 85.3631 91.968L85.6191 92.064C85.7791 91.616 85.9391 90.992 86.2751 90.672ZM97.9779 98.256C95.0339 98.256 93.4499 96.336 93.4499 93.952C93.4499 91.568 95.1779 89.76 97.6579 89.76C100.186 89.76 101.754 91.68 101.738 93.856C101.738 94.016 101.754 94.384 101.738 94.528L95.0019 94.512C95.0019 95.568 95.9299 96.976 97.8659 96.976C99.1139 96.976 99.8819 96.288 100.058 95.712H101.562C101.338 96.544 100.266 98.256 97.9779 98.256ZM95.0019 93.36H100.186C100.186 92.08 99.2259 90.992 97.6739 90.992C96.0899 90.992 95.0019 92.192 95.0019 93.36ZM103.306 88.32V86.8H104.874V88.32H103.306ZM103.402 98V90H104.81V98H103.402ZM114.066 90.448C114.546 90.08 115.186 89.76 115.938 89.76C117.57 89.76 118.834 90.688 118.834 92.512V98H117.426V93.44C117.426 91.712 116.834 90.944 115.602 90.944C114.242 90.944 113.682 91.728 113.682 93.44V98H112.274V93.44C112.274 91.712 111.666 90.944 110.386 90.944C108.994 90.944 108.354 91.728 108.354 93.44V98H106.946V90H108.354V90.096C108.354 90.8 108.082 91.68 107.89 92.352L108.146 92.432C108.354 91.76 108.482 90.784 108.978 90.288C109.378 89.888 109.89 89.76 110.738 89.76C111.522 89.76 112.178 89.904 112.642 90.256C113.186 90.704 113.026 91.712 112.93 92.416L113.218 92.448C113.314 91.76 113.506 90.88 114.066 90.448ZM125.04 98.256C122.096 98.256 120.512 96.336 120.512 93.952C120.512 91.568 122.24 89.76 124.72 89.76C127.248 89.76 128.816 91.68 128.8 93.856C128.8 94.016 128.816 94.384 128.8 94.528L122.064 94.512C122.064 95.568 122.992 96.976 124.928 96.976C126.176 96.976 126.944 96.288 127.12 95.712H128.624C128.4 96.544 127.328 98.256 125.04 98.256ZM122.064 93.36H127.248C127.248 92.08 126.288 90.992 124.736 90.992C123.152 90.992 122.064 92.192 122.064 93.36ZM132.4 90.688C133.152 89.92 133.888 89.76 135.616 89.76V91.088C133.744 91.088 131.888 91.712 131.888 93.92V98H130.496V90H131.888V90.496C131.888 90.96 131.648 91.52 131.488 91.952L131.744 92.048C131.904 91.616 132.064 91.008 132.4 90.688ZM147.657 93.024C148.281 93.36 148.745 94.016 149.049 95.2C149.225 95.84 149.913 98 149.913 98H148.392C148.025 96.592 147.737 95.552 147.673 95.328C147.145 93.52 145.945 93.472 145.321 93.44C145.193 93.456 145.065 93.456 144.905 93.456C144.489 93.456 143.705 93.44 143.113 93.44V98H141.641V86.8H145.209C147.625 86.8 149.641 87.312 149.641 89.936C149.641 91.472 148.76 92.112 147.657 92.544C147.257 92.704 146.681 92.64 146.249 92.64V92.928C146.681 92.928 147.273 92.8 147.657 93.024ZM143.113 88.032V92.112H145.161C146.713 92.112 148.137 91.824 148.137 89.968C148.137 88.16 146.825 88.032 145.161 88.032H143.113ZM158.082 90.624V86.4H159.474V98H158.082V97.424C158.082 96.944 158.322 96.368 158.466 95.92L158.194 95.824C158.05 96.288 157.938 96.928 157.602 97.264C156.994 97.888 156.162 98.24 155.09 98.24C152.69 98.24 151.106 96.432 151.122 94.048C151.138 91.68 152.706 89.744 155.09 89.744C156.162 89.744 157.01 90.144 157.602 90.784C157.938 91.136 158.05 91.776 158.194 92.224L158.466 92.144C158.306 91.68 158.082 91.104 158.082 90.624ZM155.186 96.912C156.994 96.912 157.954 95.68 157.954 94.048C157.954 92.432 156.994 91.072 155.186 91.072C153.362 91.072 152.514 92.432 152.514 94.048C152.514 95.68 153.362 96.912 155.186 96.912ZM161.652 98V96.352H163.3V98H161.652ZM177.99 88.976L176.614 89.328C176.23 88.576 175.158 87.888 173.59 87.888C172.23 87.888 170.838 88.448 170.838 89.504C170.838 91.36 178.198 91.152 178.198 94.928C178.198 97.2 176.022 98.24 173.558 98.24C171.254 98.24 169.718 97.04 169.094 95.44L170.486 95.088C170.998 96.32 172.31 96.848 173.622 96.848C175.43 96.848 176.55 96.112 176.55 95.12C176.55 92.48 169.286 93.008 169.286 89.568C169.286 87.488 171.59 86.56 173.75 86.56C176.022 86.56 177.51 87.792 177.99 88.976ZM186.059 97.2C185.451 97.856 184.571 98.256 183.483 98.256C181.083 98.256 179.387 96.336 179.387 93.952C179.387 91.568 181.083 89.76 183.483 89.76C184.571 89.76 185.435 90.128 186.043 90.752C186.379 91.104 186.491 91.744 186.651 92.208L186.923 92.112C186.763 91.664 186.507 91.088 186.491 90.608L186.459 90H187.867V98H186.459L186.491 97.344C186.507 96.864 186.763 96.288 186.907 95.824L186.651 95.744C186.491 96.192 186.379 96.832 186.059 97.2ZM180.779 93.952C180.779 95.568 181.771 96.928 183.515 96.928C185.243 96.928 186.187 95.488 186.267 93.952C186.267 92.192 185.275 91.088 183.515 91.088C181.755 91.088 180.779 92.32 180.779 93.952ZM192.09 90.448C192.842 89.84 193.53 89.76 194.666 89.76C196.33 89.76 197.61 90.688 197.61 92.512V98H196.202V93.52C196.202 91.824 195.546 91.072 194.202 91.072C192.714 91.072 191.466 91.824 191.466 93.52V98H190.074V90H191.466V90.176C191.466 90.72 191.21 91.36 191.002 91.856L191.258 91.952C191.466 91.456 191.674 90.784 192.09 90.448ZM201.104 95.824V91.312H199.504V90.032H201.104V87.344H202.496V90.032H204.576V91.312H202.496V95.824C202.496 96.48 202.8 96.672 203.552 96.672H204.496V98H202.992C201.76 98 201.104 97.04 201.104 95.824ZM212.606 97.2C211.998 97.856 211.118 98.256 210.03 98.256C207.63 98.256 205.934 96.336 205.934 93.952C205.934 91.568 207.63 89.76 210.03 89.76C211.118 89.76 211.982 90.128 212.59 90.752C212.926 91.104 213.038 91.744 213.198 92.208L213.47 92.112C213.31 91.664 213.054 91.088 213.038 90.608L213.006 90H214.414V98H213.006L213.038 97.344C213.054 96.864 213.31 96.288 213.454 95.824L213.198 95.744C213.038 96.192 212.926 96.832 212.606 97.2ZM207.326 93.952C207.326 95.568 208.318 96.928 210.062 96.928C211.79 96.928 212.734 95.488 212.814 93.952C212.814 92.192 211.822 91.088 210.062 91.088C208.302 91.088 207.326 92.32 207.326 93.952ZM219.309 97.984L223.517 86.768H225.421L229.789 97.984H228.141L226.573 94H222.429L220.973 97.984H219.309ZM226.269 92.752L224.669 88.896C224.541 88.608 224.605 88.208 224.605 87.888H224.317C224.317 88.208 224.381 88.608 224.269 88.896L222.669 92.752H226.269ZM232.95 90.448C233.702 89.84 234.39 89.76 235.526 89.76C237.19 89.76 238.47 90.688 238.47 92.512V98H237.062V93.52C237.062 91.824 236.406 91.072 235.062 91.072C233.574 91.072 232.326 91.824 232.326 93.52V98H230.934V90H232.326V90.176C232.326 90.72 232.07 91.36 231.862 91.856L232.118 91.952C232.326 91.456 232.534 90.784 232.95 90.448ZM246.716 97.2C246.108 97.856 245.228 98.256 244.14 98.256C241.74 98.256 240.044 96.336 240.044 93.952C240.044 91.568 241.74 89.76 244.14 89.76C245.228 89.76 246.092 90.128 246.7 90.752C247.036 91.104 247.148 91.744 247.308 92.208L247.58 92.112C247.42 91.664 247.164 91.088 247.148 90.608L247.116 90H248.524V98H247.116L247.148 97.344C247.164 96.864 247.42 96.288 247.564 95.824L247.308 95.744C247.148 96.192 247.036 96.832 246.716 97.2ZM241.436 93.952C241.436 95.568 242.428 96.928 244.172 96.928C245.9 96.928 246.844 95.488 246.924 93.952C246.924 92.192 245.932 91.088 244.172 91.088C242.412 91.088 241.436 92.32 241.436 93.952ZM251.355 98H250.875V96.4H252.555V98C252.555 99.008 251.979 99.616 250.939 99.616V98.896C251.435 98.896 251.611 98.656 251.691 98.384C251.771 98.16 251.963 98 252.155 97.856L251.979 97.632C251.787 97.792 251.595 98 251.355 98ZM259.172 98V86.8H260.66V98H259.172ZM263.504 96.064V86.4H264.912V95.808C264.912 96.464 265.136 96.672 265.824 96.672H266.912V98H265.888C264.224 98 263.504 97.424 263.504 96.064ZM268.692 96.064V86.4H270.1V95.808C270.1 96.464 270.324 96.672 271.012 96.672H272.1V98H271.076C269.412 98 268.692 97.424 268.692 96.064ZM273.399 88.32V86.8H274.967V88.32H273.399ZM273.495 98V90H274.903V98H273.495ZM279.184 90.448C279.936 89.84 280.624 89.76 281.76 89.76C283.424 89.76 284.704 90.688 284.704 92.512V98H283.296V93.52C283.296 91.824 282.64 91.072 281.296 91.072C279.808 91.072 278.56 91.824 278.56 93.52V98H277.168V90H278.56V90.176C278.56 90.72 278.304 91.36 278.096 91.856L278.352 91.952C278.56 91.456 278.768 90.784 279.184 90.448ZM286.31 93.968C286.31 91.504 288.054 89.76 290.582 89.76C293.11 89.76 294.854 91.552 294.854 93.968C294.854 96.384 293.11 98.256 290.582 98.256C288.054 98.256 286.31 96.416 286.31 93.968ZM287.75 93.968C287.75 95.568 288.678 96.912 290.582 96.912C292.486 96.912 293.414 95.584 293.414 93.968C293.414 92.352 292.486 91.104 290.582 91.104C288.678 91.104 287.75 92.352 287.75 93.968ZM296.384 88.32V86.8H297.952V88.32H296.384ZM296.48 98V90H297.888V98H296.48ZM307.096 95.648C307.096 97.296 305.896 98.256 303.608 98.256C301.48 98.256 299.624 97.056 299.624 95.6H301.032C301.032 96.192 302.248 96.928 303.688 96.928C304.952 96.928 305.656 96.56 305.656 95.776C305.656 93.648 299.72 95.2 299.72 92.08C299.72 90.848 301.032 89.76 303.224 89.76C305.32 89.76 306.872 90.704 306.872 92.032H305.464C305.464 91.408 304.488 91.008 303.176 91.008C302.024 91.008 301.16 91.424 301.16 92.096C301.16 93.648 307.096 92.368 307.096 95.648ZM314.919 92.224C315.287 92.08 315.799 92.16 316.199 92.16V91.888C315.799 91.872 315.287 91.92 314.935 91.76C313.735 91.216 313.191 90.56 313.191 89.536C313.191 87.824 314.791 86.56 316.951 86.56C319.111 86.56 320.727 87.824 320.727 89.504C320.727 90.544 320.135 91.264 318.919 91.776C318.567 91.936 318.039 91.872 317.655 91.872V92.16C318.039 92.144 318.567 92.08 318.935 92.224C320.311 92.752 320.951 93.504 320.951 95.008C320.951 97.056 319.463 98.24 316.871 98.24C314.311 98.24 312.807 97.072 312.807 95.072C312.807 93.568 313.511 92.768 314.919 92.224ZM316.951 91.12C318.391 91.12 319.287 90.496 319.287 89.472C319.287 88.448 318.407 87.824 316.951 87.824C315.511 87.824 314.647 88.448 314.647 89.488C314.647 90.512 315.511 91.12 316.951 91.12ZM316.887 96.96C318.567 96.96 319.431 96.256 319.431 95.04C319.431 93.792 318.519 93.168 316.903 93.168C315.271 93.168 314.327 93.808 314.327 95.056C314.327 96.256 315.207 96.96 316.887 96.96ZM325.002 91.36C325.61 91.008 326.41 90.784 327.338 90.784C329.466 90.784 330.874 92.176 330.874 94.432C330.874 96.656 329.21 98.24 326.698 98.24C324.714 98.24 322.842 96.88 322.362 95.04H324.122C324.346 95.904 325.514 96.832 326.778 96.832C328.41 96.832 329.37 95.712 329.37 94.272C329.37 93.152 328.586 92.176 327.226 92.176C325.61 92.176 324.874 92.704 324.378 93.216H322.618L323.866 86.8H330.266V88.192H325.194L324.618 91.104C324.538 91.472 324.234 91.856 324.026 92.176L324.25 92.336C324.458 92.016 324.682 91.552 325.002 91.36ZM332.348 93.76L337.74 86.8H339.484V93.648H341.052V95.168H339.484V98H337.98V95.184H332.348V93.76ZM337.484 89.744L334.812 93.056C334.508 93.424 333.964 93.664 333.548 93.872L333.66 94.128C334.092 93.92 334.62 93.664 335.1 93.664L337.98 93.648V89.92C337.98 89.456 338.22 88.896 338.38 88.448L338.108 88.352C337.948 88.8 337.788 89.376 337.484 89.744ZM344.794 92.224C345.162 92.08 345.674 92.16 346.074 92.16V91.888C345.674 91.872 345.162 91.92 344.81 91.76C343.61 91.216 343.066 90.56 343.066 89.536C343.066 87.824 344.666 86.56 346.826 86.56C348.986 86.56 350.602 87.824 350.602 89.504C350.602 90.544 350.01 91.264 348.794 91.776C348.442 91.936 347.914 91.872 347.53 91.872V92.16C347.914 92.144 348.442 92.08 348.81 92.224C350.186 92.752 350.826 93.504 350.826 95.008C350.826 97.056 349.338 98.24 346.746 98.24C344.186 98.24 342.682 97.072 342.682 95.072C342.682 93.568 343.386 92.768 344.794 92.224ZM346.826 91.12C348.266 91.12 349.162 90.496 349.162 89.472C349.162 88.448 348.282 87.824 346.826 87.824C345.386 87.824 344.522 88.448 344.522 89.488C344.522 90.512 345.386 91.12 346.826 91.12ZM346.762 96.96C348.442 96.96 349.306 96.256 349.306 95.04C349.306 93.792 348.394 93.168 346.778 93.168C345.146 93.168 344.202 93.808 344.202 95.056C344.202 96.256 345.082 96.96 346.762 96.96ZM354.381 91.968C355.005 91.312 355.901 90.768 357.213 90.768C359.213 90.768 360.797 92.352 360.797 94.32C360.797 96.352 359.229 98.24 356.781 98.24C353.437 98.24 352.333 96.016 352.333 92.736C352.333 89.04 354.349 86.8 356.957 86.8C359.341 86.8 360.397 88.4 360.605 89.76H359.037C358.829 88.976 358.045 88.16 357.133 88.16C355.469 88.16 354.205 89.536 353.965 91.792C353.901 92.256 353.661 92.816 353.485 93.248L353.741 93.36C353.917 92.912 354.061 92.304 354.381 91.968ZM354.157 94.432C354.157 95.712 355.037 96.784 356.717 96.784C358.397 96.784 359.277 95.84 359.277 94.432C359.277 93.008 358.573 92.16 356.893 92.16C355.213 92.16 354.157 93.136 354.157 94.432Z" fill="white"/>
<path d="M152.054 14.2611C148.417 14.2611 145.719 11.5284 145.719 7.89073C145.719 4.27043 148.382 1.5552 151.985 1.5552C155.692 1.5552 157.433 3.57421 157.676 5.90653H155.379C155.1 4.87961 154.439 3.74827 152.002 3.74827C149.757 3.74827 147.999 5.27993 147.999 7.90814C147.999 10.5189 149.739 12.068 152.002 12.068C154.561 12.068 155.24 10.9367 155.535 9.90975H157.833C157.502 12.625 155.657 14.2611 152.054 14.2611ZM159.131 9.63126C159.131 6.82901 161.097 5.03626 164.091 5.03626C167.102 5.03626 169.069 6.95085 169.069 9.63126C169.069 12.3291 167.102 14.2785 164.091 14.2785C161.097 14.2785 159.131 12.4335 159.131 9.63126ZM161.393 9.63126C161.393 11.0585 162.176 12.2247 164.091 12.2247C166.023 12.2247 166.806 11.0585 166.806 9.63126C166.806 8.20403 166.023 7.09009 164.091 7.09009C162.159 7.09009 161.393 8.20403 161.393 9.63126ZM173.401 5.74988C174.132 5.1755 174.898 5.03626 176.029 5.03626C177.805 5.03626 179.18 6.04577 179.18 8.02998V14H177.039V9.56164C177.039 7.89073 176.43 7.1423 175.159 7.1423C173.767 7.1423 172.583 7.89073 172.583 9.56164V14H170.46V5.29734H172.583V5.43658C172.583 6.1328 172.235 6.96825 171.974 7.62965L172.34 7.7863C172.601 7.1249 172.844 6.18501 173.401 5.74988ZM182.544 11.0759V7.15971H180.803V5.29734H182.544V2.00773H184.667V5.29734H186.93V7.15971H184.667V11.0759C184.667 11.8069 184.998 12.0158 185.816 12.0158H186.843V14H184.737C183.101 14 182.544 12.4683 182.544 11.0759ZM195.193 13.1297C194.549 13.8434 193.644 14.2785 192.478 14.2785C189.884 14.2785 188.057 12.1898 188.057 9.59645C188.057 7.00306 189.884 5.03626 192.478 5.03626C193.644 5.03626 194.549 5.43658 195.176 6.11539C195.541 6.49831 195.611 7.21193 195.785 7.71668L196.15 7.59484C195.994 7.09009 195.68 6.4809 195.68 5.95874L195.663 5.29734H197.804V14H195.663L195.68 13.2864C195.68 12.7642 195.994 12.1376 196.15 11.6503L195.767 11.5284C195.611 12.0158 195.541 12.7294 195.193 13.1297ZM190.198 9.59645C190.198 11.0585 191.155 12.2943 192.6 12.2943C194.027 12.2943 194.984 11.0237 195.036 9.59645C195.036 8.06479 194.184 7.02047 192.6 7.02047C191.155 7.02047 190.198 8.117 190.198 9.59645ZM199.616 9.59645C199.616 6.75939 201.496 5.03626 204.316 5.03626C207.188 5.03626 208.719 6.8116 208.893 8.4303H206.613C206.561 8.25624 205.952 7.03787 204.264 7.03787C202.697 7.03787 201.74 8.01257 201.722 9.57905C201.722 11.1281 202.732 12.2421 204.333 12.2595C205.987 12.2595 206.613 11.0411 206.665 10.8496H208.946C208.667 12.5554 207.188 14.2611 204.403 14.2785C201.531 14.2611 199.616 12.4335 199.616 9.59645ZM211.847 11.0759V7.15971H210.107V5.29734H211.847V2.00773H213.97V5.29734H216.233V7.15971H213.97V11.0759C213.97 11.8069 214.301 12.0158 215.119 12.0158H216.146V14H214.04C212.404 14 211.847 12.4683 211.847 11.0759Z" fill="white"/>
</svg>
