<svg width="399" height="360" viewBox="0 0 399 360" fill="none" xmlns="http://www.w3.org/2000/svg">
<path d="M128.143 236.062C125.237 236.784 123.037 238.873 122.151 241.517C120.131 239.594 117.21 238.777 114.304 239.499C109.737 240.633 106.928 245.297 108.062 249.864C110.107 258.099 127.409 262.691 127.409 262.691C127.409 262.691 140.57 250.607 138.508 242.304C137.374 237.737 132.71 234.928 128.143 236.062Z" stroke="#022937" stroke-width="3.75" stroke-linecap="round" stroke-linejoin="round"/>
<path fill-rule="evenodd" clip-rule="evenodd" d="M289.194 166.43L274.199 157.772C268.677 154.584 261.617 156.476 258.43 161.997L249.772 176.993C246.584 182.514 248.476 189.574 253.997 192.762L268.993 201.419C274.514 204.607 281.574 202.715 284.762 197.194L293.419 182.198C296.607 176.677 294.715 169.617 289.194 166.43Z" stroke="#022937" stroke-width="3.6" stroke-linecap="round" stroke-linejoin="round"/>
<path fill-rule="evenodd" clip-rule="evenodd" d="M267.267 187.094C263.126 184.703 261.707 179.408 264.098 175.267C266.489 171.126 271.784 169.707 275.925 172.098C280.066 174.489 281.484 179.784 279.094 183.925C277.946 185.913 276.054 187.364 273.836 187.958C271.619 188.553 269.255 188.242 267.267 187.094Z" stroke="#022937" stroke-width="3.6" stroke-linecap="round" stroke-linejoin="round"/>
<path d="M288.808 172.871C287.427 172.074 285.662 172.547 284.865 173.927C284.068 175.308 284.541 177.073 285.922 177.87C287.302 178.667 289.067 178.194 289.864 176.813C290.661 175.433 290.188 173.668 288.808 172.871Z" fill="#022937"/>
<path d="M288.086 174.121C287.396 173.722 286.513 173.959 286.115 174.649C285.717 175.339 285.953 176.222 286.643 176.62C287.333 177.019 288.216 176.782 288.614 176.092C289.013 175.402 288.776 174.519 288.086 174.121Z" stroke="#022937" stroke-width="2.4" stroke-linecap="round"/>
<path fill-rule="evenodd" clip-rule="evenodd" d="M188.573 146.191C193.419 144.981 198.328 147.929 199.538 152.775L211.222 199.573C212.432 204.419 209.485 209.328 204.638 210.538L157.84 222.222C152.994 223.432 148.085 220.485 146.875 215.638L135.191 168.84C133.981 163.994 136.929 159.085 141.775 157.875L188.573 146.191ZM190.033 152.041C191.649 151.637 193.285 152.62 193.688 154.235L205.373 201.033C205.776 202.649 204.793 204.285 203.178 204.688L188.554 208.34L183.442 187.865L189.514 186.349C190.773 186.035 191.69 184.95 191.79 183.656L192.115 179.446C192.234 177.907 190.81 176.704 189.313 177.078L181.251 179.091L179.79 173.241C179.425 171.778 180.523 169.951 181.985 169.586L187.835 168.125C189.45 167.722 190.433 166.085 190.029 164.47L189.528 162.464C189.293 161.519 188.478 160.822 187.504 160.809C183.417 160.755 179.994 161.61 179.994 161.61C172.681 163.435 169.555 169.582 170.651 173.969L172.476 181.281L166.626 182.742C165.011 183.145 164.029 184.782 164.432 186.397L165.162 189.322C165.565 190.937 167.202 191.92 168.817 191.517L174.667 190.056L179.779 210.531L156.38 216.373C154.764 216.776 153.128 215.793 152.725 214.178L141.041 167.38C140.637 165.764 141.62 164.128 143.235 163.725L190.033 152.041Z" fill="#022937"/>
<path opacity="0.5" d="M334.291 118.151C332.022 118.204 330.049 119.386 328.956 121.195C327.78 119.439 325.754 118.35 323.484 118.403C319.918 118.487 317.068 121.473 317.151 125.039C317.301 131.469 329.342 137.73 329.342 137.73C329.342 137.73 341.078 130.969 340.927 124.484C340.844 120.918 337.858 118.068 334.291 118.151Z" stroke="#022937" stroke-width="3.75" stroke-linecap="round" stroke-linejoin="round"/>
<path d="M230.643 76.589C226.007 75.5437 221.4 76.9408 218.26 80.0609C216.764 75.8955 213.202 72.6564 208.566 71.6111C201.28 69.9683 193.976 74.5851 192.333 81.8706C189.371 95.0065 210.644 113.839 210.644 113.839C210.644 113.839 237.916 106.068 240.903 92.8221C242.545 85.5367 237.929 78.2318 230.643 76.589Z" stroke="#022937" stroke-width="3.75" stroke-linecap="round" stroke-linejoin="round"/>
<path d="M318.986 243.318L314.863 267.975M318.986 243.318L309.122 241.669L305 266.326L314.863 267.975M318.986 243.318L334.296 230.513C335.748 229.298 337.763 229.008 339.499 229.764L339.612 229.813C342.782 231.193 343.628 235.298 341.262 237.819L333.78 245.791L345.025 247.671C348.137 248.191 349.995 251.429 348.875 254.378L343.442 268.678C342.596 270.906 340.295 272.227 337.944 271.834L314.863 267.975" stroke="#022937" stroke-width="3.75" stroke-linecap="round" stroke-linejoin="round"/>
<path opacity="0.7" d="M87.9012 86.9792L95.5212 103.854M87.9012 86.9792L81.1512 90.0272L88.7712 106.902L95.5212 103.854M87.9012 86.9792L92.0498 72.7913C92.4435 71.445 93.5639 70.4367 94.9442 70.1867L95.0334 70.1706C97.5533 69.7142 99.7646 71.892 99.347 74.4184L98.0262 82.4071L105.722 78.932C107.852 77.9703 110.329 79.1974 110.854 81.4745L113.401 92.5139C113.798 94.234 112.926 95.995 111.317 96.7215L95.5212 103.854" stroke="#022937" stroke-width="3.75" stroke-linecap="round" stroke-linejoin="round"/>
<path opacity="0.5" d="M58.1939 294.51L58.9946 308.609M58.1939 294.51L52.554 294.83L53.3548 308.93L58.9946 308.609M58.1939 294.51L65.0341 285.547C65.6832 284.697 66.7569 284.286 67.808 284.486L67.8759 284.499C69.7946 284.865 70.772 287.021 69.7826 288.705L66.6537 294.029L73.0837 293.664C74.8632 293.563 76.2903 295.115 76.0404 296.88L74.8289 305.436C74.6401 306.769 73.5367 307.783 72.1925 307.86L58.9946 308.609" stroke="#022937" stroke-width="3.75" stroke-linecap="round" stroke-linejoin="round"/>
<path d="M92.4547 196.18L85.2187 198.152M85.2187 198.152L77.9828 200.125M85.2187 198.152L83.2461 190.916M85.2187 198.152L87.1913 205.388M72.7194 209.333L55.8356 213.936C53.2936 204.611 58.792 194.992 68.1167 192.45C69.793 191.993 71.4788 191.796 73.1313 191.834M73.1619 172.936C74.6145 178.264 71.4724 183.761 66.1441 185.214C60.8157 186.666 55.3187 183.524 53.8661 178.196C52.4135 172.867 55.5555 167.37 60.8839 165.918C66.2122 164.465 71.7093 167.607 73.1619 172.936Z" stroke="#022937" stroke-width="5" stroke-linecap="round" stroke-linejoin="round"/>
<path opacity="0.7" d="M227.97 324.788L222.451 323.251M222.451 323.251L216.932 321.715M222.451 323.251L223.987 317.733M222.451 323.251L220.915 328.77M209.877 325.698L197 322.113C198.98 315.001 206.35 310.841 213.462 312.82C214.74 313.176 215.923 313.706 216.993 314.378M224.405 301.991C223.274 306.055 219.062 308.433 214.998 307.302C210.934 306.17 208.557 301.959 209.688 297.895C210.819 293.831 215.031 291.453 219.095 292.585C223.159 293.716 225.536 297.928 224.405 301.991Z" stroke="#022937" stroke-width="5" stroke-linecap="round" stroke-linejoin="round"/>
<path d="M32.032 47.336C29.2507 47.336 27.076 46.5613 25.508 45.012C23.94 43.4627 23.156 41.2507 23.156 38.376V27.4H27.692V38.208C27.692 40.0747 28.0747 41.4187 28.84 42.24C29.6053 43.0613 30.6787 43.472 32.06 43.472C33.4413 43.472 34.5147 43.0613 35.28 42.24C36.0453 41.4187 36.428 40.0747 36.428 38.208V27.4H40.908V38.376C40.908 41.2507 40.124 43.4627 38.556 45.012C36.988 46.5613 34.8133 47.336 32.032 47.336ZM54.8544 47.336C53.3051 47.336 51.8771 47.0933 50.5704 46.608C49.2824 46.104 48.1531 45.3947 47.1824 44.48C46.2304 43.5653 45.4837 42.492 44.9424 41.26C44.4197 40.028 44.1584 38.6747 44.1584 37.2C44.1584 35.7253 44.4197 34.372 44.9424 33.14C45.4837 31.908 46.2397 30.8347 47.2104 29.92C48.1811 29.0053 49.3197 28.3053 50.6264 27.82C51.9331 27.316 53.3704 27.064 54.9384 27.064C56.6744 27.064 58.2331 27.3533 59.6144 27.932C61.0144 28.5107 62.1904 29.3507 63.1424 30.452L60.2304 33.14C59.5211 32.3933 58.7464 31.8427 57.9064 31.488C57.0664 31.1147 56.1517 30.928 55.1624 30.928C54.2104 30.928 53.3424 31.0773 52.5584 31.376C51.7744 31.6747 51.0931 32.104 50.5144 32.664C49.9544 33.224 49.5157 33.8867 49.1984 34.652C48.8997 35.4173 48.7504 36.2667 48.7504 37.2C48.7504 38.1147 48.8997 38.9547 49.1984 39.72C49.5157 40.4853 49.9544 41.1573 50.5144 41.736C51.0931 42.296 51.7651 42.7253 52.5304 43.024C53.3144 43.3227 54.1731 43.472 55.1064 43.472C56.0024 43.472 56.8704 43.332 57.7104 43.052C58.5691 42.7533 59.3997 42.2587 60.2024 41.568L62.7784 44.844C61.7144 45.6467 60.4731 46.2627 59.0544 46.692C57.6544 47.1213 56.2544 47.336 54.8544 47.336ZM58.6344 44.256V36.892H62.7784V44.844L58.6344 44.256ZM76.372 47.336C74.86 47.336 73.4506 47.0933 72.144 46.608C70.856 46.104 69.736 45.3947 68.784 44.48C67.832 43.5653 67.0853 42.492 66.544 41.26C66.0213 40.028 65.76 38.6747 65.76 37.2C65.76 35.7253 66.0213 34.372 66.544 33.14C67.0853 31.908 67.832 30.8347 68.784 29.92C69.7546 29.0053 70.884 28.3053 72.172 27.82C73.46 27.316 74.8693 27.064 76.4 27.064C78.0986 27.064 79.6293 27.3627 80.992 27.96C82.3733 28.5387 83.5306 29.3973 84.464 30.536L81.552 33.224C80.88 32.4587 80.1333 31.8893 79.312 31.516C78.4906 31.124 77.5946 30.928 76.624 30.928C75.7093 30.928 74.8693 31.0773 74.104 31.376C73.3386 31.6747 72.676 32.104 72.116 32.664C71.556 33.224 71.1173 33.8867 70.8 34.652C70.5013 35.4173 70.352 36.2667 70.352 37.2C70.352 38.1333 70.5013 38.9827 70.8 39.748C71.1173 40.5133 71.556 41.176 72.116 41.736C72.676 42.296 73.3386 42.7253 74.104 43.024C74.8693 43.3227 75.7093 43.472 76.624 43.472C77.5946 43.472 78.4906 43.2853 79.312 42.912C80.1333 42.52 80.88 41.932 81.552 41.148L84.464 43.836C83.5306 44.9747 82.3733 45.8427 80.992 46.44C79.6293 47.0373 78.0893 47.336 76.372 47.336ZM92.8808 47L101.617 27.4H106.097L114.861 47H110.101L102.933 29.696H104.725L97.5288 47H92.8808ZM97.2488 42.8L98.4528 39.356H108.533L109.765 42.8H97.2488ZM122.918 47.224C121.499 47.224 120.22 46.9067 119.082 46.272C117.943 45.6187 117.038 44.7133 116.366 43.556C115.712 42.3987 115.386 41.036 115.386 39.468C115.386 37.8813 115.712 36.5093 116.366 35.352C117.038 34.1947 117.943 33.2987 119.082 32.664C120.22 32.0293 121.499 31.712 122.918 31.712C124.187 31.712 125.298 31.992 126.25 32.552C127.202 33.112 127.939 33.9613 128.462 35.1C128.984 36.2387 129.246 37.6947 129.246 39.468C129.246 41.2227 128.994 42.6787 128.49 43.836C127.986 44.9747 127.258 45.824 126.306 46.384C125.372 46.944 124.243 47.224 122.918 47.224ZM123.674 43.64C124.383 43.64 125.027 43.472 125.606 43.136C126.184 42.8 126.642 42.324 126.978 41.708C127.332 41.0733 127.51 40.3267 127.51 39.468C127.51 38.5907 127.332 37.844 126.978 37.228C126.642 36.612 126.184 36.136 125.606 35.8C125.027 35.464 124.383 35.296 123.674 35.296C122.946 35.296 122.292 35.464 121.714 35.8C121.135 36.136 120.668 36.612 120.314 37.228C119.978 37.844 119.81 38.5907 119.81 39.468C119.81 40.3267 119.978 41.0733 120.314 41.708C120.668 42.324 121.135 42.8 121.714 43.136C122.292 43.472 122.946 43.64 123.674 43.64ZM127.622 47V43.92L127.706 39.44L127.426 34.988V26.224H131.794V47H127.622ZM140.904 47.224C139.616 47.224 138.375 47.0747 137.18 46.776C136.004 46.4587 135.071 46.0667 134.38 45.6L135.836 42.464C136.527 42.8933 137.339 43.248 138.272 43.528C139.224 43.7893 140.158 43.92 141.072 43.92C142.08 43.92 142.79 43.7987 143.2 43.556C143.63 43.3133 143.844 42.9773 143.844 42.548C143.844 42.1933 143.676 41.932 143.34 41.764C143.023 41.5773 142.594 41.4373 142.052 41.344C141.511 41.2507 140.914 41.1573 140.26 41.064C139.626 40.9707 138.982 40.8493 138.328 40.7C137.675 40.532 137.078 40.2893 136.536 39.972C135.995 39.6547 135.556 39.2253 135.22 38.684C134.903 38.1427 134.744 37.4427 134.744 36.584C134.744 35.632 135.015 34.792 135.556 34.064C136.116 33.336 136.919 32.7667 137.964 32.356C139.01 31.9267 140.26 31.712 141.716 31.712C142.743 31.712 143.788 31.824 144.852 32.048C145.916 32.272 146.803 32.5987 147.512 33.028L146.056 36.136C145.328 35.7067 144.591 35.4173 143.844 35.268C143.116 35.1 142.407 35.016 141.716 35.016C140.746 35.016 140.036 35.1467 139.588 35.408C139.14 35.6693 138.916 36.0053 138.916 36.416C138.916 36.7893 139.075 37.0693 139.392 37.256C139.728 37.4427 140.167 37.592 140.708 37.704C141.25 37.816 141.838 37.9187 142.472 38.012C143.126 38.0867 143.779 38.208 144.432 38.376C145.086 38.544 145.674 38.7867 146.196 39.104C146.738 39.4027 147.176 39.8227 147.512 40.364C147.848 40.8867 148.016 41.5773 148.016 42.436C148.016 43.3693 147.736 44.2 147.176 44.928C146.616 45.6373 145.804 46.1973 144.74 46.608C143.695 47.0187 142.416 47.224 140.904 47.224ZM158.949 47V27.4H167.433C169.188 27.4 170.7 27.6893 171.969 28.268C173.238 28.828 174.218 29.64 174.909 30.704C175.6 31.768 175.945 33.0373 175.945 34.512C175.945 35.968 175.6 37.228 174.909 38.292C174.218 39.356 173.238 40.1773 171.969 40.756C170.7 41.316 169.188 41.596 167.433 41.596H161.469L163.485 39.552V47H158.949ZM163.485 40.056L161.469 37.9H167.181C168.581 37.9 169.626 37.6013 170.317 37.004C171.008 36.4067 171.353 35.576 171.353 34.512C171.353 33.4293 171.008 32.5893 170.317 31.992C169.626 31.3947 168.581 31.096 167.181 31.096H161.469L163.485 28.94V40.056ZM178.848 47V31.936H183.02V36.192L182.432 34.96C182.88 33.896 183.599 33.0933 184.588 32.552C185.577 31.992 186.781 31.712 188.2 31.712V35.744C188.013 35.7253 187.845 35.716 187.696 35.716C187.547 35.6973 187.388 35.688 187.22 35.688C186.025 35.688 185.055 36.0333 184.308 36.724C183.58 37.396 183.216 38.4507 183.216 39.888V47H178.848ZM197.856 47.224C196.251 47.224 194.823 46.888 193.572 46.216C192.34 45.544 191.36 44.6293 190.632 43.472C189.923 42.296 189.568 40.9613 189.568 39.468C189.568 37.956 189.923 36.6213 190.632 35.464C191.36 34.288 192.34 33.3733 193.572 32.72C194.823 32.048 196.251 31.712 197.856 31.712C199.443 31.712 200.861 32.048 202.112 32.72C203.363 33.3733 204.343 34.2787 205.052 35.436C205.761 36.5933 206.116 37.9373 206.116 39.468C206.116 40.9613 205.761 42.296 205.052 43.472C204.343 44.6293 203.363 45.544 202.112 46.216C200.861 46.888 199.443 47.224 197.856 47.224ZM197.856 43.64C198.584 43.64 199.237 43.472 199.816 43.136C200.395 42.8 200.852 42.324 201.188 41.708C201.524 41.0733 201.692 40.3267 201.692 39.468C201.692 38.5907 201.524 37.844 201.188 37.228C200.852 36.612 200.395 36.136 199.816 35.8C199.237 35.464 198.584 35.296 197.856 35.296C197.128 35.296 196.475 35.464 195.896 35.8C195.317 36.136 194.851 36.612 194.496 37.228C194.16 37.844 193.992 38.5907 193.992 39.468C193.992 40.3267 194.16 41.0733 194.496 41.708C194.851 42.324 195.317 42.8 195.896 43.136C196.475 43.472 197.128 43.64 197.856 43.64ZM215.504 47.224C214.085 47.224 212.806 46.9067 211.668 46.272C210.529 45.6187 209.624 44.7133 208.952 43.556C208.298 42.3987 207.972 41.036 207.972 39.468C207.972 37.8813 208.298 36.5093 208.952 35.352C209.624 34.1947 210.529 33.2987 211.668 32.664C212.806 32.0293 214.085 31.712 215.504 31.712C216.773 31.712 217.884 31.992 218.836 32.552C219.788 33.112 220.525 33.9613 221.048 35.1C221.57 36.2387 221.832 37.6947 221.832 39.468C221.832 41.2227 221.58 42.6787 221.076 43.836C220.572 44.9747 219.844 45.824 218.892 46.384C217.958 46.944 216.829 47.224 215.504 47.224ZM216.26 43.64C216.969 43.64 217.613 43.472 218.192 43.136C218.77 42.8 219.228 42.324 219.564 41.708C219.918 41.0733 220.096 40.3267 220.096 39.468C220.096 38.5907 219.918 37.844 219.564 37.228C219.228 36.612 218.77 36.136 218.192 35.8C217.613 35.464 216.969 35.296 216.26 35.296C215.532 35.296 214.878 35.464 214.3 35.8C213.721 36.136 213.254 36.612 212.9 37.228C212.564 37.844 212.396 38.5907 212.396 39.468C212.396 40.3267 212.564 41.0733 212.9 41.708C213.254 42.324 213.721 42.8 214.3 43.136C214.878 43.472 215.532 43.64 216.26 43.64ZM220.208 47V43.92L220.292 39.44L220.012 34.988V26.224H224.38V47H220.208ZM234.778 47.224C233.528 47.224 232.408 46.9813 231.418 46.496C230.448 46.0107 229.692 45.2733 229.15 44.284C228.609 43.276 228.338 41.9973 228.338 40.448V31.936H232.706V39.804C232.706 41.0547 232.968 41.9787 233.49 42.576C234.032 43.1547 234.788 43.444 235.758 43.444C236.43 43.444 237.028 43.304 237.55 43.024C238.073 42.7253 238.484 42.2773 238.782 41.68C239.081 41.064 239.23 40.2987 239.23 39.384V31.936H243.598V47H239.454V42.856L240.21 44.06C239.706 45.1053 238.96 45.8987 237.97 46.44C237 46.9627 235.936 47.224 234.778 47.224ZM254.925 47.224C253.301 47.224 251.854 46.8973 250.585 46.244C249.316 45.572 248.317 44.648 247.589 43.472C246.88 42.296 246.525 40.9613 246.525 39.468C246.525 37.956 246.88 36.6213 247.589 35.464C248.317 34.288 249.316 33.3733 250.585 32.72C251.854 32.048 253.301 31.712 254.925 31.712C256.512 31.712 257.893 32.048 259.069 32.72C260.245 33.3733 261.113 34.316 261.673 35.548L258.285 37.368C257.893 36.6587 257.398 36.136 256.801 35.8C256.222 35.464 255.588 35.296 254.897 35.296C254.15 35.296 253.478 35.464 252.881 35.8C252.284 36.136 251.808 36.612 251.453 37.228C251.117 37.844 250.949 38.5907 250.949 39.468C250.949 40.3453 251.117 41.092 251.453 41.708C251.808 42.324 252.284 42.8 252.881 43.136C253.478 43.472 254.15 43.64 254.897 43.64C255.588 43.64 256.222 43.4813 256.801 43.164C257.398 42.828 257.893 42.296 258.285 41.568L261.673 43.416C261.113 44.6293 260.245 45.572 259.069 46.244C257.893 46.8973 256.512 47.224 254.925 47.224ZM270.567 47.224C268.793 47.224 267.412 46.776 266.423 45.88C265.433 44.9653 264.939 43.612 264.939 41.82V28.604H269.307V41.764C269.307 42.3987 269.475 42.8933 269.811 43.248C270.147 43.584 270.604 43.752 271.183 43.752C271.873 43.752 272.461 43.5653 272.947 43.192L274.123 46.272C273.675 46.5893 273.133 46.832 272.499 47C271.883 47.1493 271.239 47.224 270.567 47.224ZM262.615 35.632V32.272H273.059V35.632H262.615ZM276.575 47V31.936H280.943V47H276.575ZM278.759 29.836C277.956 29.836 277.303 29.6027 276.799 29.136C276.295 28.6693 276.043 28.0907 276.043 27.4C276.043 26.7093 276.295 26.1307 276.799 25.664C277.303 25.1973 277.956 24.964 278.759 24.964C279.561 24.964 280.215 25.188 280.719 25.636C281.223 26.0653 281.475 26.6253 281.475 27.316C281.475 28.044 281.223 28.6507 280.719 29.136C280.233 29.6027 279.58 29.836 278.759 29.836ZM292.164 47.224C290.559 47.224 289.131 46.888 287.88 46.216C286.648 45.544 285.668 44.6293 284.94 43.472C284.231 42.296 283.876 40.9613 283.876 39.468C283.876 37.956 284.231 36.6213 284.94 35.464C285.668 34.288 286.648 33.3733 287.88 32.72C289.131 32.048 290.559 31.712 292.164 31.712C293.751 31.712 295.17 32.048 296.42 32.72C297.671 33.3733 298.651 34.2787 299.36 35.436C300.07 36.5933 300.424 37.9373 300.424 39.468C300.424 40.9613 300.07 42.296 299.36 43.472C298.651 44.6293 297.671 45.544 296.42 46.216C295.17 46.888 293.751 47.224 292.164 47.224ZM292.164 43.64C292.892 43.64 293.546 43.472 294.124 43.136C294.703 42.8 295.16 42.324 295.496 41.708C295.832 41.0733 296 40.3267 296 39.468C296 38.5907 295.832 37.844 295.496 37.228C295.16 36.612 294.703 36.136 294.124 35.8C293.546 35.464 292.892 35.296 292.164 35.296C291.436 35.296 290.783 35.464 290.204 35.8C289.626 36.136 289.159 36.612 288.804 37.228C288.468 37.844 288.3 38.5907 288.3 39.468C288.3 40.3267 288.468 41.0733 288.804 41.708C289.159 42.324 289.626 42.8 290.204 43.136C290.783 43.472 291.436 43.64 292.164 43.64ZM312.5 31.712C313.695 31.712 314.759 31.9547 315.692 32.44C316.644 32.9067 317.391 33.6347 317.932 34.624C318.473 35.5947 318.744 36.8453 318.744 38.376V47H314.376V39.048C314.376 37.8347 314.105 36.9387 313.564 36.36C313.041 35.7813 312.295 35.492 311.324 35.492C310.633 35.492 310.008 35.6413 309.448 35.94C308.907 36.22 308.477 36.6587 308.16 37.256C307.861 37.8533 307.712 38.6187 307.712 39.552V47H303.344V31.936H307.516V36.108L306.732 34.848C307.273 33.84 308.048 33.0653 309.056 32.524C310.064 31.9827 311.212 31.712 312.5 31.712Z" fill="#080910"/>
</svg>
