<svg width="416" height="88" viewBox="0 0 416 88" fill="none" xmlns="http://www.w3.org/2000/svg">
<path d="M19.8858 79.562C19.8858 80.69 19.4718 81.596 18.6438 82.28C17.8038 82.952 16.7838 83.288 15.5838 83.288C14.5158 83.288 13.5738 82.976 12.7578 82.352C11.9418 81.728 11.3778 80.876 11.0658 79.796L12.6498 79.148C12.7578 79.532 12.9078 79.88 13.0998 80.192C13.2918 80.504 13.5138 80.774 13.7658 81.002C14.0298 81.218 14.3178 81.392 14.6298 81.524C14.9418 81.644 15.2718 81.704 15.6198 81.704C16.3758 81.704 16.9938 81.512 17.4738 81.128C17.9538 80.732 18.1938 80.21 18.1938 79.562C18.1938 79.022 17.9958 78.56 17.5998 78.176C17.2278 77.804 16.5318 77.444 15.5118 77.096C14.4798 76.724 13.8378 76.472 13.5858 76.34C12.2178 75.644 11.5338 74.618 11.5338 73.262C11.5338 72.314 11.9118 71.504 12.6678 70.832C13.4358 70.16 14.3778 69.824 15.4938 69.824C16.4778 69.824 17.3298 70.076 18.0498 70.58C18.7698 71.072 19.2498 71.69 19.4898 72.434L17.9418 73.082C17.7978 72.602 17.5098 72.206 17.0778 71.894C16.6578 71.57 16.1418 71.408 15.5298 71.408C14.8818 71.408 14.3358 71.588 13.8918 71.948C13.4478 72.284 13.2258 72.722 13.2258 73.262C13.2258 73.706 13.3998 74.09 13.7478 74.414C14.1318 74.738 14.9658 75.122 16.2498 75.566C17.5578 76.01 18.4878 76.556 19.0398 77.204C19.6038 77.84 19.8858 78.626 19.8858 79.562ZM29.0673 83H27.4833V81.776H27.4113C27.1593 82.208 26.7693 82.568 26.2413 82.856C25.7253 83.144 25.1853 83.288 24.6213 83.288C23.5413 83.288 22.7073 82.982 22.1193 82.37C21.5433 81.746 21.2553 80.864 21.2553 79.724V74.18H22.9113V79.616C22.9473 81.056 23.6733 81.776 25.0893 81.776C25.7493 81.776 26.3013 81.512 26.7453 80.984C27.1893 80.444 27.4113 79.802 27.4113 79.058V74.18H29.0673V83ZM35.7452 83.288C35.0972 83.288 34.5032 83.15 33.9632 82.874C33.4352 82.598 33.0272 82.232 32.7392 81.776H32.6672V83H31.0832V70.112H32.7392V74.18L32.6672 75.404H32.7392C33.0272 74.948 33.4352 74.582 33.9632 74.306C34.5032 74.03 35.0972 73.892 35.7452 73.892C36.9092 73.892 37.8932 74.348 38.6972 75.26C39.5252 76.184 39.9392 77.294 39.9392 78.59C39.9392 79.898 39.5252 81.008 38.6972 81.92C37.8932 82.832 36.9092 83.288 35.7452 83.288ZM35.4752 81.776C36.2672 81.776 36.9332 81.476 37.4732 80.876C38.0132 80.288 38.2832 79.526 38.2832 78.59C38.2832 77.666 38.0132 76.904 37.4732 76.304C36.9332 75.704 36.2672 75.404 35.4752 75.404C34.6712 75.404 33.9992 75.704 33.4592 76.304C32.9312 76.904 32.6672 77.666 32.6672 78.59C32.6672 79.526 32.9312 80.294 33.4592 80.894C33.9992 81.482 34.6712 81.776 35.4752 81.776ZM43.0224 83H41.3664V74.18H42.9504V75.404H43.0224C43.2744 74.972 43.6584 74.612 44.1744 74.324C44.7024 74.036 45.2244 73.892 45.7404 73.892C46.3884 73.892 46.9584 74.042 47.4504 74.342C47.9424 74.642 48.3024 75.056 48.5304 75.584C49.2624 74.456 50.2764 73.892 51.5724 73.892C52.5924 73.892 53.3784 74.204 53.9304 74.828C54.4824 75.452 54.7584 76.34 54.7584 77.492V83H53.1024V77.744C53.1024 76.916 52.9524 76.322 52.6524 75.962C52.3524 75.59 51.8484 75.404 51.1404 75.404C50.5044 75.404 49.9704 75.674 49.5384 76.214C49.1064 76.754 48.8904 77.39 48.8904 78.122V83H47.2344V77.744C47.2344 76.916 47.0844 76.322 46.7844 75.962C46.4844 75.59 45.9804 75.404 45.2724 75.404C44.6364 75.404 44.1024 75.674 43.6704 76.214C43.2384 76.754 43.0224 77.39 43.0224 78.122V83ZM58.8365 71.138C58.8365 71.462 58.7225 71.738 58.4945 71.966C58.2665 72.194 57.9905 72.308 57.6665 72.308C57.3425 72.308 57.0665 72.194 56.8385 71.966C56.6105 71.738 56.4965 71.462 56.4965 71.138C56.4965 70.814 56.6105 70.538 56.8385 70.31C57.0665 70.082 57.3425 69.968 57.6665 69.968C57.9905 69.968 58.2665 70.082 58.4945 70.31C58.7225 70.538 58.8365 70.814 58.8365 71.138ZM58.4945 74.18V83H56.8385V74.18H58.4945ZM64.0537 83.144C63.3337 83.144 62.7337 82.922 62.2537 82.478C61.7857 82.034 61.5457 81.416 61.5337 80.624V75.692H59.9857V74.18H61.5337V71.48H63.1897V74.18H65.3497V75.692H63.1897V80.084C63.1897 80.672 63.3037 81.074 63.5317 81.29C63.7597 81.494 64.0177 81.596 64.3057 81.596C64.4377 81.596 64.5637 81.584 64.6837 81.56C64.8157 81.524 64.9357 81.482 65.0437 81.434L65.5657 82.91C65.1337 83.066 64.6297 83.144 64.0537 83.144ZM74.3721 83.144C73.6521 83.144 73.0521 82.922 72.5721 82.478C72.1041 82.034 71.8641 81.416 71.8521 80.624V75.692H70.3041V74.18H71.8521V71.48H73.5081V74.18H75.6681V75.692H73.5081V80.084C73.5081 80.672 73.6221 81.074 73.8501 81.29C74.0781 81.494 74.3361 81.596 74.6241 81.596C74.7561 81.596 74.8821 81.584 75.0021 81.56C75.1341 81.524 75.2541 81.482 75.3621 81.434L75.8841 82.91C75.4521 83.066 74.9481 83.144 74.3721 83.144ZM77.3312 70.112H78.9872V74.18L78.9152 75.404H78.9872C79.2392 74.972 79.6232 74.612 80.1392 74.324C80.6672 74.036 81.2132 73.892 81.7772 73.892C82.8572 73.892 83.6852 74.204 84.2612 74.828C84.8492 75.44 85.1432 76.316 85.1432 77.456V83H83.4872V77.78C83.4872 76.196 82.7852 75.404 81.3812 75.404C80.7092 75.404 80.1392 75.686 79.6712 76.25C79.2152 76.802 78.9872 77.45 78.9872 78.194V83H77.3312V70.112ZM91.0471 83.288C89.7511 83.288 88.6831 82.844 87.8431 81.956C87.0031 81.068 86.5831 79.946 86.5831 78.59C86.5831 77.246 86.9911 76.13 87.8071 75.242C88.6231 74.342 89.6671 73.892 90.9391 73.892C92.2471 73.892 93.2851 74.318 94.0531 75.17C94.8331 76.01 95.2231 77.192 95.2231 78.716L95.2051 78.896H88.2751C88.2991 79.76 88.5871 80.456 89.1391 80.984C89.6911 81.512 90.3511 81.776 91.1191 81.776C92.1751 81.776 93.0031 81.248 93.6031 80.192L95.0791 80.912C94.6831 81.656 94.1311 82.238 93.4231 82.658C92.7271 83.078 91.9351 83.288 91.0471 83.288ZM88.4011 77.528H93.4591C93.4111 76.916 93.1591 76.412 92.7031 76.016C92.2591 75.608 91.6591 75.404 90.9031 75.404C90.2791 75.404 89.7391 75.596 89.2831 75.98C88.8391 76.364 88.5451 76.88 88.4011 77.528ZM104.409 69.968C105.009 69.968 105.501 70.07 105.885 70.274L105.435 71.732C105.147 71.588 104.823 71.516 104.463 71.516C104.055 71.516 103.719 71.66 103.455 71.948C103.203 72.224 103.077 72.596 103.077 73.064V74.18H105.381V75.692H103.077V83H101.421V75.692H99.765V74.18H101.421V72.902C101.421 72.026 101.697 71.318 102.249 70.778C102.813 70.238 103.533 69.968 104.409 69.968ZM105.919 78.59C105.919 77.234 106.345 76.112 107.197 75.224C108.061 74.336 109.147 73.892 110.455 73.892C111.763 73.892 112.843 74.336 113.695 75.224C114.559 76.112 114.991 77.234 114.991 78.59C114.991 79.958 114.559 81.08 113.695 81.956C112.843 82.844 111.763 83.288 110.455 83.288C109.147 83.288 108.061 82.844 107.197 81.956C106.345 81.068 105.919 79.946 105.919 78.59ZM107.575 78.59C107.575 79.538 107.851 80.306 108.403 80.894C108.955 81.482 109.639 81.776 110.455 81.776C111.271 81.776 111.955 81.482 112.507 80.894C113.059 80.306 113.335 79.538 113.335 78.59C113.335 77.654 113.059 76.892 112.507 76.304C111.943 75.704 111.259 75.404 110.455 75.404C109.651 75.404 108.967 75.704 108.403 76.304C107.851 76.892 107.575 77.654 107.575 78.59ZM117.976 83H116.32V74.18H117.904V75.62H117.976C118.144 75.152 118.486 74.756 119.002 74.432C119.53 74.096 120.046 73.928 120.55 73.928C121.03 73.928 121.438 74 121.774 74.144L121.27 75.746C121.066 75.662 120.742 75.62 120.298 75.62C119.674 75.62 119.128 75.872 118.66 76.376C118.204 76.88 117.976 77.468 117.976 78.14V83ZM124.515 83H122.859V74.18H124.443V75.404H124.515C124.767 74.972 125.151 74.612 125.667 74.324C126.195 74.036 126.717 73.892 127.233 73.892C127.881 73.892 128.451 74.042 128.943 74.342C129.435 74.642 129.795 75.056 130.023 75.584C130.755 74.456 131.769 73.892 133.065 73.892C134.085 73.892 134.871 74.204 135.423 74.828C135.975 75.452 136.251 76.34 136.251 77.492V83H134.595V77.744C134.595 76.916 134.445 76.322 134.145 75.962C133.845 75.59 133.341 75.404 132.633 75.404C131.997 75.404 131.463 75.674 131.031 76.214C130.599 76.754 130.383 77.39 130.383 78.122V83H128.727V77.744C128.727 76.916 128.577 76.322 128.277 75.962C127.977 75.59 127.473 75.404 126.765 75.404C126.129 75.404 125.595 75.674 125.163 76.214C124.731 76.754 124.515 77.39 124.515 78.122V83ZM141.638 78.59C141.638 77.234 142.064 76.112 142.916 75.224C143.78 74.336 144.866 73.892 146.174 73.892C147.482 73.892 148.562 74.336 149.414 75.224C150.278 76.112 150.71 77.234 150.71 78.59C150.71 79.958 150.278 81.08 149.414 81.956C148.562 82.844 147.482 83.288 146.174 83.288C144.866 83.288 143.78 82.844 142.916 81.956C142.064 81.068 141.638 79.946 141.638 78.59ZM143.294 78.59C143.294 79.538 143.57 80.306 144.122 80.894C144.674 81.482 145.358 81.776 146.174 81.776C146.99 81.776 147.674 81.482 148.226 80.894C148.778 80.306 149.054 79.538 149.054 78.59C149.054 77.654 148.778 76.892 148.226 76.304C147.662 75.704 146.978 75.404 146.174 75.404C145.37 75.404 144.686 75.704 144.122 76.304C143.57 76.892 143.294 77.654 143.294 78.59ZM159.866 83H158.282V81.776H158.21C157.958 82.208 157.568 82.568 157.04 82.856C156.524 83.144 155.984 83.288 155.42 83.288C154.34 83.288 153.506 82.982 152.918 82.37C152.342 81.746 152.054 80.864 152.054 79.724V74.18H153.71V79.616C153.746 81.056 154.472 81.776 155.888 81.776C156.548 81.776 157.1 81.512 157.544 80.984C157.988 80.444 158.21 79.802 158.21 79.058V74.18H159.866V83ZM163.538 83H161.882V74.18H163.466V75.62H163.538C163.706 75.152 164.048 74.756 164.564 74.432C165.092 74.096 165.608 73.928 166.112 73.928C166.592 73.928 167 74 167.336 74.144L166.832 75.746C166.628 75.662 166.304 75.62 165.86 75.62C165.236 75.62 164.69 75.872 164.222 76.376C163.766 76.88 163.538 77.468 163.538 78.14V83ZM175.868 83.144C175.148 83.144 174.548 82.922 174.068 82.478C173.6 82.034 173.36 81.416 173.348 80.624V75.692H171.8V74.18H173.348V71.48H175.004V74.18H177.164V75.692H175.004V80.084C175.004 80.672 175.118 81.074 175.346 81.29C175.574 81.494 175.832 81.596 176.12 81.596C176.252 81.596 176.378 81.584 176.498 81.56C176.63 81.524 176.75 81.482 176.858 81.434L177.38 82.91C176.948 83.066 176.444 83.144 175.868 83.144ZM182.612 83.288C181.316 83.288 180.248 82.844 179.408 81.956C178.568 81.068 178.148 79.946 178.148 78.59C178.148 77.246 178.556 76.13 179.372 75.242C180.188 74.342 181.232 73.892 182.504 73.892C183.812 73.892 184.85 74.318 185.618 75.17C186.398 76.01 186.788 77.192 186.788 78.716L186.77 78.896H179.84C179.864 79.76 180.152 80.456 180.704 80.984C181.256 81.512 181.916 81.776 182.684 81.776C183.74 81.776 184.568 81.248 185.168 80.192L186.644 80.912C186.248 81.656 185.696 82.238 184.988 82.658C184.292 83.078 183.5 83.288 182.612 83.288ZM179.966 77.528H185.024C184.976 76.916 184.724 76.412 184.268 76.016C183.824 75.608 183.224 75.404 182.468 75.404C181.844 75.404 181.304 75.596 180.848 75.98C180.404 76.364 180.11 76.88 179.966 77.528ZM189.596 80.3C189.596 80.732 189.776 81.092 190.136 81.38C190.508 81.668 190.94 81.812 191.432 81.812C192.128 81.812 192.746 81.554 193.286 81.038C193.838 80.522 194.114 79.916 194.114 79.22C193.598 78.812 192.878 78.608 191.954 78.608C191.282 78.608 190.718 78.77 190.262 79.094C189.818 79.418 189.596 79.82 189.596 80.3ZM191.738 73.892C192.962 73.892 193.928 74.222 194.636 74.882C195.344 75.53 195.698 76.424 195.698 77.564V83H194.114V81.776H194.042C193.358 82.784 192.446 83.288 191.306 83.288C190.334 83.288 189.518 83 188.858 82.424C188.21 81.848 187.886 81.128 187.886 80.264C187.886 79.352 188.228 78.626 188.912 78.086C189.608 77.546 190.532 77.276 191.684 77.276C192.668 77.276 193.478 77.456 194.114 77.816V77.438C194.114 76.862 193.886 76.376 193.43 75.98C192.974 75.572 192.44 75.368 191.828 75.368C190.904 75.368 190.172 75.758 189.632 76.538L188.174 75.62C188.978 74.468 190.166 73.892 191.738 73.892ZM199.222 83H197.566V74.18H199.15V75.404H199.222C199.474 74.972 199.858 74.612 200.374 74.324C200.902 74.036 201.424 73.892 201.94 73.892C202.588 73.892 203.158 74.042 203.65 74.342C204.142 74.642 204.502 75.056 204.73 75.584C205.462 74.456 206.476 73.892 207.772 73.892C208.792 73.892 209.578 74.204 210.13 74.828C210.682 75.452 210.958 76.34 210.958 77.492V83H209.302V77.744C209.302 76.916 209.152 76.322 208.852 75.962C208.552 75.59 208.048 75.404 207.34 75.404C206.704 75.404 206.17 75.674 205.738 76.214C205.306 76.754 205.09 77.39 205.09 78.122V83H203.434V77.744C203.434 76.916 203.284 76.322 202.984 75.962C202.684 75.59 202.18 75.404 201.472 75.404C200.836 75.404 200.302 75.674 199.87 76.214C199.438 76.754 199.222 77.39 199.222 78.122V83ZM229.341 74.18L226.497 83H224.805L222.609 76.232L220.431 83H218.757L215.913 74.18H217.641L219.603 80.84H219.621L221.799 74.18H223.509L225.687 80.84H225.705L227.649 74.18H229.341ZM232.561 71.138C232.561 71.462 232.447 71.738 232.219 71.966C231.991 72.194 231.715 72.308 231.391 72.308C231.067 72.308 230.791 72.194 230.563 71.966C230.335 71.738 230.221 71.462 230.221 71.138C230.221 70.814 230.335 70.538 230.563 70.31C230.791 70.082 231.067 69.968 231.391 69.968C231.715 69.968 231.991 70.082 232.219 70.31C232.447 70.538 232.561 70.814 232.561 71.138ZM232.219 74.18V83H230.563V74.18H232.219ZM236.03 70.112V83H234.374V70.112H236.03ZM239.704 70.112V83H238.048V70.112H239.704ZM247.333 83H245.677V74.18H247.261V75.62H247.333C247.501 75.152 247.843 74.756 248.359 74.432C248.887 74.096 249.403 73.928 249.907 73.928C250.387 73.928 250.795 74 251.131 74.144L250.627 75.746C250.423 75.662 250.099 75.62 249.655 75.62C249.031 75.62 248.485 75.872 248.017 76.376C247.561 76.88 247.333 77.468 247.333 78.14V83ZM255.631 83.288C254.335 83.288 253.267 82.844 252.427 81.956C251.587 81.068 251.167 79.946 251.167 78.59C251.167 77.246 251.575 76.13 252.391 75.242C253.207 74.342 254.251 73.892 255.523 73.892C256.831 73.892 257.869 74.318 258.637 75.17C259.417 76.01 259.807 77.192 259.807 78.716L259.789 78.896H252.859C252.883 79.76 253.171 80.456 253.723 80.984C254.275 81.512 254.935 81.776 255.703 81.776C256.759 81.776 257.587 81.248 258.187 80.192L259.663 80.912C259.267 81.656 258.715 82.238 258.007 82.658C257.311 83.078 256.519 83.288 255.631 83.288ZM252.985 77.528H258.043C257.995 76.916 257.743 76.412 257.287 76.016C256.843 75.608 256.243 75.404 255.487 75.404C254.863 75.404 254.323 75.596 253.867 75.98C253.423 76.364 253.129 76.88 252.985 77.528ZM262.615 80.3C262.615 80.732 262.795 81.092 263.155 81.38C263.527 81.668 263.959 81.812 264.451 81.812C265.147 81.812 265.765 81.554 266.305 81.038C266.857 80.522 267.133 79.916 267.133 79.22C266.617 78.812 265.897 78.608 264.973 78.608C264.301 78.608 263.737 78.77 263.281 79.094C262.837 79.418 262.615 79.82 262.615 80.3ZM264.757 73.892C265.981 73.892 266.947 74.222 267.655 74.882C268.363 75.53 268.717 76.424 268.717 77.564V83H267.133V81.776H267.061C266.377 82.784 265.465 83.288 264.325 83.288C263.353 83.288 262.537 83 261.877 82.424C261.229 81.848 260.905 81.128 260.905 80.264C260.905 79.352 261.247 78.626 261.931 78.086C262.627 77.546 263.551 77.276 264.703 77.276C265.687 77.276 266.497 77.456 267.133 77.816V77.438C267.133 76.862 266.905 76.376 266.449 75.98C265.993 75.572 265.459 75.368 264.847 75.368C263.923 75.368 263.191 75.758 262.651 76.538L261.193 75.62C261.997 74.468 263.185 73.892 264.757 73.892ZM274.529 83.288C273.221 83.288 272.135 82.844 271.271 81.956C270.419 81.044 269.993 79.922 269.993 78.59C269.993 77.234 270.419 76.112 271.271 75.224C272.135 74.336 273.221 73.892 274.529 73.892C275.429 73.892 276.215 74.12 276.887 74.576C277.559 75.02 278.063 75.638 278.399 76.43L276.887 77.06C276.419 75.956 275.597 75.404 274.421 75.404C273.665 75.404 273.011 75.71 272.459 76.322C271.919 76.934 271.649 77.69 271.649 78.59C271.649 79.49 271.919 80.246 272.459 80.858C273.011 81.47 273.665 81.776 274.421 81.776C275.633 81.776 276.485 81.224 276.977 80.12L278.453 80.75C278.129 81.542 277.619 82.166 276.923 82.622C276.239 83.066 275.441 83.288 274.529 83.288ZM279.902 70.112H281.558V74.18L281.486 75.404H281.558C281.81 74.972 282.194 74.612 282.71 74.324C283.238 74.036 283.784 73.892 284.348 73.892C285.428 73.892 286.256 74.204 286.832 74.828C287.42 75.44 287.714 76.316 287.714 77.456V83H286.058V77.78C286.058 76.196 285.356 75.404 283.952 75.404C283.28 75.404 282.71 75.686 282.242 76.25C281.786 76.802 281.558 77.45 281.558 78.194V83H279.902V70.112ZM293.108 78.59C293.108 77.234 293.534 76.112 294.386 75.224C295.25 74.336 296.336 73.892 297.644 73.892C298.952 73.892 300.032 74.336 300.884 75.224C301.748 76.112 302.18 77.234 302.18 78.59C302.18 79.958 301.748 81.08 300.884 81.956C300.032 82.844 298.952 83.288 297.644 83.288C296.336 83.288 295.25 82.844 294.386 81.956C293.534 81.068 293.108 79.946 293.108 78.59ZM294.764 78.59C294.764 79.538 295.04 80.306 295.592 80.894C296.144 81.482 296.828 81.776 297.644 81.776C298.46 81.776 299.144 81.482 299.696 80.894C300.248 80.306 300.524 79.538 300.524 78.59C300.524 77.654 300.248 76.892 299.696 76.304C299.132 75.704 298.448 75.404 297.644 75.404C296.84 75.404 296.156 75.704 295.592 76.304C295.04 76.892 294.764 77.654 294.764 78.59ZM311.337 83H309.753V81.776H309.681C309.429 82.208 309.039 82.568 308.511 82.856C307.995 83.144 307.455 83.288 306.891 83.288C305.811 83.288 304.977 82.982 304.389 82.37C303.813 81.746 303.525 80.864 303.525 79.724V74.18H305.181V79.616C305.217 81.056 305.943 81.776 307.359 81.776C308.019 81.776 308.571 81.512 309.015 80.984C309.459 80.444 309.681 79.802 309.681 79.058V74.18H311.337V83ZM316.933 83.144C316.213 83.144 315.613 82.922 315.133 82.478C314.665 82.034 314.425 81.416 314.413 80.624V75.692H312.865V74.18H314.413V71.48H316.069V74.18H318.229V75.692H316.069V80.084C316.069 80.672 316.183 81.074 316.411 81.29C316.639 81.494 316.897 81.596 317.185 81.596C317.317 81.596 317.443 81.584 317.563 81.56C317.695 81.524 317.815 81.482 317.923 81.434L318.445 82.91C318.013 83.066 317.509 83.144 316.933 83.144ZM327.251 83.144C326.531 83.144 325.931 82.922 325.451 82.478C324.983 82.034 324.743 81.416 324.731 80.624V75.692H323.183V74.18H324.731V71.48H326.387V74.18H328.547V75.692H326.387V80.084C326.387 80.672 326.501 81.074 326.729 81.29C326.957 81.494 327.215 81.596 327.503 81.596C327.635 81.596 327.761 81.584 327.881 81.56C328.013 81.524 328.133 81.482 328.241 81.434L328.763 82.91C328.331 83.066 327.827 83.144 327.251 83.144ZM329.53 78.59C329.53 77.234 329.956 76.112 330.808 75.224C331.672 74.336 332.758 73.892 334.066 73.892C335.374 73.892 336.454 74.336 337.306 75.224C338.17 76.112 338.602 77.234 338.602 78.59C338.602 79.958 338.17 81.08 337.306 81.956C336.454 82.844 335.374 83.288 334.066 83.288C332.758 83.288 331.672 82.844 330.808 81.956C329.956 81.068 329.53 79.946 329.53 78.59ZM331.186 78.59C331.186 79.538 331.462 80.306 332.014 80.894C332.566 81.482 333.25 81.776 334.066 81.776C334.882 81.776 335.566 81.482 336.118 80.894C336.67 80.306 336.946 79.538 336.946 78.59C336.946 77.654 336.67 76.892 336.118 76.304C335.554 75.704 334.87 75.404 334.066 75.404C333.262 75.404 332.578 75.704 332.014 76.304C331.462 76.892 331.186 77.654 331.186 78.59ZM351.946 74.18L346.42 86.888H344.71L346.762 82.442L343.126 74.18H344.926L347.554 80.516H347.59L350.146 74.18H351.946ZM352.171 78.59C352.171 77.234 352.597 76.112 353.449 75.224C354.313 74.336 355.399 73.892 356.707 73.892C358.015 73.892 359.095 74.336 359.947 75.224C360.811 76.112 361.243 77.234 361.243 78.59C361.243 79.958 360.811 81.08 359.947 81.956C359.095 82.844 358.015 83.288 356.707 83.288C355.399 83.288 354.313 82.844 353.449 81.956C352.597 81.068 352.171 79.946 352.171 78.59ZM353.827 78.59C353.827 79.538 354.103 80.306 354.655 80.894C355.207 81.482 355.891 81.776 356.707 81.776C357.523 81.776 358.207 81.482 358.759 80.894C359.311 80.306 359.587 79.538 359.587 78.59C359.587 77.654 359.311 76.892 358.759 76.304C358.195 75.704 357.511 75.404 356.707 75.404C355.903 75.404 355.219 75.704 354.655 76.304C354.103 76.892 353.827 77.654 353.827 78.59ZM370.399 83H368.815V81.776H368.743C368.491 82.208 368.101 82.568 367.573 82.856C367.057 83.144 366.517 83.288 365.953 83.288C364.873 83.288 364.039 82.982 363.451 82.37C362.875 81.746 362.587 80.864 362.587 79.724V74.18H364.243V79.616C364.279 81.056 365.005 81.776 366.421 81.776C367.081 81.776 367.633 81.512 368.077 80.984C368.521 80.444 368.743 79.802 368.743 79.058V74.18H370.399V83ZM383.12 80.552C383.12 81.32 382.784 81.968 382.112 82.496C381.44 83.024 380.594 83.288 379.574 83.288C378.686 83.288 377.906 83.06 377.234 82.604C376.562 82.136 376.082 81.524 375.794 80.768L377.27 80.138C377.486 80.666 377.798 81.08 378.206 81.38C378.626 81.668 379.082 81.812 379.574 81.812C380.102 81.812 380.54 81.698 380.888 81.47C381.248 81.242 381.428 80.972 381.428 80.66C381.428 80.096 380.996 79.682 380.132 79.418L378.62 79.04C376.904 78.608 376.046 77.78 376.046 76.556C376.046 75.752 376.37 75.11 377.018 74.63C377.678 74.138 378.518 73.892 379.538 73.892C380.318 73.892 381.02 74.078 381.644 74.45C382.28 74.822 382.724 75.32 382.976 75.944L381.5 76.556C381.332 76.184 381.056 75.896 380.672 75.692C380.3 75.476 379.88 75.368 379.412 75.368C378.98 75.368 378.59 75.476 378.242 75.692C377.906 75.908 377.738 76.172 377.738 76.484C377.738 76.988 378.212 77.348 379.16 77.564L380.492 77.906C382.244 78.338 383.12 79.22 383.12 80.552ZM384.146 78.59C384.146 77.234 384.572 76.112 385.424 75.224C386.288 74.336 387.374 73.892 388.682 73.892C389.99 73.892 391.07 74.336 391.922 75.224C392.786 76.112 393.218 77.234 393.218 78.59C393.218 79.958 392.786 81.08 391.922 81.956C391.07 82.844 389.99 83.288 388.682 83.288C387.374 83.288 386.288 82.844 385.424 81.956C384.572 81.068 384.146 79.946 384.146 78.59ZM385.802 78.59C385.802 79.538 386.078 80.306 386.63 80.894C387.182 81.482 387.866 81.776 388.682 81.776C389.498 81.776 390.182 81.482 390.734 80.894C391.286 80.306 391.562 79.538 391.562 78.59C391.562 77.654 391.286 76.892 390.734 76.304C390.17 75.704 389.486 75.404 388.682 75.404C387.878 75.404 387.194 75.704 386.63 76.304C386.078 76.892 385.802 77.654 385.802 78.59ZM394.218 78.59C394.218 77.234 394.644 76.112 395.496 75.224C396.36 74.336 397.446 73.892 398.754 73.892C400.062 73.892 401.142 74.336 401.994 75.224C402.858 76.112 403.29 77.234 403.29 78.59C403.29 79.958 402.858 81.08 401.994 81.956C401.142 82.844 400.062 83.288 398.754 83.288C397.446 83.288 396.36 82.844 395.496 81.956C394.644 81.068 394.218 79.946 394.218 78.59ZM395.874 78.59C395.874 79.538 396.15 80.306 396.702 80.894C397.254 81.482 397.938 81.776 398.754 81.776C399.57 81.776 400.254 81.482 400.806 80.894C401.358 80.306 401.634 79.538 401.634 78.59C401.634 77.654 401.358 76.892 400.806 76.304C400.242 75.704 399.558 75.404 398.754 75.404C397.95 75.404 397.266 75.704 396.702 76.304C396.15 76.892 395.874 77.654 395.874 78.59ZM404.618 74.18H406.202V75.404H406.274C406.526 74.972 406.91 74.612 407.426 74.324C407.954 74.036 408.5 73.892 409.064 73.892C410.144 73.892 410.972 74.204 411.548 74.828C412.136 75.44 412.43 76.316 412.43 77.456V83H410.774V77.564C410.738 76.124 410.012 75.404 408.596 75.404C407.936 75.404 407.384 75.674 406.94 76.214C406.496 76.742 406.274 77.378 406.274 78.122V83H404.618V74.18Z" fill="#CFCFCF"/>
<path d="M28.0653 55.05C13.4353 55.05 2.58528 44.06 2.58528 29.43C2.58528 14.87 13.2953 3.95 27.7853 3.95C42.6953 3.95 49.6953 12.07 50.6753 21.45H41.4353C40.3153 17.32 37.6553 12.77 27.8553 12.77C18.8253 12.77 11.7553 18.93 11.7553 29.5C11.7553 40 18.7553 46.23 27.8553 46.23C38.1453 46.23 40.8753 41.68 42.0653 37.55H51.3053C49.9753 48.47 42.5553 55.05 28.0653 55.05ZM58.6241 36.43C58.6241 25.16 66.5341 17.95 78.5741 17.95C90.6841 17.95 98.5941 25.65 98.5941 36.43C98.5941 47.28 90.6841 55.12 78.5741 55.12C66.5341 55.12 58.6241 47.7 58.6241 36.43ZM67.7241 36.43C67.7241 42.17 70.8741 46.86 78.5741 46.86C86.3441 46.86 89.4941 42.17 89.4941 36.43C89.4941 30.69 86.3441 26.21 78.5741 26.21C70.8041 26.21 67.7241 30.69 67.7241 36.43ZM118.118 20.82C121.058 18.51 124.138 17.95 128.688 17.95C135.828 17.95 141.358 22.01 141.358 29.99V54H132.748V36.15C132.748 29.43 130.298 26.42 125.188 26.42C119.588 26.42 114.828 29.43 114.828 36.15V54H106.288V19H114.828V19.56C114.828 22.36 113.428 25.72 112.378 28.38L113.848 29.01C114.898 26.35 115.878 22.57 118.118 20.82ZM156.986 42.24V26.49H149.986V19H156.986V5.77H165.526V19H174.626V26.49H165.526V42.24C165.526 45.18 166.856 46.02 170.146 46.02H174.276V54H165.806C159.226 54 156.986 47.84 156.986 42.24ZM209.959 50.5C207.369 53.37 203.729 55.12 199.039 55.12C188.609 55.12 181.259 46.72 181.259 36.29C181.259 25.86 188.609 17.95 199.039 17.95C203.729 17.95 207.369 19.56 209.889 22.29C211.359 23.83 211.639 26.7 212.339 28.73L213.809 28.24C213.179 26.21 211.919 23.76 211.919 21.66L211.849 19H220.459V54H211.849L211.919 51.13C211.919 49.03 213.179 46.51 213.809 44.55L212.269 44.06C211.639 46.02 211.359 48.89 209.959 50.5ZM189.869 36.29C189.869 42.17 193.719 47.14 199.529 47.14C205.269 47.14 209.119 42.03 209.329 36.29C209.329 30.13 205.899 25.93 199.529 25.93C193.719 25.93 189.869 30.34 189.869 36.29ZM229.848 36.29C229.848 24.88 237.408 17.95 248.748 17.95C260.298 17.95 266.458 25.09 267.158 31.6H257.988C257.778 30.9 255.328 26 248.538 26C242.238 26 238.388 29.92 238.318 36.22C238.318 42.45 242.378 46.93 248.818 47C255.468 47 257.988 42.1 258.198 41.33H267.368C266.248 48.19 260.298 55.05 249.098 55.12C237.548 55.05 229.848 47.7 229.848 36.29ZM281.137 42.24V26.49H274.137V19H281.137V5.77H289.677V19H298.777V26.49H289.677V42.24C289.677 45.18 291.007 46.02 294.297 46.02H298.427V54H289.957C283.377 54 281.137 47.84 281.137 42.24ZM370.79 5V36.99C370.86 48.68 361.34 55.05 349.16 55.05C336.91 55.05 327.53 48.68 327.46 36.99C327.46 22.43 327.53 5 327.53 5H336.7V34.4C336.77 40.77 342.02 46.44 349.16 46.44C356.37 46.44 361.69 40.77 361.62 34.4C361.62 24.39 361.62 5 361.62 5H370.79ZM413.917 42.66C413.917 49.45 408.597 55.12 397.187 55.12C385.147 55.12 379.477 47.98 379.477 42.1H388.087C388.087 43.92 391.517 47.07 398.097 47.07C403.417 47.07 405.167 45.18 405.167 43.22C405.167 36.36 379.757 40.91 379.757 28.31C379.757 22.85 385.007 17.95 396.067 17.95C408.457 17.95 413.147 24.04 413.147 28.94H404.537C404.537 26.7 401.247 24.95 395.577 24.95C391.727 24.95 388.367 26 388.367 28.24C388.367 33.28 413.917 28.45 413.917 42.66Z" fill="#28CBFF"/>
</svg>
