<svg width="20" height="20" viewBox="0 0 20 20" fill="none" xmlns="http://www.w3.org/2000/svg">
<path fill-rule="evenodd" clip-rule="evenodd" d="M9.85752 15.2348C12.827 15.2348 15.2343 12.8275 15.2343 9.85801C15.2343 6.88848 12.827 4.4812 9.85752 4.4812C6.88799 4.4812 4.48071 6.88848 4.48071 9.85801C4.48071 12.8275 6.88799 15.2348 9.85752 15.2348ZM9.85752 13.4426C11.8372 13.4426 13.4421 11.8377 13.4421 9.85801C13.4421 7.87832 11.8372 6.27347 9.85752 6.27347C7.87784 6.27347 6.27298 7.87832 6.27298 9.85801C6.27298 11.8377 7.87784 13.4426 9.85752 13.4426Z" fill="#F3F3F3"/>
<path d="M15.2343 3.58521C14.7393 3.58521 14.3381 3.98642 14.3381 4.48134C14.3381 4.97626 14.7393 5.37748 15.2343 5.37748C15.7292 5.37748 16.1304 4.97626 16.1304 4.48134C16.1304 3.98642 15.7292 3.58521 15.2343 3.58521Z" fill="#F3F3F3"/>
<path fill-rule="evenodd" clip-rule="evenodd" d="M0.586037 2.93579C0 4.08596 0 5.59161 0 8.6029V11.1121C0 14.1234 0 15.629 0.586037 16.7791C1.10153 17.7909 1.92407 18.6134 2.93579 19.1289C4.08596 19.715 5.59161 19.715 8.6029 19.715H11.1121C14.1234 19.715 15.629 19.715 16.7791 19.1289C17.7909 18.6134 18.6134 17.7909 19.1289 16.7791C19.715 15.629 19.715 14.1234 19.715 11.1121V8.6029C19.715 5.59161 19.715 4.08596 19.1289 2.93579C18.6134 1.92407 17.7909 1.10153 16.7791 0.586037C15.629 0 14.1234 0 11.1121 0H8.6029C5.59161 0 4.08596 0 2.93579 0.586037C1.92407 1.10153 1.10153 1.92407 0.586037 2.93579ZM11.1121 1.79227H8.6029C7.06768 1.79227 6.02405 1.79367 5.21737 1.85957C4.4316 1.92377 4.02978 2.04013 3.74947 2.18296C3.07499 2.52663 2.52663 3.07499 2.18296 3.74947C2.04013 4.02978 1.92377 4.4316 1.85957 5.21737C1.79367 6.02405 1.79227 7.06768 1.79227 8.6029V11.1121C1.79227 12.6473 1.79367 13.6909 1.85957 14.4976C1.92377 15.2834 2.04013 15.6852 2.18296 15.9655C2.52663 16.64 3.07499 17.1883 3.74947 17.532C4.02978 17.6748 4.4316 17.7912 5.21737 17.8554C6.02405 17.9213 7.06768 17.9227 8.6029 17.9227H11.1121C12.6473 17.9227 13.6909 17.9213 14.4976 17.8554C15.2834 17.7912 15.6852 17.6748 15.9655 17.532C16.64 17.1883 17.1883 16.64 17.532 15.9655C17.6748 15.6852 17.7912 15.2834 17.8554 14.4976C17.9213 13.6909 17.9227 12.6473 17.9227 11.1121V8.6029C17.9227 7.06768 17.9213 6.02405 17.8554 5.21737C17.7912 4.4316 17.6748 4.02978 17.532 3.74947C17.1883 3.07499 16.64 2.52663 15.9655 2.18296C15.6852 2.04013 15.2834 1.92377 14.4976 1.85957C13.6909 1.79367 12.6473 1.79227 11.1121 1.79227Z" fill="#F3F3F3"/>
</svg>
