<svg width="1136" height="104" viewBox="0 0 1136 104" fill="none" xmlns="http://www.w3.org/2000/svg">
<path d="M6.22563 10.2V30H0.985625V2H8.98563L16.5456 21.24C17.0656 22.64 16.9856 24.52 16.9856 26H17.8656C17.8656 24.52 17.7456 22.64 18.2656 21.24L25.8256 2H33.7856V30H28.5456V10.2C28.5456 8.72 29.1856 6.88 29.4256 5.4L28.5456 5.24C28.2656 6.72 28.2256 8.68 27.7456 10.08L20.5056 30H14.3056L7.02563 10.08C6.54563 8.68 6.50563 6.72 6.22563 5.28L5.34563 5.4C5.58563 6.88 6.22563 8.76 6.22563 10.2ZM43.7478 10L48.9478 21.2C49.6278 22.64 49.6278 24.68 49.6278 26.28H50.5478C50.5478 24.68 50.5478 22.64 51.2278 21.2L56.4278 10H62.4278L52.7078 29.96C52.1078 31.2 51.5478 32.2 50.9478 33.48C49.1478 37.36 47.2678 40 43.9078 40H38.4678V35.12H41.6278C44.0278 35.12 44.9078 33.84 46.0678 31.68L47.3078 29.28L37.7478 10H43.7478ZM81.0694 13.72V30H75.8294V2H81.0694L93.8294 18.92C94.8694 20.28 95.5094 22.48 96.0694 24.12L96.9494 23.84C96.3894 22.2 95.5894 20.08 95.5894 18.32V2H100.829V30H95.5894L82.8294 13.12C81.7494 11.72 81.1094 9.56 80.5494 7.88L79.7094 8.2C80.2694 9.84 81.0694 11.96 81.0694 13.72ZM121.059 28C119.579 29.64 117.499 30.64 114.819 30.64C108.859 30.64 104.659 25.84 104.659 19.88C104.659 13.92 108.859 9.4 114.819 9.4C117.499 9.4 119.579 10.32 121.019 11.88C121.859 12.76 122.019 14.4 122.419 15.56L123.259 15.28C122.899 14.12 122.179 12.72 122.179 11.52L122.139 10H127.059V30H122.139L122.179 28.36C122.179 27.16 122.899 25.72 123.259 24.6L122.379 24.32C122.019 25.44 121.859 27.08 121.059 28ZM109.579 19.88C109.579 23.24 111.779 26.08 115.099 26.08C118.379 26.08 120.579 23.16 120.699 19.88C120.699 16.36 118.739 13.96 115.099 13.96C111.779 13.96 109.579 16.48 109.579 19.88ZM150.282 11.16C151.522 10.24 153.162 9.4 155.162 9.4C159.322 9.4 162.562 11.72 162.562 16.28V30H157.642V19.24C157.642 15.16 156.402 13.36 153.762 13.36C150.882 13.36 149.682 15.2 149.682 19.24V30H144.762V19.24C144.762 15.16 143.482 13.36 140.762 13.36C137.842 13.36 136.362 15.2 136.362 19.24V30H131.442V10H136.362V10.24C136.362 12 135.562 14.16 135.082 15.84L135.922 16.12C136.442 14.44 136.722 11.96 137.962 10.76C139.002 9.72 140.242 9.4 142.282 9.4C144.082 9.4 145.642 9.72 146.722 10.64C148.082 11.76 147.522 14.28 147.282 16L148.162 16.12C148.442 14.4 148.882 12.24 150.282 11.16ZM178.467 30.64C170.347 30.64 165.987 25.84 165.987 19.88C165.987 13.92 170.747 9.4 177.507 9.4C184.467 9.4 188.787 14.28 188.747 19.8C188.747 20.2 188.747 21.16 188.707 21.52L171.867 21.48C171.867 23.68 173.867 26.44 177.987 26.44C180.667 26.44 182.307 25.28 182.707 24.28H188.307C187.707 26.36 184.747 30.64 178.467 30.64ZM171.867 18.2H183.027C183.027 15.44 180.987 13.28 177.627 13.28C174.227 13.28 171.867 15.68 171.867 18.2ZM202.587 30V2H207.827V30H202.587ZM231.372 23.52C231.372 27.4 228.332 30.64 221.812 30.64C214.932 30.64 211.692 26.56 211.692 23.2H216.612C216.612 24.24 218.572 26.04 222.332 26.04C225.372 26.04 226.372 24.96 226.372 23.84C226.372 19.92 211.852 22.52 211.852 15.32C211.852 12.2 214.852 9.4 221.172 9.4C228.252 9.4 230.932 12.88 230.932 15.68H226.012C226.012 14.4 224.132 13.4 220.892 13.4C218.692 13.4 216.772 14 216.772 15.28C216.772 18.16 231.372 15.4 231.372 23.52ZM577.193 30H575.833V25.6H580.833V29.96C580.833 32.52 578.993 34.44 575.993 34.44V32.24C577.113 32.24 577.713 31.76 578.033 31.2C578.433 30.56 579.113 30.08 579.713 29.64L579.193 28.92C578.593 29.36 577.953 30 577.193 30ZM593.016 29.96L603.336 1.92H609.336L620.136 29.96H614.656L610.896 20.2H601.976L598.536 29.96H593.016ZM610.256 16.28L606.976 8.84C606.616 8 606.816 6.84 606.816 5.96H605.896C605.896 6.84 606.096 8 605.736 8.84L602.456 16.28H610.256ZM628.713 11.04C630.393 9.72 632.153 9.4 634.753 9.4C638.833 9.4 641.993 11.72 641.993 16.28V30H637.073V19.8C637.073 15.96 635.673 14.24 632.753 14.24C629.553 14.24 626.833 15.96 626.833 19.8V30H621.953V10H626.833V10.32C626.833 11.92 626.033 13.84 625.433 15.36L626.273 15.72C626.873 14.2 627.433 12.04 628.713 11.04ZM662.723 11.56V0.999999L667.643 0.96V29.96L662.723 30V28.56C662.723 27.36 663.403 25.96 663.803 24.8L662.923 24.52C662.563 25.68 662.363 27.32 661.523 28.16C660.043 29.72 658.003 30.64 655.323 30.64C649.323 30.64 645.203 26 645.323 20.08C645.443 14.32 649.523 9.4 655.283 9.4C657.963 9.4 660.043 10.44 661.483 12C662.323 12.84 662.563 14.48 662.963 15.6L663.803 15.32C663.403 14.16 662.723 12.76 662.723 11.56ZM655.963 26.04C659.723 26.04 661.843 23.52 661.843 20.16C661.843 16.76 659.723 13.96 655.963 13.96C652.203 13.96 650.203 16.76 650.203 20.16C650.203 23.52 652.203 26.04 655.963 26.04ZM687.788 10.2V30H682.548V2H690.548L698.108 21.24C698.628 22.64 698.548 24.52 698.548 26H699.428C699.428 24.52 699.308 22.64 699.828 21.24L707.388 2H715.348V30H710.108V10.2C710.108 8.72 710.748 6.88 710.988 5.4L710.108 5.24C709.828 6.72 709.788 8.68 709.308 10.08L702.068 30H695.868L688.588 10.08C688.108 8.68 688.068 6.72 687.788 5.28L686.908 5.4C687.148 6.88 687.788 8.76 687.788 10.2ZM725.31 10L730.51 21.2C731.19 22.64 731.19 24.68 731.19 26.28H732.11C732.11 24.68 732.11 22.64 732.79 21.2L737.99 10H743.99L734.27 29.96C733.67 31.2 733.11 32.2 732.51 33.48C730.71 37.36 728.83 40 725.47 40H720.03V35.12H723.19C725.59 35.12 726.47 33.84 727.63 31.68L728.87 29.28L719.31 10H725.31ZM757.392 30V2H776.912V6.88H762.472V13.28H775.912V18.16H762.472V25.12H777.112V30H757.392ZM798.876 11.16C800.116 10.24 801.756 9.4 803.756 9.4C807.916 9.4 811.156 11.72 811.156 16.28V30H806.236V19.24C806.236 15.16 804.996 13.36 802.356 13.36C799.476 13.36 798.276 15.2 798.276 19.24V30H793.356V19.24C793.356 15.16 792.076 13.36 789.356 13.36C786.436 13.36 784.956 15.2 784.956 19.24V30H780.036V10H784.956V10.24C784.956 12 784.156 14.16 783.676 15.84L784.516 16.12C785.036 14.44 785.316 11.96 786.556 10.76C787.596 9.72 788.836 9.4 790.876 9.4C792.676 9.4 794.236 9.72 795.316 10.64C796.676 11.76 796.116 14.28 795.876 16L796.756 16.12C797.036 14.4 797.476 12.24 798.876 11.16ZM830.981 28C829.501 29.64 827.421 30.64 824.741 30.64C818.781 30.64 814.581 25.84 814.581 19.88C814.581 13.92 818.781 9.4 824.741 9.4C827.421 9.4 829.501 10.32 830.941 11.88C831.781 12.76 831.941 14.4 832.341 15.56L833.181 15.28C832.821 14.12 832.101 12.72 832.101 11.52L832.061 10H836.981V30H832.061L832.101 28.36C832.101 27.16 832.821 25.72 833.181 24.6L832.301 24.32C831.941 25.44 831.781 27.08 830.981 28ZM819.501 19.88C819.501 23.24 821.701 26.08 825.021 26.08C828.301 26.08 830.501 23.16 830.621 19.88C830.621 16.36 828.661 13.96 825.021 13.96C821.701 13.96 819.501 16.48 819.501 19.88ZM841.364 7V2H846.684V7H841.364ZM841.644 30V10H846.484V30H841.644ZM851.491 25.16V0.999999H856.411V23.28C856.411 24.92 857.091 25.44 858.931 25.44H861.411V30H858.451C853.891 30 851.491 28.28 851.491 25.16ZM875.673 30V2H880.913V30H875.673ZM904.458 23.52C904.458 27.4 901.418 30.64 894.898 30.64C888.018 30.64 884.778 26.56 884.778 23.2H889.698C889.698 24.24 891.658 26.04 895.418 26.04C898.458 26.04 899.458 24.96 899.458 23.84C899.458 19.92 884.938 22.52 884.938 15.32C884.938 12.2 887.938 9.4 894.258 9.4C901.338 9.4 904.018 12.88 904.018 15.68H899.098C899.098 14.4 897.218 13.4 893.978 13.4C891.778 13.4 889.858 14 889.858 15.28C889.858 18.16 904.458 15.4 904.458 23.52ZM1131.14 30V25.2H1135.94V30H1131.14ZM111.2 94V66H116.44V94H111.2ZM127.305 65.88C127.065 66.8133 126.759 67.8267 126.385 68.92C126.012 69.9867 125.612 71.0667 125.185 72.16C124.759 73.2267 124.319 74.2533 123.865 75.24H119.585C119.772 74.44 119.959 73.6133 120.145 72.76C120.332 71.9067 120.505 71.0533 120.665 70.2C120.852 69.32 121.012 68.48 121.145 67.68C121.305 66.88 121.439 66.1333 121.545 65.44H127.025L127.305 65.88ZM148.817 75.16C150.057 74.24 151.697 73.4 153.697 73.4C157.857 73.4 161.097 75.72 161.097 80.28V94H156.177V83.24C156.177 79.16 154.937 77.36 152.297 77.36C149.417 77.36 148.217 79.2 148.217 83.24V94H143.297V83.24C143.297 79.16 142.017 77.36 139.297 77.36C136.377 77.36 134.897 79.2 134.897 83.24V94H129.977V74H134.897V74.24C134.897 76 134.097 78.16 133.617 79.84L134.457 80.12C134.977 78.44 135.257 75.96 136.497 74.76C137.537 73.72 138.777 73.4 140.817 73.4C142.617 73.4 144.177 73.72 145.257 74.64C146.617 75.76 146.057 78.28 145.817 80L146.697 80.12C146.977 78.4 147.417 76.24 148.817 75.16ZM189.322 94.6C180.962 94.6 174.762 88.32 174.762 79.96C174.762 71.64 180.882 65.4 189.162 65.4C197.682 65.4 201.682 70.04 202.242 75.4H196.962C196.322 73.04 194.802 70.44 189.202 70.44C184.042 70.44 180.002 73.96 180.002 80C180.002 86 184.002 89.56 189.202 89.56C195.082 89.56 196.642 86.96 197.322 84.6H202.602C201.842 90.84 197.602 94.6 189.322 94.6ZM205.585 83.96C205.585 77.52 210.105 73.4 216.985 73.4C223.905 73.4 228.425 77.8 228.425 83.96C228.425 90.16 223.905 94.64 216.985 94.64C210.105 94.64 205.585 90.4 205.585 83.96ZM210.785 83.96C210.785 87.24 212.585 89.92 216.985 89.92C221.425 89.92 223.225 87.24 223.225 83.96C223.225 80.68 221.425 78.12 216.985 78.12C212.545 78.12 210.785 80.68 210.785 83.96ZM238.381 75.04C240.061 73.72 241.821 73.4 244.421 73.4C248.501 73.4 251.661 75.72 251.661 80.28V94H246.741V83.8C246.741 79.96 245.341 78.24 242.421 78.24C239.221 78.24 236.501 79.96 236.501 83.8V94H231.621V74H236.501V74.32C236.501 75.92 235.701 77.84 235.101 79.36L235.941 79.72C236.541 78.2 237.101 76.04 238.381 75.04ZM259.391 87.28V78.28H255.391V74H259.391V66.44H264.271V74H269.471V78.28H264.271V87.28C264.271 88.96 265.031 89.44 266.911 89.44H269.271V94H264.431C260.671 94 259.391 90.48 259.391 87.28ZM288.461 92C286.981 93.64 284.901 94.64 282.221 94.64C276.261 94.64 272.061 89.84 272.061 83.88C272.061 77.92 276.261 73.4 282.221 73.4C284.901 73.4 286.981 74.32 288.421 75.88C289.261 76.76 289.421 78.4 289.821 79.56L290.661 79.28C290.301 78.12 289.581 76.72 289.581 75.52L289.541 74H294.461V94H289.541L289.581 92.36C289.581 91.16 290.301 89.72 290.661 88.6L289.781 88.32C289.421 89.44 289.261 91.08 288.461 92ZM276.981 83.88C276.981 87.24 279.181 90.08 282.501 90.08C285.781 90.08 287.981 87.16 288.101 83.88C288.101 80.36 286.141 77.96 282.501 77.96C279.181 77.96 276.981 80.48 276.981 83.88ZM298.627 83.88C298.627 77.36 302.947 73.4 309.427 73.4C316.027 73.4 319.547 77.48 319.947 81.2H314.707C314.587 80.8 313.187 78 309.307 78C305.707 78 303.507 80.24 303.467 83.84C303.467 87.4 305.787 89.96 309.467 90C313.267 90 314.707 87.2 314.827 86.76H320.067C319.427 90.68 316.027 94.6 309.627 94.64C303.027 94.6 298.627 90.4 298.627 83.88ZM326.735 87.28V78.28H322.735V74H326.735V66.44H331.615V74H336.815V78.28H331.615V87.28C331.615 88.96 332.375 89.44 334.255 89.44H336.615V94H331.775C328.015 94 326.735 90.48 326.735 87.28ZM340.485 71V66H345.805V71H340.485ZM340.765 94V74H345.605V94H340.765ZM357.092 75.04C358.772 73.72 360.532 73.4 363.132 73.4C367.212 73.4 370.372 75.72 370.372 80.28V94H365.452V83.8C365.452 79.96 364.052 78.24 361.132 78.24C357.932 78.24 355.212 79.96 355.212 83.8V94H350.332V74H355.212V74.32C355.212 75.92 354.412 77.84 353.812 79.36L354.652 79.72C355.252 78.2 355.812 76.04 357.092 75.04ZM391.262 91.92C389.702 93.6 387.462 94.64 384.662 94.64C378.622 94.64 374.342 89.84 374.342 83.88C374.342 77.92 378.622 73.4 384.662 73.4C387.422 73.4 389.662 74.32 391.182 75.92C392.022 76.76 392.262 78.4 392.702 79.52L393.542 79.24C393.102 78.08 392.382 76.72 392.302 75.52L392.222 74H397.142V94.56C397.102 100 393.982 104 385.662 104C378.902 104 375.262 100.8 374.902 95.84H380.102C380.582 98.72 382.742 99.44 385.422 99.44C390.142 99.44 392.222 97.4 392.222 94C392.222 93.36 392.222 92.84 392.262 92.28C392.342 91.12 393.102 89.76 393.502 88.68L392.662 88.36C392.262 89.48 392.062 91.08 391.262 91.92ZM379.222 84.08C379.222 87.4 381.302 89.92 385.262 89.92C389.022 89.92 391.102 87.68 391.302 84.56V83.56C391.102 80.48 389.022 78.16 385.262 78.16C381.302 78.16 379.222 80.72 379.222 84.08ZM415.856 66L421.656 74.76C422.416 75.96 422.496 77.64 422.496 79.04H423.416C423.416 77.64 423.456 75.92 424.176 74.76L429.776 66H435.376L425.616 80.76V93.72H420.376V80.76L410.256 66H415.856ZM437.616 83.96C437.616 77.52 442.136 73.4 449.016 73.4C455.936 73.4 460.456 77.8 460.456 83.96C460.456 90.16 455.936 94.64 449.016 94.64C442.136 94.64 437.616 90.4 437.616 83.96ZM442.816 83.96C442.816 87.24 444.616 89.92 449.016 89.92C453.456 89.92 455.256 87.24 455.256 83.96C455.256 80.68 453.456 78.12 449.016 78.12C444.576 78.12 442.816 80.68 442.816 83.96ZM477.012 92.76C475.372 94.36 473.852 94.6 471.092 94.6C467.172 94.6 463.372 92.24 463.372 87.72V74H468.292V84.56C468.292 88.72 470.172 90.28 472.852 90.28C475.772 90.28 478.172 88.52 478.172 84.56V74H483.052V94H478.172V93.2C478.212 92.12 478.932 90.88 479.292 89.84L478.452 89.52C478.092 90.56 477.812 92 477.012 92.76ZM494.833 93.96L505.153 65.92H511.153L521.953 93.96H516.473L512.713 84.2H503.793L500.353 93.96H494.833ZM512.073 80.28L508.793 72.84C508.433 72 508.633 70.84 508.633 69.96H507.713C507.713 70.84 507.913 72 507.553 72.84L504.273 80.28H512.073ZM529.157 65V75.56C529.157 76.76 528.477 78.16 528.077 79.32L528.957 79.6C529.317 78.48 529.557 76.84 530.397 75.96C531.837 74.44 533.877 73.4 536.557 73.4C542.277 73.4 546.437 78.32 546.557 84.08C546.717 90 542.517 94.64 536.517 94.64C533.877 94.64 531.837 93.72 530.357 92.16C529.517 91.32 529.317 89.68 528.957 88.52L528.117 88.8C528.477 89.96 529.157 91.36 529.157 92.56V94L524.277 93.96V64.96L529.157 65ZM535.877 90.04C539.597 90.04 541.677 87.52 541.677 84.16C541.677 80.76 539.597 77.96 535.877 77.96C532.157 77.96 530.077 80.76 530.077 84.16C530.077 87.52 532.157 90.04 535.877 90.04ZM549.1 83.96C549.1 77.52 553.62 73.4 560.5 73.4C567.42 73.4 571.94 77.8 571.94 83.96C571.94 90.16 567.42 94.64 560.5 94.64C553.62 94.64 549.1 90.4 549.1 83.96ZM554.3 83.96C554.3 87.24 556.1 89.92 560.5 89.92C564.94 89.92 566.74 87.24 566.74 83.96C566.74 80.68 564.94 78.12 560.5 78.12C556.06 78.12 554.3 80.68 554.3 83.96ZM588.496 92.76C586.856 94.36 585.336 94.6 582.576 94.6C578.656 94.6 574.856 92.24 574.856 87.72V74H579.776V84.56C579.776 88.72 581.656 90.28 584.336 90.28C587.256 90.28 589.656 88.52 589.656 84.56V74H594.536V94H589.656V93.2C589.696 92.12 590.416 90.88 590.776 89.84L589.936 89.52C589.576 90.56 589.296 92 588.496 92.76ZM602.477 87.28V78.28H598.477V74H602.477V66.44H607.357V74H612.557V78.28H607.357V87.28C607.357 88.96 608.117 89.44 609.997 89.44H612.357V94H607.517C603.757 94 602.477 90.48 602.477 87.28Z" fill="#F3F3F3"/>
<path d="M248.805 2L254.605 10.76C255.365 11.96 255.445 13.64 255.445 15.04H256.365C256.365 13.64 256.405 11.92 257.125 10.76L262.725 2H268.325L258.565 16.76V29.72H253.325V16.76L243.205 2H248.805ZM270.565 19.96C270.565 13.52 275.085 9.4 281.965 9.4C288.885 9.4 293.405 13.8 293.405 19.96C293.405 26.16 288.885 30.64 281.965 30.64C275.085 30.64 270.565 26.4 270.565 19.96ZM275.765 19.96C275.765 23.24 277.565 25.92 281.965 25.92C286.405 25.92 288.205 23.24 288.205 19.96C288.205 16.68 286.405 14.12 281.965 14.12C277.525 14.12 275.765 16.68 275.765 19.96ZM309.961 28.76C308.321 30.36 306.801 30.6 304.041 30.6C300.121 30.6 296.321 28.24 296.321 23.72V10H301.241V20.56C301.241 24.72 303.121 26.28 305.801 26.28C308.721 26.28 311.121 24.52 311.121 20.56V10H316.001V30H311.121V29.2C311.161 28.12 311.881 26.88 312.241 25.84L311.401 25.52C311.041 26.56 310.761 28 309.961 28.76ZM327.502 11.4C329.622 9.76 331.822 9.4 335.742 9.4V13.96C330.782 13.96 325.622 15.72 325.622 21.28V30H320.742V10H325.622V10.6C325.622 12.12 324.782 13.96 324.182 15.36L325.022 15.72C325.622 14.32 326.262 12.32 327.502 11.4ZM354.937 13.72V30H349.697V2H354.937L367.697 18.92C368.737 20.28 369.377 22.48 369.937 24.12L370.817 23.84C370.257 22.2 369.457 20.08 369.457 18.32V2H374.697V30H369.457L356.697 13.12C355.617 11.72 354.977 9.56 354.417 7.88L353.577 8.2C354.137 9.84 354.937 11.96 354.937 13.72ZM394.926 28C393.446 29.64 391.366 30.64 388.686 30.64C382.726 30.64 378.526 25.84 378.526 19.88C378.526 13.92 382.726 9.4 388.686 9.4C391.366 9.4 393.446 10.32 394.886 11.88C395.726 12.76 395.886 14.4 396.286 15.56L397.126 15.28C396.766 14.12 396.046 12.72 396.046 11.52L396.006 10H400.926V30H396.006L396.046 28.36C396.046 27.16 396.766 25.72 397.126 24.6L396.246 24.32C395.886 25.44 395.726 27.08 394.926 28ZM383.446 19.88C383.446 23.24 385.646 26.08 388.966 26.08C392.246 26.08 394.446 23.16 394.566 19.88C394.566 16.36 392.606 13.96 388.966 13.96C385.646 13.96 383.446 16.48 383.446 19.88ZM424.149 11.16C425.389 10.24 427.029 9.4 429.029 9.4C433.189 9.4 436.429 11.72 436.429 16.28V30H431.509V19.24C431.509 15.16 430.269 13.36 427.629 13.36C424.749 13.36 423.549 15.2 423.549 19.24V30H418.629V19.24C418.629 15.16 417.349 13.36 414.629 13.36C411.709 13.36 410.229 15.2 410.229 19.24V30H405.309V10H410.229V10.24C410.229 12 409.429 14.16 408.949 15.84L409.789 16.12C410.309 14.44 410.589 11.96 411.829 10.76C412.869 9.72 414.109 9.4 416.149 9.4C417.949 9.4 419.509 9.72 420.589 10.64C421.949 11.76 421.389 14.28 421.149 16L422.029 16.12C422.309 14.4 422.749 12.24 424.149 11.16ZM452.334 30.64C444.214 30.64 439.854 25.84 439.854 19.88C439.854 13.92 444.614 9.4 451.374 9.4C458.334 9.4 462.654 14.28 462.614 19.8C462.614 20.2 462.614 21.16 462.574 21.52L445.734 21.48C445.734 23.68 447.734 26.44 451.854 26.44C454.534 26.44 456.174 25.28 456.574 24.28H462.174C461.574 26.36 458.614 30.64 452.334 30.64ZM445.734 18.2H456.894C456.894 15.44 454.854 13.28 451.494 13.28C448.094 13.28 445.734 15.68 445.734 18.2ZM476.454 30V2H481.694V13.24H496.454V2H501.694V30H496.454V18.2H481.694V30H476.454ZM517.998 30.64C509.878 30.64 505.518 25.84 505.518 19.88C505.518 13.92 510.278 9.4 517.038 9.4C523.998 9.4 528.318 14.28 528.278 19.8C528.278 20.2 528.278 21.16 528.238 21.52L511.398 21.48C511.398 23.68 513.398 26.44 517.518 26.44C520.198 26.44 521.838 25.28 522.238 24.28H527.838C527.238 26.36 524.278 30.64 517.998 30.64ZM511.398 18.2H522.558C522.558 15.44 520.518 13.28 517.158 13.28C513.758 13.28 511.398 15.68 511.398 18.2ZM538.478 11.4C540.598 9.76 542.798 9.4 546.718 9.4V13.96C541.758 13.96 536.598 15.72 536.598 21.28V30H531.718V10H536.598V10.6C536.598 12.12 535.758 13.96 535.158 15.36L535.998 15.72C536.598 14.32 537.238 12.32 538.478 11.4ZM561.553 30.64C553.433 30.64 549.073 25.84 549.073 19.88C549.073 13.92 553.833 9.4 560.593 9.4C567.553 9.4 571.873 14.28 571.833 19.8C571.833 20.2 571.833 21.16 571.793 21.52L554.953 21.48C554.953 23.68 556.953 26.44 561.073 26.44C563.753 26.44 565.393 25.28 565.793 24.28H571.393C570.793 26.36 567.833 30.64 561.553 30.64ZM554.953 18.2H566.113C566.113 15.44 564.073 13.28 560.713 13.28C557.313 13.28 554.953 15.68 554.953 18.2ZM921.891 2L927.691 10.76C928.451 11.96 928.531 13.64 928.531 15.04H929.451C929.451 13.64 929.491 11.92 930.211 10.76L935.811 2H941.411L931.651 16.76V29.72H926.411V16.76L916.291 2H921.891ZM943.651 19.96C943.651 13.52 948.171 9.4 955.051 9.4C961.971 9.4 966.491 13.8 966.491 19.96C966.491 26.16 961.971 30.64 955.051 30.64C948.171 30.64 943.651 26.4 943.651 19.96ZM948.851 19.96C948.851 23.24 950.651 25.92 955.051 25.92C959.491 25.92 961.291 23.24 961.291 19.96C961.291 16.68 959.491 14.12 955.051 14.12C950.611 14.12 948.851 16.68 948.851 19.96ZM983.047 28.76C981.407 30.36 979.887 30.6 977.127 30.6C973.207 30.6 969.407 28.24 969.407 23.72V10H974.327V20.56C974.327 24.72 976.207 26.28 978.887 26.28C981.807 26.28 984.207 24.52 984.207 20.56V10H989.087V30H984.207V29.2C984.247 28.12 984.967 26.88 985.327 25.84L984.487 25.52C984.127 26.56 983.847 28 983.047 28.76ZM1000.59 11.4C1002.71 9.76 1004.91 9.4 1008.83 9.4V13.96C1003.87 13.96 998.708 15.72 998.708 21.28V30H993.828V10H998.708V10.6C998.708 12.12 997.868 13.96 997.268 15.36L998.108 15.72C998.708 14.32 999.348 12.32 1000.59 11.4ZM1022.78 30V2H1042.3V6.88H1027.86V13.28H1041.3V18.16H1027.86V25.12H1042.5V30H1022.78ZM1064.27 11.16C1065.51 10.24 1067.15 9.4 1069.15 9.4C1073.31 9.4 1076.55 11.72 1076.55 16.28V30H1071.63V19.24C1071.63 15.16 1070.39 13.36 1067.75 13.36C1064.87 13.36 1063.67 15.2 1063.67 19.24V30H1058.75V19.24C1058.75 15.16 1057.47 13.36 1054.75 13.36C1051.83 13.36 1050.35 15.2 1050.35 19.24V30H1045.43V10H1050.35V10.24C1050.35 12 1049.55 14.16 1049.07 15.84L1049.91 16.12C1050.43 14.44 1050.71 11.96 1051.95 10.76C1052.99 9.72 1054.23 9.4 1056.27 9.4C1058.07 9.4 1059.63 9.72 1060.71 10.64C1062.07 11.76 1061.51 14.28 1061.27 16L1062.15 16.12C1062.43 14.4 1062.87 12.24 1064.27 11.16ZM1096.37 28C1094.89 29.64 1092.81 30.64 1090.13 30.64C1084.17 30.64 1079.97 25.84 1079.97 19.88C1079.97 13.92 1084.17 9.4 1090.13 9.4C1092.81 9.4 1094.89 10.32 1096.33 11.88C1097.17 12.76 1097.33 14.4 1097.73 15.56L1098.57 15.28C1098.21 14.12 1097.49 12.72 1097.49 11.52L1097.45 10H1102.37V30H1097.45L1097.49 28.36C1097.49 27.16 1098.21 25.72 1098.57 24.6L1097.69 24.32C1097.33 25.44 1097.17 27.08 1096.37 28ZM1084.89 19.88C1084.89 23.24 1087.09 26.08 1090.41 26.08C1093.69 26.08 1095.89 23.16 1096.01 19.88C1096.01 16.36 1094.05 13.96 1090.41 13.96C1087.09 13.96 1084.89 16.48 1084.89 19.88ZM1106.75 7V2H1112.07V7H1106.75ZM1107.03 30V10H1111.87V30H1107.03ZM1116.88 25.16V0.999999H1121.8V23.28C1121.8 24.92 1122.48 25.44 1124.32 25.44H1126.8V30H1123.84C1119.28 30 1116.88 28.28 1116.88 25.16ZM630.387 66L636.187 74.76C636.947 75.96 637.027 77.64 637.027 79.04H637.947C637.947 77.64 637.987 75.92 638.707 74.76L644.307 66H649.907L640.147 80.76V93.72H634.907V80.76L624.787 66H630.387ZM652.147 83.96C652.147 77.52 656.667 73.4 663.547 73.4C670.467 73.4 674.987 77.8 674.987 83.96C674.987 90.16 670.467 94.64 663.547 94.64C656.667 94.64 652.147 90.4 652.147 83.96ZM657.347 83.96C657.347 87.24 659.147 89.92 663.547 89.92C667.987 89.92 669.787 87.24 669.787 83.96C669.787 80.68 667.987 78.12 663.547 78.12C659.107 78.12 657.347 80.68 657.347 83.96ZM691.543 92.76C689.903 94.36 688.383 94.6 685.623 94.6C681.703 94.6 677.903 92.24 677.903 87.72V74H682.823V84.56C682.823 88.72 684.703 90.28 687.383 90.28C690.303 90.28 692.703 88.52 692.703 84.56V74H697.583V94H692.703V93.2C692.743 92.12 693.463 90.88 693.823 89.84L692.983 89.52C692.623 90.56 692.343 92 691.543 92.76ZM709.084 75.4C711.204 73.76 713.404 73.4 717.324 73.4V77.96C712.364 77.96 707.204 79.72 707.204 85.28V94H702.324V74H707.204V74.6C707.204 76.12 706.364 77.96 705.764 79.36L706.604 79.72C707.204 78.32 707.844 76.32 709.084 75.4ZM748.359 81.8C749.959 82.76 750.679 84.48 751.319 87C751.679 88.6 753.439 94 753.439 94H748.039C747.159 90.48 746.479 87.88 746.359 87.32C745.079 82.8 742.279 83.28 740.799 83.2C740.519 83.2 740.199 83.2 739.839 83.2C738.879 83.2 736.839 83.2 736.359 83.2V94H731.279V66H741.279C747.559 66 752.759 67.28 752.759 73.84C752.759 77.44 750.879 79.04 748.359 80.12C747.039 80.72 745.119 80.48 743.679 80.48V81.4C745.119 81.4 747.159 81 748.359 81.8ZM736.359 69.48V78.88H740.879C744.359 78.88 747.519 77.48 747.519 73.92C747.519 70.4 744.599 69.48 740.879 69.48H736.359ZM768.721 94.64C760.601 94.64 756.241 89.84 756.241 83.88C756.241 77.92 761.001 73.4 767.761 73.4C774.721 73.4 779.041 78.28 779.001 83.8C779.001 84.2 779.001 85.16 778.961 85.52L762.121 85.48C762.121 87.68 764.121 90.44 768.241 90.44C770.921 90.44 772.561 89.28 772.961 88.28H778.561C777.961 90.36 775.001 94.64 768.721 94.64ZM762.121 82.2H773.281C773.281 79.44 771.241 77.28 767.881 77.28C764.481 77.28 762.121 79.68 762.121 82.2ZM796.899 92C795.419 93.64 793.339 94.64 790.659 94.64C784.699 94.64 780.499 89.84 780.499 83.88C780.499 77.92 784.699 73.4 790.659 73.4C793.339 73.4 795.419 74.32 796.859 75.88C797.699 76.76 797.859 78.4 798.259 79.56L799.099 79.28C798.739 78.12 798.019 76.72 798.019 75.52L797.979 74H802.899V94H797.979L798.019 92.36C798.019 91.16 798.739 89.72 799.099 88.6L798.219 88.32C797.859 89.44 797.699 91.08 796.899 92ZM785.419 83.88C785.419 87.24 787.619 90.08 790.939 90.08C794.219 90.08 796.419 87.16 796.539 83.88C796.539 80.36 794.579 77.96 790.939 77.96C787.619 77.96 785.419 80.48 785.419 83.88ZM825.962 87.52C825.962 91.4 822.922 94.64 816.402 94.64C809.522 94.64 806.282 90.56 806.282 87.2H811.202C811.202 88.24 813.162 90.04 816.922 90.04C819.962 90.04 820.962 88.96 820.962 87.84C820.962 83.92 806.442 86.52 806.442 79.32C806.442 76.2 809.442 73.4 815.762 73.4C822.842 73.4 825.522 76.88 825.522 79.68H820.602C820.602 78.4 818.722 77.4 815.482 77.4C813.282 77.4 811.362 78 811.362 79.28C811.362 82.16 825.962 79.4 825.962 87.52ZM828.475 83.96C828.475 77.52 832.995 73.4 839.875 73.4C846.795 73.4 851.315 77.8 851.315 83.96C851.315 90.16 846.795 94.64 839.875 94.64C832.995 94.64 828.475 90.4 828.475 83.96ZM833.675 83.96C833.675 87.24 835.475 89.92 839.875 89.92C844.315 89.92 846.115 87.24 846.115 83.96C846.115 80.68 844.315 78.12 839.875 78.12C835.435 78.12 833.675 80.68 833.675 83.96ZM861.271 75.04C862.951 73.72 864.711 73.4 867.311 73.4C871.391 73.4 874.551 75.72 874.551 80.28V94H869.631V83.8C869.631 79.96 868.231 78.24 865.311 78.24C862.111 78.24 859.391 79.96 859.391 83.8V94H854.511V74H859.391V74.32C859.391 75.92 858.591 77.84 857.991 79.36L858.831 79.72C859.431 78.2 859.991 76.04 861.271 75.04ZM877.682 94L886.042 65.4H890.762L882.362 94H877.682ZM911.516 93.6C910.636 94.2 909.516 94.64 906.996 94.64C899.036 94.64 893.396 88.32 893.396 80C893.396 71.68 899.436 65.4 907.916 65.4C916.436 65.4 922.476 71.2 922.476 79.36C922.476 84.32 921.556 88.88 917.276 91.48L920.476 97.2H915.396L913.756 94C913.236 92.96 913.476 91.64 913.636 90.52L912.756 90.36C912.556 91.48 912.436 92.92 911.516 93.6ZM916.116 85.08C916.956 83.48 917.516 81.28 917.516 79.36C917.516 74.48 913.796 70.08 908.076 70.08C902.356 70.08 898.636 74.76 898.636 80C898.636 85.24 901.996 90 907.196 90C908.676 90 910.036 89.52 911.316 88.72L908.076 82.96H913.156L914.116 84.88C914.636 85.88 914.436 87.28 914.356 88.4L915.236 88.48C915.356 87.36 915.636 86.08 916.116 85.08ZM939.512 92.76C937.872 94.36 936.352 94.6 933.592 94.6C929.672 94.6 925.872 92.24 925.872 87.72V74H930.792V84.56C930.792 88.72 932.672 90.28 935.352 90.28C938.272 90.28 940.672 88.52 940.672 84.56V74H945.552V94H940.672V93.2C940.712 92.12 941.432 90.88 941.792 89.84L940.952 89.52C940.592 90.56 940.312 92 939.512 92.76ZM961.573 94.64C953.453 94.64 949.093 89.84 949.093 83.88C949.093 77.92 953.853 73.4 960.613 73.4C967.573 73.4 971.893 78.28 971.853 83.8C971.853 84.2 971.853 85.16 971.813 85.52L954.973 85.48C954.973 87.68 956.973 90.44 961.093 90.44C963.773 90.44 965.413 89.28 965.813 88.28H971.413C970.813 90.36 967.853 94.64 961.573 94.64ZM954.973 82.2H966.133C966.133 79.44 964.093 77.28 960.733 77.28C957.333 77.28 954.973 79.68 954.973 82.2ZM982.053 75.4C984.173 73.76 986.373 73.4 990.293 73.4V77.96C985.333 77.96 980.173 79.72 980.173 85.28V94H975.293V74H980.173V74.6C980.173 76.12 979.333 77.96 978.733 79.36L979.573 79.72C980.173 78.32 980.813 76.32 982.053 75.4ZM998.767 74L1003.97 85.2C1004.65 86.64 1004.65 88.68 1004.65 90.28H1005.57C1005.57 88.68 1005.57 86.64 1006.25 85.2L1011.45 74H1017.45L1007.73 93.96C1007.13 95.2 1006.57 96.2 1005.97 97.48C1004.17 101.36 1002.29 104 998.927 104H993.487V99.12H996.647C999.047 99.12 999.927 97.84 1001.09 95.68L1002.33 93.28L992.767 74H998.767Z" fill="#4C4C4C"/>
<path d="M1020.93 94V89.2H1025.73V94H1020.93Z" fill="white"/>
</svg>
